<?xml version="1.0" standalone="no"?>
<!DOCTYPE svg PUBLIC "-//W3C//DTD SVG 20010904//EN"
 "http://www.w3.org/TR/2001/REC-SVG-20010904/DTD/svg10.dtd">
<svg version="1.0" xmlns="http://www.w3.org/2000/svg"
 width="512.000000pt" height="512.000000pt" viewBox="0 0 512.000000 512.000000"
 preserveAspectRatio="xMidYMid meet">
<metadata>
Created by potrace 1.14, written by Peter Selinger 2001-2017
</metadata>
<g transform="translate(0.000000,512.000000) scale(0.100000,-0.100000)"
fill="#000000" stroke="none">
<path d="M2790 3884 c-630 -311 -1153 -575 -1162 -586 -21 -24 -23 -76 -4
-100 7 -10 527 -272 1156 -583 812 -402 1152 -565 1176 -565 23 0 38 7 53 26
20 26 21 38 21 324 l0 298 -90 214 c-50 117 -99 222 -110 232 -15 16 -69 27
-272 57 -139 21 -262 38 -272 39 -55 1 17 15 260 51 205 30 272 43 286 56 9
10 58 115 108 234 l90 217 0 290 c0 192 -4 299 -11 315 -11 24 -47 47 -72 47
-7 0 -527 -255 -1157 -566z"/>
<path d="M1119 3051 l-24 -19 -3 -296 -3 -296 40 -97 c95 -237 151 -359 169
-371 10 -7 140 -30 287 -52 148 -22 271 -43 274 -45 2 -3 1 -5 -2 -5 -4 0
-129 -18 -279 -41 -204 -30 -277 -44 -290 -57 -9 -9 -57 -115 -107 -234 l-91
-217 0 -290 c0 -194 4 -298 11 -315 7 -13 25 -30 41 -37 36 -15 -31 -46 1028
479 470 233 960 475 1088 538 252 123 264 132 246 196 -9 32 -28 42 -439 248
-1017 508 -1878 930 -1900 930 -12 0 -33 -9 -46 -19z"/>
</g>
</svg>
