<svg xmlns="http://www.w3.org/2000/svg" xmlns:xlink="http://www.w3.org/1999/xlink" width="2458" zoomAndPan="magnify" viewBox="0 0 1843.5 383.999986" height="512" preserveAspectRatio="xMidYMid meet" version="1.0"><defs><g/><clipPath id="954a9213b1"><path d="M 519.476562 66 L 896.1875 66 L 896.1875 363.222656 L 519.476562 363.222656 Z M 519.476562 66 " clip-rule="nonzero"/></clipPath><clipPath id="a8b8ca04d9"><path d="M 534 20.414062 L 823 20.414062 L 823 145 L 534 145 Z M 534 20.414062 " clip-rule="nonzero"/></clipPath><clipPath id="fa2d47c7de"><path d="M 602 215 L 750 215 L 750 312.566406 L 602 312.566406 Z M 602 215 " clip-rule="nonzero"/></clipPath><clipPath id="5a8f824b45"><path d="M 602 270 L 750 270 L 750 312.566406 L 602 312.566406 Z M 602 270 " clip-rule="nonzero"/></clipPath><clipPath id="f3400bd64f"><path d="M 578 139.277344 L 676 139.277344 L 676 205 L 578 205 Z M 578 139.277344 " clip-rule="nonzero"/></clipPath></defs><g fill="#000000" fill-opacity="1"><g transform="translate(934.699974, 237.054976)"><g><path d="M 100 0 L 84.21875 -40.546875 L 32.296875 -40.546875 L 16.703125 0 L 0 0 L 51.203125 -131.5625 L 66.0625 -131.5625 L 117.078125 0 Z M 79.265625 -55.234375 L 64.59375 -94.875 C 64.226562 -95.851562 63.613281 -97.625 62.75 -100.1875 C 61.894531 -102.757812 61.070312 -105.421875 60.28125 -108.171875 C 59.488281 -110.921875 58.847656 -113.03125 58.359375 -114.5 C 57.378906 -110.707031 56.367188 -107.003906 55.328125 -103.390625 C 54.285156 -99.785156 53.398438 -96.945312 52.671875 -94.875 L 37.796875 -55.234375 Z M 79.265625 -55.234375 "/></g></g></g><g fill="#000000" fill-opacity="1"><g transform="translate(1048.281563, 237.054976)"><g><path d="M 48.4375 -11.375 C 50.882812 -11.375 53.394531 -11.554688 55.96875 -11.921875 C 58.539062 -12.296875 60.617188 -12.785156 62.203125 -13.390625 L 62.203125 -1.09375 C 60.492188 -0.238281 58.046875 0.457031 54.859375 1 C 51.679688 1.550781 48.625 1.828125 45.6875 1.828125 C 40.550781 1.828125 35.8125 0.941406 31.46875 -0.828125 C 27.125 -2.597656 23.601562 -5.6875 20.90625 -10.09375 C 18.21875 -14.5 16.875 -20.675781 16.875 -28.625 L 16.875 -85.875 L 2.9375 -85.875 L 2.9375 -93.578125 L 17.0625 -100 L 23.484375 -120.921875 L 33.03125 -120.921875 L 33.03125 -98.359375 L 61.46875 -98.359375 L 61.46875 -85.875 L 33.03125 -85.875 L 33.03125 -29 C 33.03125 -23 34.46875 -18.5625 37.34375 -15.6875 C 40.21875 -12.8125 43.914062 -11.375 48.4375 -11.375 Z M 48.4375 -11.375 "/></g></g></g><g fill="#000000" fill-opacity="1"><g transform="translate(1110.852327, 237.054976)"><g><path d="M 23.859375 -135.234375 C 26.304688 -135.234375 28.476562 -134.40625 30.375 -132.75 C 32.269531 -131.101562 33.21875 -128.507812 33.21875 -124.96875 C 33.21875 -121.414062 32.269531 -118.8125 30.375 -117.15625 C 28.476562 -115.507812 26.304688 -114.6875 23.859375 -114.6875 C 21.160156 -114.6875 18.894531 -115.507812 17.0625 -117.15625 C 15.226562 -118.8125 14.3125 -121.414062 14.3125 -124.96875 C 14.3125 -128.507812 15.226562 -131.101562 17.0625 -132.75 C 18.894531 -134.40625 21.160156 -135.234375 23.859375 -135.234375 Z M 31.75 -98.359375 L 31.75 0 L 15.59375 0 L 15.59375 -98.359375 Z M 31.75 -98.359375 "/></g></g></g><g fill="#000000" fill-opacity="1"><g transform="translate(1154.523392, 237.054976)"><g><path d="M 61.46875 -100.1875 C 63.300781 -100.1875 65.257812 -100.09375 67.34375 -99.90625 C 69.425781 -99.726562 71.320312 -99.457031 73.03125 -99.09375 L 71.015625 -84.21875 C 69.421875 -84.59375 67.644531 -84.898438 65.6875 -85.140625 C 63.726562 -85.390625 61.957031 -85.515625 60.375 -85.515625 C 55.351562 -85.515625 50.640625 -84.132812 46.234375 -81.375 C 41.835938 -78.625 38.320312 -74.769531 35.6875 -69.8125 C 33.0625 -64.863281 31.75 -59.085938 31.75 -52.484375 L 31.75 0 L 15.59375 0 L 15.59375 -98.359375 L 28.8125 -98.359375 L 30.640625 -80.375 L 31.375 -80.375 C 34.4375 -85.757812 38.503906 -90.40625 43.578125 -94.3125 C 48.660156 -98.226562 54.625 -100.1875 61.46875 -100.1875 Z M 61.46875 -100.1875 "/></g></g></g><g fill="#000000" fill-opacity="1"><g transform="translate(1226.635748, 237.054976)"><g><path d="M 23.859375 -135.234375 C 26.304688 -135.234375 28.476562 -134.40625 30.375 -132.75 C 32.269531 -131.101562 33.21875 -128.507812 33.21875 -124.96875 C 33.21875 -121.414062 32.269531 -118.8125 30.375 -117.15625 C 28.476562 -115.507812 26.304688 -114.6875 23.859375 -114.6875 C 21.160156 -114.6875 18.894531 -115.507812 17.0625 -117.15625 C 15.226562 -118.8125 14.3125 -121.414062 14.3125 -124.96875 C 14.3125 -128.507812 15.226562 -131.101562 17.0625 -132.75 C 18.894531 -134.40625 21.160156 -135.234375 23.859375 -135.234375 Z M 31.75 -98.359375 L 31.75 0 L 15.59375 0 L 15.59375 -98.359375 Z M 31.75 -98.359375 "/></g></g></g><g fill="#000000" fill-opacity="1"><g transform="translate(1270.306812, 237.054976)"><g><path d="M 61.46875 -100.1875 C 63.300781 -100.1875 65.257812 -100.09375 67.34375 -99.90625 C 69.425781 -99.726562 71.320312 -99.457031 73.03125 -99.09375 L 71.015625 -84.21875 C 69.421875 -84.59375 67.644531 -84.898438 65.6875 -85.140625 C 63.726562 -85.390625 61.957031 -85.515625 60.375 -85.515625 C 55.351562 -85.515625 50.640625 -84.132812 46.234375 -81.375 C 41.835938 -78.625 38.320312 -74.769531 35.6875 -69.8125 C 33.0625 -64.863281 31.75 -59.085938 31.75 -52.484375 L 31.75 0 L 15.59375 0 L 15.59375 -98.359375 L 28.8125 -98.359375 L 30.640625 -80.375 L 31.375 -80.375 C 34.4375 -85.757812 38.503906 -90.40625 43.578125 -94.3125 C 48.660156 -98.226562 54.625 -100.1875 61.46875 -100.1875 Z M 61.46875 -100.1875 "/></g></g></g><g fill="#000000" fill-opacity="1"><g transform="translate(1342.419168, 237.054976)"><g><path d="M 23.859375 -135.234375 C 26.304688 -135.234375 28.476562 -134.40625 30.375 -132.75 C 32.269531 -131.101562 33.21875 -128.507812 33.21875 -124.96875 C 33.21875 -121.414062 32.269531 -118.8125 30.375 -117.15625 C 28.476562 -115.507812 26.304688 -114.6875 23.859375 -114.6875 C 21.160156 -114.6875 18.894531 -115.507812 17.0625 -117.15625 C 15.226562 -118.8125 14.3125 -121.414062 14.3125 -124.96875 C 14.3125 -128.507812 15.226562 -131.101562 17.0625 -132.75 C 18.894531 -134.40625 21.160156 -135.234375 23.859375 -135.234375 Z M 31.75 -98.359375 L 31.75 0 L 15.59375 0 L 15.59375 -98.359375 Z M 31.75 -98.359375 "/></g></g></g><g fill="#ff6600" fill-opacity="1"><g transform="translate(936.670024, 275.178696)"><g><path d="M 2.125 0 C 1.820312 0 1.671875 -0.15625 1.671875 -0.46875 L 1.671875 -18.65625 C 1.671875 -18.96875 1.820312 -19.125 2.125 -19.125 L 8.828125 -19.125 C 10.191406 -19.125 11.382812 -18.878906 12.40625 -18.390625 C 13.4375 -17.910156 14.234375 -17.234375 14.796875 -16.359375 C 15.367188 -15.484375 15.65625 -14.472656 15.65625 -13.328125 L 15.65625 -5.796875 C 15.65625 -4.640625 15.367188 -3.625 14.796875 -2.75 C 14.234375 -1.882812 13.4375 -1.207031 12.40625 -0.71875 C 11.382812 -0.238281 10.191406 0 8.828125 0 Z M 5.515625 -3.46875 C 5.515625 -3.363281 5.570312 -3.3125 5.6875 -3.3125 L 8.953125 -3.3125 C 9.796875 -3.3125 10.472656 -3.59375 10.984375 -4.15625 C 11.503906 -4.71875 11.773438 -5.472656 11.796875 -6.421875 L 11.796875 -12.703125 C 11.796875 -13.648438 11.535156 -14.40625 11.015625 -14.96875 C 10.503906 -15.53125 9.8125 -15.8125 8.9375 -15.8125 L 5.6875 -15.8125 C 5.570312 -15.8125 5.515625 -15.757812 5.515625 -15.65625 Z M 5.515625 -3.46875 "/></g></g></g><g fill="#ff6600" fill-opacity="1"><g transform="translate(965.837909, 275.178696)"><g><path d="M 2.125 0 C 1.820312 0 1.671875 -0.15625 1.671875 -0.46875 L 1.671875 -18.65625 C 1.671875 -18.96875 1.820312 -19.125 2.125 -19.125 L 5.046875 -19.125 C 5.359375 -19.125 5.515625 -18.96875 5.515625 -18.65625 L 5.515625 -0.46875 C 5.515625 -0.15625 5.359375 0 5.046875 0 Z M 2.125 0 "/></g></g></g><g fill="#ff6600" fill-opacity="1"><g transform="translate(985.312614, 275.178696)"><g><path d="M 8.390625 0.21875 C 6.984375 0.21875 5.742188 -0.0625 4.671875 -0.625 C 3.597656 -1.1875 2.765625 -1.972656 2.171875 -2.984375 C 1.578125 -3.992188 1.28125 -5.164062 1.28125 -6.5 L 1.28125 -12.625 C 1.28125 -13.945312 1.578125 -15.117188 2.171875 -16.140625 C 2.765625 -17.160156 3.597656 -17.945312 4.671875 -18.5 C 5.742188 -19.0625 6.984375 -19.34375 8.390625 -19.34375 C 9.765625 -19.34375 10.984375 -19.066406 12.046875 -18.515625 C 13.117188 -17.972656 13.953125 -17.234375 14.546875 -16.296875 C 15.140625 -15.359375 15.4375 -14.316406 15.4375 -13.171875 L 15.4375 -13.109375 C 15.4375 -12.796875 15.28125 -12.640625 14.96875 -12.640625 L 12.046875 -12.640625 C 11.898438 -12.640625 11.785156 -12.660156 11.703125 -12.703125 C 11.617188 -12.753906 11.578125 -12.804688 11.578125 -12.859375 L 11.578125 -13.0625 C 11.578125 -13.894531 11.285156 -14.597656 10.703125 -15.171875 C 10.117188 -15.742188 9.347656 -16.03125 8.390625 -16.03125 C 7.398438 -16.03125 6.609375 -15.722656 6.015625 -15.109375 C 5.429688 -14.503906 5.140625 -13.710938 5.140625 -12.734375 L 5.140625 -6.390625 C 5.140625 -5.410156 5.457031 -4.613281 6.09375 -4 C 6.726562 -3.394531 7.535156 -3.09375 8.515625 -3.09375 C 9.460938 -3.09375 10.21875 -3.34375 10.78125 -3.84375 C 11.351562 -4.34375 11.640625 -5.035156 11.640625 -5.921875 L 11.640625 -7.125 C 11.640625 -7.238281 11.582031 -7.296875 11.46875 -7.296875 L 8.578125 -7.296875 C 8.265625 -7.296875 8.109375 -7.445312 8.109375 -7.75 L 8.109375 -10 C 8.109375 -10.300781 8.265625 -10.453125 8.578125 -10.453125 L 14.96875 -10.453125 C 15.28125 -10.453125 15.4375 -10.300781 15.4375 -10 L 15.4375 -6.53125 C 15.4375 -5.144531 15.144531 -3.941406 14.5625 -2.921875 C 13.976562 -1.898438 13.148438 -1.117188 12.078125 -0.578125 C 11.015625 -0.046875 9.785156 0.21875 8.390625 0.21875 Z M 8.390625 0.21875 "/></g></g></g><g fill="#ff6600" fill-opacity="1"><g transform="translate(1014.180146, 275.178696)"><g><path d="M 2.125 0 C 1.820312 0 1.671875 -0.15625 1.671875 -0.46875 L 1.671875 -18.65625 C 1.671875 -18.96875 1.820312 -19.125 2.125 -19.125 L 5.046875 -19.125 C 5.359375 -19.125 5.515625 -18.96875 5.515625 -18.65625 L 5.515625 -0.46875 C 5.515625 -0.15625 5.359375 0 5.046875 0 Z M 2.125 0 "/></g></g></g><g fill="#ff6600" fill-opacity="1"><g transform="translate(1033.654854, 275.178696)"><g><path d="M 14.71875 -19.125 C 15.03125 -19.125 15.1875 -18.96875 15.1875 -18.65625 L 15.1875 -16.25 C 15.1875 -15.9375 15.03125 -15.78125 14.71875 -15.78125 L 10 -15.78125 C 9.882812 -15.78125 9.828125 -15.726562 9.828125 -15.625 L 9.828125 -0.46875 C 9.828125 -0.15625 9.675781 0 9.375 0 L 6.453125 0 C 6.140625 0 5.984375 -0.15625 5.984375 -0.46875 L 5.984375 -15.625 C 5.984375 -15.726562 5.925781 -15.78125 5.8125 -15.78125 L 1.234375 -15.78125 C 0.921875 -15.78125 0.765625 -15.9375 0.765625 -16.25 L 0.765625 -18.65625 C 0.765625 -18.96875 0.921875 -19.125 1.234375 -19.125 Z M 14.71875 -19.125 "/></g></g></g><g fill="#ff6600" fill-opacity="1"><g transform="translate(1061.921679, 275.178696)"><g><path d="M 13.953125 0 C 13.703125 0 13.53125 -0.125 13.4375 -0.375 L 12.671875 -2.921875 C 12.648438 -3.015625 12.597656 -3.0625 12.515625 -3.0625 L 5.8125 -3.0625 C 5.726562 -3.0625 5.675781 -3.015625 5.65625 -2.921875 L 4.890625 -0.375 C 4.796875 -0.125 4.625 0 4.375 0 L 1.203125 0 C 1.035156 0 0.914062 -0.046875 0.84375 -0.140625 C 0.769531 -0.242188 0.757812 -0.367188 0.8125 -0.515625 L 6.640625 -18.734375 C 6.734375 -18.992188 6.90625 -19.125 7.15625 -19.125 L 11.171875 -19.125 C 11.421875 -19.125 11.59375 -18.992188 11.6875 -18.734375 L 17.5 -0.515625 C 17.519531 -0.484375 17.53125 -0.429688 17.53125 -0.359375 C 17.53125 -0.242188 17.492188 -0.15625 17.421875 -0.09375 C 17.347656 -0.03125 17.25 0 17.125 0 Z M 6.609375 -6.234375 C 6.585938 -6.097656 6.632812 -6.03125 6.75 -6.03125 L 11.578125 -6.03125 C 11.691406 -6.03125 11.738281 -6.097656 11.71875 -6.234375 L 9.265625 -14.5625 C 9.242188 -14.632812 9.207031 -14.671875 9.15625 -14.671875 C 9.113281 -14.671875 9.078125 -14.632812 9.046875 -14.5625 Z M 6.609375 -6.234375 "/></g></g></g><g fill="#ff6600" fill-opacity="1"><g transform="translate(1092.536718, 275.178696)"><g><path d="M 2.125 0 C 1.820312 0 1.671875 -0.15625 1.671875 -0.46875 L 1.671875 -18.65625 C 1.671875 -18.96875 1.820312 -19.125 2.125 -19.125 L 5.046875 -19.125 C 5.359375 -19.125 5.515625 -18.96875 5.515625 -18.65625 L 5.515625 -3.46875 C 5.515625 -3.363281 5.570312 -3.3125 5.6875 -3.3125 L 14.453125 -3.3125 C 14.753906 -3.3125 14.90625 -3.15625 14.90625 -2.84375 L 14.90625 -0.46875 C 14.90625 -0.15625 14.753906 0 14.453125 0 Z M 2.125 0 "/></g></g></g><g fill="#ff6600" fill-opacity="1"><g transform="translate(1120.448582, 275.178696)"><g/></g></g><g fill="#ff6600" fill-opacity="1"><g transform="translate(1138.203082, 275.178696)"><g><path d="M 2.15625 0 C 1.84375 0 1.6875 -0.15625 1.6875 -0.46875 L 1.6875 -18.65625 C 1.6875 -18.96875 1.84375 -19.125 2.15625 -19.125 L 5.078125 -19.125 C 5.316406 -19.125 5.5 -19.019531 5.625 -18.8125 L 9.59375 -12.421875 C 9.625 -12.367188 9.660156 -12.34375 9.703125 -12.34375 C 9.753906 -12.34375 9.789062 -12.367188 9.8125 -12.421875 L 13.8125 -18.8125 C 13.945312 -19.019531 14.128906 -19.125 14.359375 -19.125 L 17.28125 -19.125 C 17.59375 -19.125 17.75 -18.96875 17.75 -18.65625 L 17.75 -0.46875 C 17.75 -0.15625 17.59375 0 17.28125 0 L 14.359375 0 C 14.054688 0 13.90625 -0.15625 13.90625 -0.46875 L 13.90625 -12.296875 C 13.90625 -12.367188 13.878906 -12.410156 13.828125 -12.421875 C 13.785156 -12.441406 13.742188 -12.414062 13.703125 -12.34375 L 10.953125 -7.84375 C 10.828125 -7.632812 10.644531 -7.53125 10.40625 -7.53125 L 9.015625 -7.53125 C 8.773438 -7.53125 8.59375 -7.632812 8.46875 -7.84375 L 5.734375 -12.34375 C 5.703125 -12.414062 5.660156 -12.441406 5.609375 -12.421875 C 5.566406 -12.410156 5.546875 -12.367188 5.546875 -12.296875 L 5.546875 -0.46875 C 5.546875 -0.15625 5.390625 0 5.078125 0 Z M 2.15625 0 "/></g></g></g><g fill="#ff6600" fill-opacity="1"><g transform="translate(1169.910288, 275.178696)"><g><path d="M 13.953125 0 C 13.703125 0 13.53125 -0.125 13.4375 -0.375 L 12.671875 -2.921875 C 12.648438 -3.015625 12.597656 -3.0625 12.515625 -3.0625 L 5.8125 -3.0625 C 5.726562 -3.0625 5.675781 -3.015625 5.65625 -2.921875 L 4.890625 -0.375 C 4.796875 -0.125 4.625 0 4.375 0 L 1.203125 0 C 1.035156 0 0.914062 -0.046875 0.84375 -0.140625 C 0.769531 -0.242188 0.757812 -0.367188 0.8125 -0.515625 L 6.640625 -18.734375 C 6.734375 -18.992188 6.90625 -19.125 7.15625 -19.125 L 11.171875 -19.125 C 11.421875 -19.125 11.59375 -18.992188 11.6875 -18.734375 L 17.5 -0.515625 C 17.519531 -0.484375 17.53125 -0.429688 17.53125 -0.359375 C 17.53125 -0.242188 17.492188 -0.15625 17.421875 -0.09375 C 17.347656 -0.03125 17.25 0 17.125 0 Z M 6.609375 -6.234375 C 6.585938 -6.097656 6.632812 -6.03125 6.75 -6.03125 L 11.578125 -6.03125 C 11.691406 -6.03125 11.738281 -6.097656 11.71875 -6.234375 L 9.265625 -14.5625 C 9.242188 -14.632812 9.207031 -14.671875 9.15625 -14.671875 C 9.113281 -14.671875 9.078125 -14.632812 9.046875 -14.5625 Z M 6.609375 -6.234375 "/></g></g></g><g fill="#ff6600" fill-opacity="1"><g transform="translate(1200.525316, 275.178696)"><g><path d="M 12.265625 0 C 12.023438 0 11.84375 -0.117188 11.71875 -0.359375 L 8.359375 -7.78125 C 8.316406 -7.875 8.253906 -7.921875 8.171875 -7.921875 L 5.6875 -7.921875 C 5.570312 -7.921875 5.515625 -7.863281 5.515625 -7.75 L 5.515625 -0.46875 C 5.515625 -0.15625 5.359375 0 5.046875 0 L 2.125 0 C 1.820312 0 1.671875 -0.15625 1.671875 -0.46875 L 1.671875 -18.6875 C 1.671875 -18.988281 1.820312 -19.140625 2.125 -19.140625 L 9.8125 -19.140625 C 10.96875 -19.140625 11.988281 -18.898438 12.875 -18.421875 C 13.757812 -17.941406 14.441406 -17.265625 14.921875 -16.390625 C 15.410156 -15.515625 15.65625 -14.515625 15.65625 -13.390625 C 15.65625 -12.148438 15.34375 -11.082031 14.71875 -10.1875 C 14.101562 -9.289062 13.25 -8.660156 12.15625 -8.296875 C 12.101562 -8.285156 12.066406 -8.253906 12.046875 -8.203125 C 12.023438 -8.160156 12.035156 -8.117188 12.078125 -8.078125 L 15.671875 -0.546875 C 15.734375 -0.472656 15.765625 -0.390625 15.765625 -0.296875 C 15.765625 -0.203125 15.726562 -0.128906 15.65625 -0.078125 C 15.582031 -0.0234375 15.476562 0 15.34375 0 Z M 5.6875 -15.8125 C 5.570312 -15.8125 5.515625 -15.757812 5.515625 -15.65625 L 5.515625 -11.0625 C 5.515625 -10.945312 5.570312 -10.890625 5.6875 -10.890625 L 9.234375 -10.890625 C 9.992188 -10.890625 10.613281 -11.113281 11.09375 -11.5625 C 11.582031 -12.007812 11.828125 -12.597656 11.828125 -13.328125 C 11.828125 -14.054688 11.582031 -14.648438 11.09375 -15.109375 C 10.613281 -15.578125 9.992188 -15.8125 9.234375 -15.8125 Z M 5.6875 -15.8125 "/></g></g></g><g fill="#ff6600" fill-opacity="1"><g transform="translate(1229.58397, 275.178696)"><g><path d="M 2.125 0 C 1.820312 0 1.671875 -0.15625 1.671875 -0.46875 L 1.671875 -18.65625 C 1.671875 -18.96875 1.820312 -19.125 2.125 -19.125 L 5.046875 -19.125 C 5.359375 -19.125 5.515625 -18.96875 5.515625 -18.65625 L 5.515625 -11.203125 C 5.515625 -11.128906 5.535156 -11.082031 5.578125 -11.0625 C 5.628906 -11.039062 5.671875 -11.054688 5.703125 -11.109375 L 11.9375 -18.84375 C 12.0625 -19.03125 12.253906 -19.125 12.515625 -19.125 L 15.8125 -19.125 C 15.9375 -19.125 16.035156 -19.097656 16.109375 -19.046875 C 16.179688 -19.003906 16.21875 -18.9375 16.21875 -18.84375 C 16.21875 -18.769531 16.175781 -18.671875 16.09375 -18.546875 L 10.140625 -10.953125 C 10.078125 -10.898438 10.078125 -10.828125 10.140625 -10.734375 L 16.4375 -0.546875 C 16.5 -0.472656 16.53125 -0.390625 16.53125 -0.296875 C 16.53125 -0.0976562 16.398438 0 16.140625 0 L 12.84375 0 C 12.601562 0 12.421875 -0.0976562 12.296875 -0.296875 L 7.515625 -8.0625 C 7.492188 -8.113281 7.453125 -8.140625 7.390625 -8.140625 C 7.335938 -8.140625 7.296875 -8.113281 7.265625 -8.0625 L 5.59375 -5.921875 C 5.539062 -5.847656 5.515625 -5.785156 5.515625 -5.734375 L 5.515625 -0.46875 C 5.515625 -0.15625 5.359375 0 5.046875 0 Z M 2.125 0 "/></g></g></g><g fill="#ff6600" fill-opacity="1"><g transform="translate(1258.970291, 275.178696)"><g><path d="M 14.9375 -16.28125 C 14.9375 -15.96875 14.78125 -15.8125 14.46875 -15.8125 L 5.6875 -15.8125 C 5.570312 -15.8125 5.515625 -15.757812 5.515625 -15.65625 L 5.515625 -11.46875 C 5.515625 -11.363281 5.570312 -11.3125 5.6875 -11.3125 L 11.390625 -11.3125 C 11.703125 -11.3125 11.859375 -11.15625 11.859375 -10.84375 L 11.859375 -8.46875 C 11.859375 -8.15625 11.703125 -8 11.390625 -8 L 5.6875 -8 C 5.570312 -8 5.515625 -7.945312 5.515625 -7.84375 L 5.515625 -3.46875 C 5.515625 -3.363281 5.570312 -3.3125 5.6875 -3.3125 L 14.46875 -3.3125 C 14.78125 -3.3125 14.9375 -3.15625 14.9375 -2.84375 L 14.9375 -0.46875 C 14.9375 -0.15625 14.78125 0 14.46875 0 L 2.125 0 C 1.820312 0 1.671875 -0.15625 1.671875 -0.46875 L 1.671875 -18.65625 C 1.671875 -18.96875 1.820312 -19.125 2.125 -19.125 L 14.46875 -19.125 C 14.78125 -19.125 14.9375 -18.96875 14.9375 -18.65625 Z M 14.9375 -16.28125 "/></g></g></g><g fill="#ff6600" fill-opacity="1"><g transform="translate(1287.209799, 275.178696)"><g><path d="M 14.71875 -19.125 C 15.03125 -19.125 15.1875 -18.96875 15.1875 -18.65625 L 15.1875 -16.25 C 15.1875 -15.9375 15.03125 -15.78125 14.71875 -15.78125 L 10 -15.78125 C 9.882812 -15.78125 9.828125 -15.726562 9.828125 -15.625 L 9.828125 -0.46875 C 9.828125 -0.15625 9.675781 0 9.375 0 L 6.453125 0 C 6.140625 0 5.984375 -0.15625 5.984375 -0.46875 L 5.984375 -15.625 C 5.984375 -15.726562 5.925781 -15.78125 5.8125 -15.78125 L 1.234375 -15.78125 C 0.921875 -15.78125 0.765625 -15.9375 0.765625 -16.25 L 0.765625 -18.65625 C 0.765625 -18.96875 0.921875 -19.125 1.234375 -19.125 Z M 14.71875 -19.125 "/></g></g></g><g fill="#ff6600" fill-opacity="1"><g transform="translate(1315.476614, 275.178696)"><g><path d="M 2.125 0 C 1.820312 0 1.671875 -0.15625 1.671875 -0.46875 L 1.671875 -18.65625 C 1.671875 -18.96875 1.820312 -19.125 2.125 -19.125 L 5.046875 -19.125 C 5.359375 -19.125 5.515625 -18.96875 5.515625 -18.65625 L 5.515625 -0.46875 C 5.515625 -0.15625 5.359375 0 5.046875 0 Z M 2.125 0 "/></g></g></g><g fill="#ff6600" fill-opacity="1"><g transform="translate(1334.951321, 275.178696)"><g><path d="M 2.125 0 C 1.820312 0 1.671875 -0.15625 1.671875 -0.46875 L 1.671875 -18.65625 C 1.671875 -18.96875 1.820312 -19.125 2.125 -19.125 L 4.9375 -19.125 C 5.175781 -19.125 5.359375 -19.019531 5.484375 -18.8125 L 12.3125 -7.453125 C 12.351562 -7.378906 12.394531 -7.351562 12.4375 -7.375 C 12.488281 -7.394531 12.515625 -7.441406 12.515625 -7.515625 L 12.515625 -18.65625 C 12.515625 -18.96875 12.664062 -19.125 12.96875 -19.125 L 15.84375 -19.125 C 16.15625 -19.125 16.3125 -18.96875 16.3125 -18.65625 L 16.3125 -0.46875 C 16.3125 -0.15625 16.15625 0 15.84375 0 L 13.0625 0 C 12.84375 0 12.660156 -0.109375 12.515625 -0.328125 L 5.65625 -11.796875 C 5.613281 -11.867188 5.570312 -11.894531 5.53125 -11.875 C 5.488281 -11.863281 5.46875 -11.820312 5.46875 -11.75 L 5.484375 -0.46875 C 5.484375 -0.15625 5.332031 0 5.03125 0 Z M 2.125 0 "/></g></g></g><g fill="#ff6600" fill-opacity="1"><g transform="translate(1365.211376, 275.178696)"><g><path d="M 8.390625 0.21875 C 6.984375 0.21875 5.742188 -0.0625 4.671875 -0.625 C 3.597656 -1.1875 2.765625 -1.972656 2.171875 -2.984375 C 1.578125 -3.992188 1.28125 -5.164062 1.28125 -6.5 L 1.28125 -12.625 C 1.28125 -13.945312 1.578125 -15.117188 2.171875 -16.140625 C 2.765625 -17.160156 3.597656 -17.945312 4.671875 -18.5 C 5.742188 -19.0625 6.984375 -19.34375 8.390625 -19.34375 C 9.765625 -19.34375 10.984375 -19.066406 12.046875 -18.515625 C 13.117188 -17.972656 13.953125 -17.234375 14.546875 -16.296875 C 15.140625 -15.359375 15.4375 -14.316406 15.4375 -13.171875 L 15.4375 -13.109375 C 15.4375 -12.796875 15.28125 -12.640625 14.96875 -12.640625 L 12.046875 -12.640625 C 11.898438 -12.640625 11.785156 -12.660156 11.703125 -12.703125 C 11.617188 -12.753906 11.578125 -12.804688 11.578125 -12.859375 L 11.578125 -13.0625 C 11.578125 -13.894531 11.285156 -14.597656 10.703125 -15.171875 C 10.117188 -15.742188 9.347656 -16.03125 8.390625 -16.03125 C 7.398438 -16.03125 6.609375 -15.722656 6.015625 -15.109375 C 5.429688 -14.503906 5.140625 -13.710938 5.140625 -12.734375 L 5.140625 -6.390625 C 5.140625 -5.410156 5.457031 -4.613281 6.09375 -4 C 6.726562 -3.394531 7.535156 -3.09375 8.515625 -3.09375 C 9.460938 -3.09375 10.21875 -3.34375 10.78125 -3.84375 C 11.351562 -4.34375 11.640625 -5.035156 11.640625 -5.921875 L 11.640625 -7.125 C 11.640625 -7.238281 11.582031 -7.296875 11.46875 -7.296875 L 8.578125 -7.296875 C 8.265625 -7.296875 8.109375 -7.445312 8.109375 -7.75 L 8.109375 -10 C 8.109375 -10.300781 8.265625 -10.453125 8.578125 -10.453125 L 14.96875 -10.453125 C 15.28125 -10.453125 15.4375 -10.300781 15.4375 -10 L 15.4375 -6.53125 C 15.4375 -5.144531 15.144531 -3.941406 14.5625 -2.921875 C 13.976562 -1.898438 13.148438 -1.117188 12.078125 -0.578125 C 11.015625 -0.046875 9.785156 0.21875 8.390625 0.21875 Z M 8.390625 0.21875 "/></g></g></g><path fill="#ffb800" d="M 827.902344 164.457031 C 805.390625 175.554688 777.652344 185.636719 745.214844 194.933594 L 745.214844 206.019531 C 745.214844 209.09375 745.175781 212.074219 745.089844 214.960938 L 750.527344 213.402344 C 776.554688 205.941406 803.054688 197.148438 827.8125 185.78125 C 827.851562 179.199219 827.882812 172.082031 827.902344 164.453125 Z M 827.902344 164.457031 " fill-opacity="1" fill-rule="evenodd"/><g clip-path="url(#954a9213b1)"><path fill="#ee7723" d="M 827.902344 164.457031 C 880.78125 138.386719 904.835938 106.703125 893.273438 66.382812 C 893.128906 83.453125 870.003906 100.523438 826.042969 117.566406 C 804.167969 126.046875 777.128906 134.519531 745.195312 142.980469 C 745.203125 143.125 745.207031 143.269531 745.214844 143.417969 C 727.515625 148.574219 711.078125 152.886719 696.015625 156.570312 C 680.84375 160.144531 662.722656 164.039062 641.546875 168.457031 C 620.261719 172.773438 606.988281 175.507812 601.722656 176.773438 C 576.121094 182.242188 556.101562 193.1875 541.457031 209.386719 C 526.816406 225.699219 519.542969 245.269531 519.542969 268.3125 C 519.542969 285.359375 523.96875 301.140625 532.820312 315.765625 C 541.667969 330.390625 554.3125 341.863281 570.640625 350.386719 C 586.972656 358.90625 605.9375 363.222656 627.640625 363.222656 C 651.242188 363.222656 672.628906 359.222656 691.695312 351.332031 C 710.660156 343.441406 730.363281 331.550781 750.800781 315.765625 C 760.285156 331.234375 769.132812 342.914062 777.664062 351.015625 C 786.09375 359.117188 794.628906 363.222656 803.265625 363.222656 C 813.484375 363.222656 822.757812 359.644531 830.871094 352.59375 C 838.984375 345.542969 842.984375 337.652344 842.984375 329.023438 C 842.984375 324.078125 840.460938 313.03125 835.191406 295.882812 C 829.921875 278.730469 827.289062 262.210938 827.289062 246.425781 C 827.5 229.589844 827.605469 214.230469 827.710938 200.445312 C 827.746094 195.902344 827.78125 191.011719 827.8125 185.78125 C 803.054688 197.152344 776.554688 205.945312 750.527344 213.40625 L 745.089844 214.964844 C 744.378906 239.582031 740.628906 257.550781 733.835938 268.945312 C 727.199219 280.414062 716.875 289.882812 702.757812 297.144531 C 688.640625 304.40625 673.257812 308.085938 656.613281 308.085938 C 641.019531 308.085938 628.378906 303.667969 618.683594 294.722656 C 608.992188 285.777344 604.144531 274.941406 604.144531 262.105469 C 604.144531 249.792969 608.253906 240.21875 616.472656 233.378906 C 624.691406 226.4375 633.328125 221.804688 642.390625 219.492188 C 651.453125 217.074219 667.78125 213.390625 691.382812 208.339844 C 714.875 203.289062 732.890625 198.550781 745.21875 194.027344 L 745.21875 194.9375 C 777.65625 185.636719 805.390625 175.554688 827.90625 164.457031 Z M 827.902344 164.457031 " fill-opacity="1" fill-rule="evenodd"/></g><g clip-path="url(#a8b8ca04d9)"><path fill="#9a2300" d="M 743.117188 123.644531 C 768.648438 116.828125 794.464844 109.195312 819.082031 99.652344 L 822.621094 98.277344 C 820.582031 89.683594 817.957031 81.929688 814.75 75.023438 C 806.003906 56.082031 791.042969 42.296875 769.867188 33.5625 C 748.691406 24.832031 719.613281 20.414062 682.527344 20.414062 C 649.34375 20.414062 621.738281 24.9375 599.507812 33.988281 C 577.277344 43.035156 560.949219 54.507812 550.414062 68.5 C 539.875 82.492188 534.714844 96.910156 534.714844 111.640625 C 534.714844 121.109375 538.085938 128.894531 545.039062 134.894531 C 551.886719 140.996094 560.105469 144.046875 569.585938 144.046875 C 580.019531 144.046875 586.867188 142.15625 590.128906 138.367188 C 593.292969 134.578125 598.769531 126.6875 606.460938 114.796875 C 614.152344 102.800781 623.421875 93.960938 634.273438 87.964844 C 645.019531 81.96875 661.140625 79.023438 682.527344 79.023438 C 707.496094 79.023438 723.828125 84.175781 731.832031 94.59375 C 737.167969 101.554688 740.917969 111.25 743.117188 123.648438 Z M 743.117188 123.644531 " fill-opacity="1" fill-rule="evenodd"/></g><g clip-path="url(#fa2d47c7de)"><path fill="#ffb800" d="M 749.523438 215.703125 L 749.523438 279.929688 L 749.394531 279.929688 C 749.230469 297.886719 716.503906 312.4375 676.152344 312.4375 C 635.800781 312.4375 603.074219 297.839844 602.875 279.871094 L 602.75 279.871094 L 602.75 215.644531 Z M 749.523438 215.703125 " fill-opacity="1" fill-rule="nonzero"/></g><path fill="#dd6136" d="M 749.523438 210.894531 C 749.523438 228.945312 716.679688 243.589844 676.199219 243.589844 C 635.722656 243.589844 602.875 228.945312 602.875 210.894531 C 602.875 192.839844 635.722656 178.199219 676.199219 178.199219 C 716.679688 178.199219 749.523438 192.828125 749.523438 210.894531 Z M 749.523438 210.894531 " fill-opacity="1" fill-rule="nonzero"/><path fill="#ffffff" d="M 744.679688 218.425781 C 744.679688 235.296875 714 248.972656 676.152344 248.972656 C 638.304688 248.972656 607.613281 235.296875 607.613281 218.425781 C 607.613281 201.550781 638.292969 187.878906 676.199219 187.878906 C 714.105469 187.878906 744.679688 201.550781 744.679688 218.425781 Z M 744.679688 218.425781 " fill-opacity="1" fill-rule="nonzero"/><path fill="#dd6136" d="M 749.523438 220.980469 L 749.523438 212.234375 C 748.242188 229.75 715.910156 243.859375 676.199219 243.859375 C 636.488281 243.859375 604.144531 229.84375 602.875 212.234375 L 602.875 220.980469 C 602.875 221.203125 602.875 221.425781 602.875 221.660156 C 602.875 239.710938 635.722656 254.355469 676.199219 254.355469 C 716.679688 254.355469 749.523438 239.710938 749.523438 221.660156 C 749.523438 221.425781 749.523438 221.203125 749.523438 220.980469 Z M 749.523438 220.980469 " fill-opacity="1" fill-rule="nonzero"/><g clip-path="url(#5a8f824b45)"><path fill="#dd6136" d="M 749.523438 279.121094 L 749.523438 270.375 C 748.242188 287.890625 715.910156 301.996094 676.199219 301.996094 C 636.488281 301.996094 604.144531 287.984375 602.875 270.375 L 602.875 279.121094 C 602.875 279.34375 602.875 279.566406 602.875 279.789062 C 602.875 297.851562 635.722656 312.484375 676.199219 312.484375 C 716.679688 312.484375 749.523438 297.839844 749.523438 279.789062 C 749.523438 279.566406 749.523438 279.34375 749.523438 279.121094 Z M 749.523438 279.121094 " fill-opacity="1" fill-rule="nonzero"/></g><path fill="#fcd7ac" d="M 749.523438 232.519531 L 749.523438 248.339844 L 734.3125 289.210938 C 734.21875 289.460938 734.09375 289.695312 733.941406 289.910156 C 733.785156 290.128906 733.609375 290.320312 733.40625 290.492188 C 733.199219 290.664062 732.980469 290.804688 732.738281 290.917969 C 732.496094 291.03125 732.246094 291.109375 731.984375 291.15625 C 731.726562 291.203125 731.460938 291.214844 731.199219 291.195312 C 730.933594 291.171875 730.675781 291.117188 730.425781 291.03125 C 730.175781 290.941406 729.941406 290.820312 729.722656 290.671875 C 729.5 290.523438 729.304688 290.347656 729.132812 290.144531 L 703.433594 260.253906 L 671.265625 300.328125 C 670.984375 300.6875 670.640625 300.972656 670.234375 301.175781 C 669.824219 301.382812 669.394531 301.488281 668.9375 301.496094 L 668.832031 301.496094 C 668.351562 301.480469 667.902344 301.363281 667.480469 301.132812 C 667.058594 300.90625 666.710938 300.59375 666.433594 300.199219 L 636.40625 257.683594 L 614.515625 283.117188 C 614.144531 283.550781 613.6875 283.855469 613.144531 284.03125 C 612.601562 284.210938 612.054688 284.234375 611.5 284.101562 C 610.945312 283.972656 610.464844 283.707031 610.054688 283.308594 C 609.648438 282.910156 609.375 282.433594 609.230469 281.878906 L 602.808594 256.574219 L 602.808594 231.738281 L 613.710938 274.660156 L 634.300781 250.675781 C 634.453125 250.5 634.621094 250.34375 634.808594 250.207031 C 634.996094 250.066406 635.195312 249.953125 635.410156 249.859375 C 635.621094 249.769531 635.84375 249.703125 636.070312 249.660156 C 636.300781 249.617188 636.527344 249.605469 636.761719 249.613281 C 636.992188 249.625 637.21875 249.664062 637.445312 249.726562 C 637.667969 249.789062 637.878906 249.878906 638.082031 249.992188 C 638.285156 250.101562 638.476562 250.238281 638.648438 250.390625 C 638.820312 250.546875 638.972656 250.71875 639.109375 250.910156 L 669.019531 293.332031 L 700.953125 253.550781 C 701.09375 253.378906 701.25 253.222656 701.425781 253.085938 C 701.597656 252.945312 701.785156 252.828125 701.984375 252.730469 C 702.183594 252.632812 702.390625 252.558594 702.609375 252.507812 C 702.824219 252.457031 703.042969 252.429688 703.261719 252.425781 C 703.484375 252.421875 703.703125 252.441406 703.921875 252.484375 C 704.140625 252.53125 704.347656 252.597656 704.550781 252.6875 C 704.753906 252.777344 704.945312 252.886719 705.125 253.019531 C 705.300781 253.152344 705.464844 253.300781 705.609375 253.46875 L 730.375 282.203125 L 748.359375 234.027344 C 748.585938 233.398438 748.972656 232.894531 749.523438 232.519531 Z M 749.523438 232.519531 " fill-opacity="1" fill-rule="nonzero"/><g clip-path="url(#f3400bd64f)"><path fill="#ffffff" d="M 578.808594 144.648438 L 673.207031 204.972656 L 675.453125 202.03125 L 582.695312 139.839844 C 582.695312 139.839844 576.910156 139.242188 578.808594 144.648438 Z M 578.808594 144.648438 " fill-opacity="1" fill-rule="nonzero"/></g><path fill="#ffffff" d="M 684.707031 206.503906 C 684.707031 206.886719 684.671875 207.265625 684.59375 207.640625 C 684.519531 208.019531 684.410156 208.382812 684.265625 208.738281 C 684.117188 209.089844 683.9375 209.425781 683.726562 209.746094 C 683.515625 210.066406 683.273438 210.359375 683.003906 210.632812 C 682.734375 210.902344 682.4375 211.144531 682.121094 211.355469 C 681.804688 211.570312 681.46875 211.75 681.113281 211.898438 C 680.761719 212.042969 680.398438 212.152344 680.023438 212.230469 C 679.648438 212.304688 679.269531 212.339844 678.886719 212.339844 C 678.507812 212.339844 678.128906 212.304688 677.753906 212.230469 C 677.378906 212.152344 677.015625 212.042969 676.660156 211.898438 C 676.308594 211.75 675.972656 211.570312 675.65625 211.355469 C 675.335938 211.144531 675.042969 210.902344 674.773438 210.632812 C 674.503906 210.359375 674.261719 210.066406 674.050781 209.746094 C 673.835938 209.425781 673.65625 209.089844 673.511719 208.738281 C 673.367188 208.382812 673.253906 208.019531 673.179688 207.640625 C 673.105469 207.265625 673.070312 206.886719 673.070312 206.503906 C 673.070312 206.121094 673.105469 205.738281 673.179688 205.363281 C 673.253906 204.988281 673.367188 204.621094 673.511719 204.269531 C 673.65625 203.914062 673.835938 203.578125 674.050781 203.257812 C 674.261719 202.941406 674.503906 202.644531 674.773438 202.375 C 675.042969 202.101562 675.335938 201.859375 675.65625 201.648438 C 675.972656 201.433594 676.308594 201.253906 676.660156 201.109375 C 677.015625 200.960938 677.378906 200.851562 677.753906 200.777344 C 678.128906 200.703125 678.507812 200.664062 678.886719 200.664062 C 679.269531 200.664062 679.648438 200.703125 680.023438 200.777344 C 680.398438 200.851562 680.761719 200.960938 681.113281 201.109375 C 681.46875 201.253906 681.804688 201.433594 682.121094 201.648438 C 682.4375 201.859375 682.734375 202.101562 683.003906 202.375 C 683.273438 202.644531 683.515625 202.941406 683.726562 203.257812 C 683.9375 203.578125 684.117188 203.914062 684.265625 204.269531 C 684.410156 204.621094 684.519531 204.988281 684.59375 205.363281 C 684.671875 205.738281 684.707031 206.121094 684.707031 206.503906 Z M 684.707031 206.503906 " fill-opacity="1" fill-rule="nonzero"/><path fill="#ffffff" d="M 770.585938 167.035156 L 674.246094 224.183594 L 675.898438 227.507812 L 773.101562 172.6875 C 773.101562 172.6875 776.289062 167.769531 770.585938 167.035156 Z M 770.585938 167.035156 " fill-opacity="1" fill-rule="nonzero"/><path fill="#ffffff" d="M 667.679688 233.769531 C 667.339844 233.59375 667.023438 233.386719 666.722656 233.148438 C 666.425781 232.910156 666.152344 232.644531 665.90625 232.351562 C 665.660156 232.0625 665.445312 231.75 665.261719 231.414062 C 665.074219 231.078125 664.925781 230.730469 664.808594 230.367188 C 664.691406 230.003906 664.609375 229.628906 664.566406 229.25 C 664.523438 228.871094 664.515625 228.488281 664.546875 228.109375 C 664.578125 227.726562 664.644531 227.351562 664.75 226.984375 C 664.851562 226.617188 664.992188 226.261719 665.164062 225.921875 C 665.339844 225.582031 665.542969 225.261719 665.78125 224.960938 C 666.015625 224.660156 666.28125 224.386719 666.570312 224.136719 C 666.859375 223.890625 667.171875 223.671875 667.503906 223.484375 C 667.835938 223.296875 668.183594 223.144531 668.546875 223.027344 C 668.910156 222.910156 669.28125 222.828125 669.65625 222.78125 C 670.035156 222.738281 670.414062 222.730469 670.796875 222.757812 C 671.175781 222.789062 671.550781 222.855469 671.917969 222.957031 C 672.285156 223.058594 672.636719 223.199219 672.976562 223.371094 C 673.316406 223.542969 673.636719 223.75 673.9375 223.984375 C 674.238281 224.21875 674.511719 224.484375 674.761719 224.773438 C 675.007812 225.0625 675.226562 225.375 675.414062 225.707031 C 675.601562 226.042969 675.753906 226.390625 675.875 226.753906 C 675.992188 227.117188 676.078125 227.488281 676.125 227.867188 C 676.167969 228.246094 676.179688 228.628906 676.152344 229.007812 C 676.121094 229.390625 676.058594 229.765625 675.957031 230.132812 C 675.855469 230.503906 675.71875 230.859375 675.546875 231.199219 C 675.375 231.542969 675.171875 231.867188 674.933594 232.171875 C 674.695312 232.476562 674.433594 232.753906 674.140625 233.007812 C 673.847656 233.257812 673.535156 233.480469 673.199219 233.667969 C 672.863281 233.859375 672.515625 234.011719 672.148438 234.132812 C 671.78125 234.25 671.410156 234.332031 671.027344 234.378906 C 670.644531 234.421875 670.261719 234.429688 669.878906 234.398438 C 669.496094 234.367188 669.117188 234.300781 668.746094 234.191406 C 668.378906 234.085938 668.023438 233.945312 667.679688 233.769531 Z M 667.679688 233.769531 " fill-opacity="1" fill-rule="nonzero"/><path fill="#fcd7ac" d="M 640.738281 244.839844 C 640.738281 245.273438 640.652344 245.691406 640.488281 246.09375 C 640.320312 246.496094 640.085938 246.851562 639.777344 247.160156 C 639.472656 247.464844 639.117188 247.703125 638.71875 247.871094 C 638.316406 248.035156 637.898438 248.121094 637.464844 248.121094 C 637.03125 248.121094 636.617188 248.035156 636.214844 247.871094 C 635.8125 247.703125 635.460938 247.464844 635.152344 247.160156 C 634.847656 246.851562 634.609375 246.496094 634.445312 246.09375 C 634.277344 245.691406 634.195312 245.273438 634.195312 244.839844 C 634.195312 244.402344 634.277344 243.984375 634.445312 243.582031 C 634.609375 243.179688 634.847656 242.824219 635.152344 242.519531 C 635.460938 242.210938 635.8125 241.972656 636.214844 241.808594 C 636.617188 241.640625 637.03125 241.558594 637.464844 241.558594 C 637.898438 241.558594 638.316406 241.640625 638.71875 241.808594 C 639.117188 241.972656 639.472656 242.210938 639.777344 242.519531 C 640.085938 242.824219 640.320312 243.179688 640.488281 243.582031 C 640.652344 243.984375 640.738281 244.402344 640.738281 244.839844 Z M 640.738281 244.839844 " fill-opacity="1" fill-rule="nonzero"/><path fill="#fcd7ac" d="M 705.414062 246.953125 C 705.414062 247.386719 705.328125 247.804688 705.164062 248.207031 C 704.996094 248.609375 704.761719 248.964844 704.453125 249.273438 C 704.148438 249.578125 703.792969 249.816406 703.394531 249.984375 C 702.992188 250.148438 702.574219 250.234375 702.140625 250.234375 C 701.707031 250.234375 701.289062 250.148438 700.890625 249.984375 C 700.488281 249.816406 700.136719 249.578125 699.828125 249.273438 C 699.523438 248.964844 699.285156 248.609375 699.121094 248.207031 C 698.953125 247.804688 698.871094 247.386719 698.871094 246.953125 C 698.871094 246.515625 698.953125 246.097656 699.121094 245.695312 C 699.285156 245.292969 699.523438 244.9375 699.828125 244.632812 C 700.136719 244.324219 700.488281 244.085938 700.890625 243.921875 C 701.289062 243.753906 701.707031 243.671875 702.140625 243.671875 C 702.574219 243.671875 702.992188 243.753906 703.394531 243.921875 C 703.792969 244.085938 704.148438 244.324219 704.453125 244.632812 C 704.761719 244.9375 704.996094 245.292969 705.164062 245.695312 C 705.328125 246.097656 705.414062 246.515625 705.414062 246.953125 Z M 705.414062 246.953125 " fill-opacity="1" fill-rule="nonzero"/><path fill="#fcd7ac" d="M 671.859375 306.972656 C 671.859375 307.40625 671.773438 307.824219 671.609375 308.226562 C 671.445312 308.628906 671.207031 308.984375 670.902344 309.292969 C 670.59375 309.601562 670.238281 309.835938 669.839844 310.003906 C 669.4375 310.171875 669.023438 310.253906 668.585938 310.253906 C 668.152344 310.253906 667.738281 310.171875 667.335938 310.003906 C 666.9375 309.835938 666.582031 309.601562 666.273438 309.292969 C 665.96875 308.984375 665.730469 308.628906 665.566406 308.226562 C 665.402344 307.824219 665.316406 307.40625 665.316406 306.972656 C 665.316406 306.535156 665.402344 306.117188 665.566406 305.714844 C 665.730469 305.3125 665.96875 304.960938 666.273438 304.652344 C 666.582031 304.34375 666.9375 304.105469 667.335938 303.941406 C 667.738281 303.773438 668.152344 303.691406 668.585938 303.691406 C 669.023438 303.691406 669.4375 303.773438 669.839844 303.941406 C 670.238281 304.105469 670.59375 304.34375 670.902344 304.652344 C 671.207031 304.960938 671.445312 305.3125 671.609375 305.714844 C 671.773438 306.117188 671.859375 306.535156 671.859375 306.972656 Z M 671.859375 306.972656 " fill-opacity="1" fill-rule="nonzero"/><path fill="#fcd7ac" d="M 734.707031 295.644531 C 734.707031 297.46875 733.695312 298.9375 732.460938 298.9375 C 731.226562 298.9375 730.214844 297.46875 730.214844 295.644531 C 730.214844 293.824219 731.214844 292.339844 732.460938 292.339844 C 733.707031 292.339844 734.707031 293.882812 734.707031 295.644531 Z M 734.707031 295.644531 " fill-opacity="1" fill-rule="nonzero"/><path fill="#fcd7ac" d="M 613.1875 289.210938 C 613.1875 291.03125 612.175781 292.503906 610.941406 292.503906 C 609.707031 292.503906 608.695312 291.03125 608.695312 289.210938 C 608.695312 287.390625 609.695312 285.90625 610.941406 285.90625 C 612.1875 285.90625 613.1875 287.390625 613.1875 289.210938 Z M 613.1875 289.210938 " fill-opacity="1" fill-rule="nonzero"/></svg>