<svg version="1.1" id="Layer_1" xmlns="http://www.w3.org/2000/svg" xmlns:xlink="http://www.w3.org/1999/xlink" x="0px" y="0px"
	 width="100%" viewBox="0 0 512 512" enable-background="new 0 0 512 512" xml:space="preserve">
<path fill="#F8F8F8" opacity="1.000000" stroke="none" 
	d="
M0.999998,287.000000 
	C1.000000,267.312439 1.000000,247.624878 1.365668,227.776245 
	C2.153244,226.775711 2.796241,225.977890 2.963332,225.090454 
	C4.938143,214.602097 6.391548,203.993469 8.852488,193.623047 
	C15.093583,167.322998 25.588358,142.757462 40.969776,120.479797 
	C49.047718,108.780121 57.163483,96.975471 66.515511,86.318062 
	C79.732239,71.256508 94.834915,57.995388 111.749466,47.111004 
	C122.552719,40.159199 133.429169,33.041004 145.060379,27.718502 
	C164.897247,18.641050 185.300232,10.718767 207.224487,7.968906 
	C221.122070,6.225797 235.011902,4.300798 248.962387,3.151787 
	C255.638168,2.601945 262.473206,3.397443 269.189423,4.058139 
	C280.520660,5.172829 291.856262,6.385857 303.115204,8.060769 
	C322.469604,10.939989 340.815094,17.426849 358.587799,25.321764 
	C384.211395,36.704178 407.047607,52.492184 427.878906,71.449707 
	C422.112366,77.757736 416.409027,83.741432 410.709625,89.728828 
	C403.426819,97.379585 396.147125,105.033318 388.557648,112.834686 
	C374.477509,127.256317 360.705841,141.529037 346.624878,155.943741 
	C329.233490,173.731918 312.151367,191.378098 294.754211,209.145355 
	C279.779114,224.437088 265.144531,239.632690 250.403381,254.724167 
	C249.386978,255.764740 247.575363,256.028534 246.005859,256.367676 
	C244.342697,254.679382 242.807266,253.276978 241.132401,251.563080 
	C225.333725,235.818497 209.674469,220.385437 193.898087,204.639832 
	C184.280182,195.003067 174.947403,185.496841 165.169815,176.472534 
	C162.457397,173.969070 158.425034,172.895737 154.578278,171.093735 
	C150.354660,172.247742 145.584244,172.423813 142.913635,174.881546 
	C130.946152,185.895096 119.576408,197.558182 107.679825,209.111725 
	C105.968590,210.657715 104.591423,212.102310 103.164574,213.496033 
	C95.100220,221.373138 95.021423,230.431534 102.956635,238.261017 
	C146.891418,281.610321 190.824356,324.961487 234.759109,368.310822 
	C242.308121,375.759247 254.796829,375.696930 262.424744,368.253113 
	C267.656128,363.148041 272.979370,358.137054 278.621399,353.063660 
	C279.948975,351.937805 280.916687,350.832336 281.940582,349.515381 
	C282.165283,349.031830 282.409485,348.891266 283.111816,348.913879 
	C284.426300,348.673340 285.559998,348.652161 286.259308,348.090302 
	C293.751617,342.070282 301.168732,335.956787 308.619019,329.884338 
	C325.187958,316.379578 341.739838,302.853729 358.344421,289.392914 
	C373.401367,277.186676 388.517944,265.054077 403.609955,252.891159 
	C418.572968,240.832214 433.547607,228.787598 448.499725,216.715149 
	C462.938660,205.057037 477.385864,193.408569 491.735016,181.640762 
	C493.171509,180.462646 493.953918,178.486908 495.393738,177.049286 
	C502.098267,196.813660 506.402283,216.936432 507.737640,237.409302 
	C509.228668,260.268555 508.457642,283.242371 503.893433,305.812958 
	C499.298889,328.533447 491.768005,350.340637 481.402435,371.107971 
	C470.793030,392.363647 457.255249,411.661072 441.246277,429.149139 
	C428.367096,443.218262 414.129120,455.883759 398.092896,466.282135 
	C387.446381,473.185638 376.793304,480.367676 365.326782,485.654266 
	C345.073090,494.992157 324.256348,503.217194 301.834320,506.005310 
	C287.280975,507.815002 272.727356,510.040863 258.108643,510.766968 
	C247.503036,511.293732 236.789261,509.687866 226.125961,508.998199 
	C209.745102,507.938843 194.022690,503.839111 178.362579,499.134277 
	C159.181198,493.371460 141.255936,484.902863 124.044106,474.887085 
	C116.802711,470.673248 109.990753,465.666107 103.256104,460.653442 
	C97.380356,456.280060 91.911186,451.363098 86.220306,446.738068 
	C73.901337,436.726349 63.274002,425.078491 53.893276,412.358673 
	C47.301456,403.420471 40.773819,394.316895 35.391243,384.634674 
	C28.627657,372.468292 22.319857,359.932648 17.156670,347.019989 
	C9.656558,328.263000 4.507750,308.753784 2.905222,288.463379 
	C2.862999,287.928741 1.661090,287.485748 0.999998,287.000000 
z"/>
<path fill="#000000" opacity="1.000000" stroke="none" 
	d="
M0.999998,287.468658 
	C1.661090,287.485748 2.862999,287.928741 2.905222,288.463379 
	C4.507750,308.753784 9.656558,328.263000 17.156670,347.019989 
	C22.319857,359.932648 28.627657,372.468292 35.391243,384.634674 
	C40.773819,394.316895 47.301456,403.420471 53.893276,412.358673 
	C63.274002,425.078491 73.901337,436.726349 86.220306,446.738068 
	C91.911186,451.363098 97.380356,456.280060 103.256104,460.653442 
	C109.990753,465.666107 116.802711,470.673248 124.044106,474.887085 
	C141.255936,484.902863 159.181198,493.371460 178.362579,499.134277 
	C194.022690,503.839111 209.745102,507.938843 226.125961,508.998199 
	C236.789261,509.687866 247.503036,511.293732 258.108643,510.766968 
	C272.727356,510.040863 287.280975,507.815002 301.834320,506.005310 
	C324.256348,503.217194 345.073090,494.992157 365.326782,485.654266 
	C376.793304,480.367676 387.446381,473.185638 398.092896,466.282135 
	C414.129120,455.883759 428.367096,443.218262 441.246277,429.149139 
	C457.255249,411.661072 470.793030,392.363647 481.402435,371.107971 
	C491.768005,350.340637 499.298889,328.533447 503.893433,305.812958 
	C508.457642,283.242371 509.228668,260.268555 507.737640,237.409302 
	C506.402283,216.936432 502.098267,196.813660 495.376404,176.654114 
	C493.323608,171.277512 491.845703,166.379593 489.898407,161.676010 
	C488.213837,157.606964 485.996277,153.758560 484.216827,149.550156 
	C492.789734,141.148788 501.151184,133.000626 509.541595,124.882401 
	C510.617157,123.841751 511.843506,122.956978 513.000000,122.000000 
	C513.000000,252.282837 513.000000,382.565674 513.000000,512.924255 
	C342.450012,512.924255 171.899948,512.924255 1.000000,512.924255 
	C1.000000,437.979462 1.000000,362.958405 0.999998,287.468658 
z"/>
<path fill="#000000" opacity="1.000000" stroke="none" 
	d="
M427.943848,71.127014 
	C407.047607,52.492184 384.211395,36.704178 358.587799,25.321764 
	C340.815094,17.426849 322.469604,10.939989 303.115204,8.060769 
	C291.856262,6.385857 280.520660,5.172829 269.189423,4.058139 
	C262.473206,3.397443 255.638168,2.601945 248.962387,3.151787 
	C235.011902,4.300798 221.122070,6.225797 207.224487,7.968906 
	C185.300232,10.718767 164.897247,18.641050 145.060379,27.718502 
	C133.429169,33.041004 122.552719,40.159199 111.749466,47.111004 
	C94.834915,57.995388 79.732239,71.256508 66.515511,86.318062 
	C57.163483,96.975471 49.047718,108.780121 40.969776,120.479797 
	C25.588358,142.757462 15.093583,167.322998 8.852488,193.623047 
	C6.391548,203.993469 4.938143,214.602097 2.963332,225.090454 
	C2.796241,225.977890 2.153244,226.775711 1.365668,227.307587 
	C1.000000,151.705704 1.000000,76.411415 1.000000,1.058632 
	C171.666672,1.058632 342.333344,1.058632 513.000000,1.058632 
	C513.000000,36.099072 513.000000,71.080879 512.650574,106.588699 
	C508.569611,103.396263 504.838104,99.677795 500.955750,95.658981 
	C489.127777,83.662483 477.518768,71.896812 465.714233,60.330677 
	C463.438171,58.100578 460.612732,56.094723 457.666016,54.950459 
	C449.741028,51.873055 443.364899,55.024620 437.661987,61.063805 
	C434.217865,64.526787 431.080841,67.826897 427.943848,71.127014 
z"/>
<path fill="#054673" opacity="1.000000" stroke="none" 
	d="
M501.106598,95.959320 
	C504.838104,99.677795 508.569611,103.396263 512.650574,107.057358 
	C513.000000,111.689255 513.000000,116.378510 513.000000,121.533875 
	C511.843506,122.956978 510.617157,123.841751 509.541595,124.882401 
	C501.151184,133.000626 492.789734,141.148788 483.901184,149.682999 
	C425.156708,207.622330 366.920013,265.155853 308.715302,322.721680 
	C299.976685,331.364380 291.387634,340.158264 282.729370,348.882202 
	C282.409485,348.891266 282.165283,349.031830 281.635345,349.610138 
	C280.269806,350.972290 279.265686,352.028168 278.261536,353.084015 
	C272.979370,358.137054 267.656128,363.148041 262.424744,368.253113 
	C254.796829,375.696930 242.308121,375.759247 234.759109,368.310822 
	C190.824356,324.961487 146.891418,281.610321 102.956635,238.261017 
	C95.021423,230.431534 95.100220,221.373138 103.164574,213.496033 
	C104.591423,212.102310 105.968590,210.657715 107.827667,209.410706 
	C123.190529,224.057144 138.094421,238.529495 153.145477,253.299988 
	C164.195099,264.065826 175.097549,274.533539 186.036713,285.346405 
	C188.986023,288.564850 191.857468,291.481323 194.818253,294.304077 
	C208.592285,307.435760 222.380219,320.553040 236.211700,333.624084 
	C236.931870,334.304688 238.098526,334.512787 240.000000,335.361816 
	C240.000000,332.762634 239.999985,331.010040 240.000000,329.257446 
	C240.000015,305.311859 239.972000,281.366211 240.054962,257.420898 
	C240.061371,255.570755 240.847900,253.723297 241.271820,251.874573 
	C242.807266,253.276978 244.342697,254.679382 245.965302,256.785706 
	C245.994476,260.905304 245.841599,264.322662 245.901566,267.736298 
	C245.983765,272.415924 246.215210,277.093231 246.406158,281.770569 
	C246.541031,285.073730 246.888443,288.377777 246.841568,291.677155 
	C246.627487,306.745972 246.187119,321.812622 246.105499,336.881531 
	C246.083466,340.952606 248.288834,341.970215 251.639587,339.527710 
	C255.245346,336.899353 258.592743,333.864044 261.790833,330.738251 
	C273.918030,318.885132 285.939178,306.923492 298.297943,294.854614 
	C304.629852,288.759308 310.664948,282.812988 316.697510,276.864136 
	C327.466248,266.244873 338.233429,255.624054 349.299011,244.855713 
	C358.787048,235.584991 367.955383,226.440231 377.175232,217.347641 
	C383.414276,211.194717 389.725739,205.115219 396.302368,198.854889 
	C410.400787,184.807861 424.201630,170.908798 438.300751,156.859467 
	C444.421600,151.283005 450.366241,145.980972 456.040558,140.403931 
	C466.830048,129.799408 477.439331,119.011803 488.176758,108.353882 
	C492.413422,104.148537 496.792419,100.086578 501.106598,95.959320 
z"/>
<path fill="#0B4B78" opacity="1.000000" stroke="none" 
	d="
M298.000000,295.002441 
	C285.939178,306.923492 273.918030,318.885132 261.790833,330.738251 
	C258.592743,333.864044 255.245346,336.899353 251.639587,339.527710 
	C248.288834,341.970215 246.083466,340.952606 246.105499,336.881531 
	C246.187119,321.812622 246.627487,306.745972 246.841568,291.677155 
	C246.888443,288.377777 246.541031,285.073730 246.406158,281.770569 
	C246.215210,277.093231 245.983765,272.415924 245.901566,267.736298 
	C245.841599,264.322662 245.994476,260.905304 246.093018,257.071594 
	C247.575363,256.028534 249.386978,255.764740 250.403381,254.724167 
	C265.144531,239.632690 279.779114,224.437088 295.120178,209.220154 
	C296.534088,211.598724 297.904449,214.027481 297.889587,216.447723 
	C297.824829,226.971619 297.100983,237.493134 297.105682,248.015320 
	C297.110565,258.954651 297.718384,269.892731 297.980377,280.833344 
	C298.093445,285.553802 297.999756,290.279266 298.000000,295.002441 
z"/>
<path fill="#0E4F7D" opacity="1.000000" stroke="none" 
	d="
M298.297943,294.854614 
	C297.999756,290.279266 298.093445,285.553802 297.980377,280.833344 
	C297.718384,269.892731 297.110565,258.954651 297.105682,248.015320 
	C297.100983,237.493134 297.824829,226.971619 297.889587,216.447723 
	C297.904449,214.027481 296.534088,211.598724 295.435242,209.099091 
	C312.151367,191.378098 329.233490,173.731918 346.677734,156.334503 
	C347.238708,157.548752 347.624847,158.517670 347.607178,159.479172 
	C347.445770,168.275787 347.197144,177.070755 347.015381,185.867065 
	C346.971802,187.976151 347.139771,190.089203 347.111450,192.199112 
	C347.027557,198.448807 346.831268,204.697540 346.800385,210.947250 
	C346.776428,215.797989 346.725037,220.664322 347.063416,225.497284 
	C347.519562,232.012772 348.338196,238.502884 349.001251,245.003876 
	C338.233429,255.624054 327.466248,266.244873 316.697510,276.864136 
	C310.664948,282.812988 304.629852,288.759308 298.297943,294.854614 
z"/>
<path fill="#135584" opacity="1.000000" stroke="none" 
	d="
M438.002441,157.009720 
	C424.201630,170.908798 410.400787,184.807861 395.888519,198.853699 
	C390.804565,199.649750 390.206421,196.570831 390.074982,193.492279 
	C389.873230,188.766281 389.895660,184.022858 390.023865,179.292282 
	C390.274902,170.027817 390.798523,160.769394 390.955994,151.504150 
	C391.090088,143.610901 391.085693,135.701721 390.726807,127.818512 
	C390.496338,122.756523 389.512329,117.728836 388.866119,112.685776 
	C396.147125,105.033318 403.426819,97.379585 410.709625,89.728828 
	C416.409027,83.741432 422.112366,77.757736 427.878906,71.449707 
	C431.080841,67.826897 434.217865,64.526787 437.679504,61.473480 
	C438.291046,65.757446 440.205231,70.761040 438.507538,73.619530 
	C435.484528,78.709633 437.166748,83.909813 436.440674,88.819839 
	C434.984039,98.670372 435.747192,108.895042 436.064392,118.950455 
	C436.464874,131.644623 437.334930,144.323975 438.002441,157.009720 
z"/>
<path fill="#EAEAEA" opacity="1.000000" stroke="none" 
	d="
M283.111847,348.913879 
	C291.387634,340.158264 299.976685,331.364380 308.715302,322.721680 
	C366.920013,265.155853 425.156708,207.622330 483.698669,149.945450 
	C485.996277,153.758560 488.213837,157.606964 489.898407,161.676010 
	C491.845703,166.379593 493.323608,171.277512 495.022583,176.486206 
	C493.953918,178.486908 493.171509,180.462646 491.735016,181.640762 
	C477.385864,193.408569 462.938660,205.057037 448.499725,216.715149 
	C433.547607,228.787598 418.572968,240.832214 403.609955,252.891159 
	C388.517944,265.054077 373.401367,277.186676 358.344421,289.392914 
	C341.739838,302.853729 325.187958,316.379578 308.619019,329.884338 
	C301.168732,335.956787 293.751617,342.070282 286.259308,348.090302 
	C285.559998,348.652161 284.426300,348.673340 283.111847,348.913879 
z"/>
<path fill="#074571" opacity="1.000000" stroke="none" 
	d="
M241.132416,251.563080 
	C240.847900,253.723297 240.061371,255.570755 240.054962,257.420898 
	C239.972000,281.366211 240.000015,305.311859 240.000000,329.257446 
	C239.999985,331.010040 240.000000,332.762634 240.000000,335.361816 
	C238.098526,334.512787 236.931870,334.304688 236.211700,333.624084 
	C222.380219,320.553040 208.592285,307.435760 194.818253,294.304077 
	C191.857468,291.481323 188.986023,288.564850 186.410461,285.389252 
	C188.605255,285.637787 190.462982,286.188690 192.471466,286.784271 
	C193.007492,281.430328 193.592514,276.536133 193.922562,271.624786 
	C194.005356,270.393005 193.178070,269.123779 192.930222,267.840637 
	C192.523010,265.732452 191.830475,263.565704 191.996002,261.482269 
	C192.460785,255.631744 193.604874,249.827164 193.914581,243.974472 
	C194.263367,237.383377 193.991165,230.759583 193.994537,224.150009 
	C193.997803,217.750793 194.008026,211.351593 194.015198,204.952377 
	C209.674469,220.385437 225.333725,235.818497 241.132416,251.563080 
z"/>
<path fill="#105280" opacity="1.000000" stroke="none" 
	d="
M388.557648,112.834686 
	C389.512329,117.728836 390.496338,122.756523 390.726807,127.818512 
	C391.085693,135.701721 391.090088,143.610901 390.955994,151.504150 
	C390.798523,160.769394 390.274902,170.027817 390.023865,179.292282 
	C389.895660,184.022858 389.873230,188.766281 390.074982,193.492279 
	C390.206421,196.570831 390.804565,199.649750 395.590942,199.001678 
	C389.725739,205.115219 383.414276,211.194717 377.175232,217.347641 
	C367.955383,226.440231 358.787048,235.584991 349.299011,244.855713 
	C348.338196,238.502884 347.519562,232.012772 347.063416,225.497284 
	C346.725037,220.664322 346.776428,215.797989 346.800385,210.947250 
	C346.831268,204.697540 347.027557,198.448807 347.111450,192.199112 
	C347.139771,190.089203 346.971802,187.976151 347.015381,185.867065 
	C347.197144,177.070755 347.445770,168.275787 347.607178,159.479172 
	C347.624847,158.517670 347.238708,157.548752 346.987000,156.192505 
	C360.705841,141.529037 374.477509,127.256317 388.557648,112.834686 
z"/>
<path fill="#05416B" opacity="1.000000" stroke="none" 
	d="
M193.898071,204.639832 
	C194.008026,211.351593 193.997803,217.750793 193.994537,224.150009 
	C193.991165,230.759583 194.263367,237.383377 193.914581,243.974472 
	C193.604874,249.827164 192.460785,255.631744 191.996002,261.482269 
	C191.830475,263.565704 192.523010,265.732452 192.930222,267.840637 
	C193.178070,269.123779 194.005356,270.393005 193.922562,271.624786 
	C193.592514,276.536133 193.007492,281.430328 192.471466,286.784271 
	C190.462982,286.188690 188.605255,285.637787 186.373764,285.044067 
	C175.097549,274.533539 164.195099,264.065826 153.489380,253.101196 
	C154.124084,250.579132 154.936172,248.555283 154.943146,246.528687 
	C155.029602,221.408127 154.998840,196.287140 154.998245,171.166275 
	C158.425034,172.895737 162.457397,173.969070 165.169815,176.472534 
	C174.947403,185.496841 184.280182,195.003067 193.898071,204.639832 
z"/>
<path fill="#033E68" opacity="1.000000" stroke="none" 
	d="
M154.578278,171.093735 
	C154.998840,196.287140 155.029602,221.408127 154.943146,246.528687 
	C154.936172,248.555283 154.124084,250.579132 153.342209,252.803040 
	C138.094421,238.529495 123.190529,224.057144 108.138786,209.285828 
	C119.576408,197.558182 130.946152,185.895096 142.913635,174.881546 
	C145.584244,172.423813 150.354660,172.247742 154.578278,171.093735 
z"/>
<path fill="#EAEAEA" opacity="1.000000" stroke="none" 
	d="
M278.621399,353.063660 
	C279.265686,352.028168 280.269806,350.972290 281.579163,349.821655 
	C280.916687,350.832336 279.948975,351.937805 278.621399,353.063660 
z"/>
<path fill="#155887" opacity="1.000000" stroke="none" 
	d="
M438.300720,156.859467 
	C437.334930,144.323975 436.464874,131.644623 436.064392,118.950455 
	C435.747192,108.895042 434.984039,98.670372 436.440674,88.819839 
	C437.166748,83.909813 435.484528,78.709633 438.507538,73.619530 
	C440.205231,70.761040 438.291046,65.757446 437.986633,61.310619 
	C443.364899,55.024620 449.741028,51.873055 457.666016,54.950459 
	C460.612732,56.094723 463.438171,58.100578 465.714233,60.330677 
	C477.518768,71.896812 489.127777,83.662483 500.955750,95.658981 
	C496.792419,100.086578 492.413422,104.148537 488.176758,108.353882 
	C477.439331,119.011803 466.830048,129.799408 456.040558,140.403931 
	C450.366241,145.980972 444.421600,151.283005 438.300720,156.859467 
z"/>
</svg>