<svg version="1.1" id="Layer_1" xmlns="http://www.w3.org/2000/svg" xmlns:xlink="http://www.w3.org/1999/xlink" x="0px" y="0px"
	 width="100%" viewBox="0 0 2458 512" enable-background="new 0 0 2458 512" xml:space="preserve">
<path fill="#000000" opacity="1.000000" stroke="none" 
	d="
M1.000003,231.000000 
	C1.000000,154.338562 1.000000,77.677124 1.000000,1.011762 
	C820.272217,1.007842 1639.544434,1.007842 2458.908203,1.007842 
	C2458.908203,171.593887 2458.908203,342.187836 2458.908203,512.890869 
	C1639.666626,512.890869 820.333313,512.890869 1.000002,512.888367 
	C1.000000,436.557831 1.000000,360.229828 1.392246,283.448303 
	C2.205791,283.815582 2.853486,284.594269 3.014760,285.463257 
	C5.889813,300.955078 10.333445,316.037476 18.100475,329.716095 
	C24.890894,341.674835 32.725758,353.094299 40.748386,364.286682 
	C52.258991,380.345093 66.427437,393.934357 82.129181,406.386902 
	C103.845535,424.059113 127.191208,438.617462 152.322571,451.021698 
	C154.195984,452.106995 155.680313,453.194061 157.324875,453.916168 
	C168.913239,459.004333 180.373947,464.439056 192.188919,468.940247 
	C204.931656,473.794922 218.015808,477.753448 231.181870,482.386169 
	C248.218124,487.051941 264.936615,491.813538 281.857178,495.693939 
	C294.776642,498.656799 307.951965,500.503754 321.427063,502.906616 
	C325.890503,503.640839 329.918762,504.520416 333.994446,504.950562 
	C344.821289,506.093292 355.652496,507.280457 366.511475,508.012848 
	C383.331238,509.147278 400.175446,509.918671 417.474548,510.897522 
	C434.031311,510.633575 450.124359,510.375549 466.213654,509.969849 
	C472.824249,509.803162 479.462952,509.643494 486.025909,508.914154 
	C502.705719,507.060486 519.349976,504.886993 536.411133,502.862152 
	C543.454956,501.810455 550.174622,501.083862 556.722412,499.599335 
	C574.463196,495.577271 592.302856,491.835358 609.778687,486.845367 
	C626.741577,482.001801 643.301331,475.746185 660.424194,470.064148 
	C677.785889,462.588043 695.281921,456.139771 711.606812,447.482910 
	C732.447144,436.431610 752.711304,424.163452 771.335205,408.913269 
	C787.694458,395.564331 802.626160,381.247498 815.600220,364.936554 
	C825.684692,352.258331 834.573669,338.806122 840.903503,323.904144 
	C845.012878,314.229706 848.573120,304.225708 851.263550,294.073639 
	C853.644958,285.087524 855.282898,275.740723 855.840576,266.468445 
	C857.076355,245.920212 854.526001,225.753815 847.238159,206.326462 
	C845.586975,201.924911 844.837341,197.138138 842.834290,192.927521 
	C840.353943,187.713425 837.000000,182.914917 833.993042,177.571213 
	C833.141052,175.452774 832.509460,173.576645 831.465393,171.968292 
	C826.676086,164.590302 821.771362,157.287247 817.046143,149.633026 
	C830.331055,141.481110 843.301819,133.334305 856.691589,125.946999 
	C864.562134,121.604698 867.453796,110.384857 859.094910,104.701355 
	C853.945251,101.199936 848.371460,98.322296 842.659912,95.015381 
	C835.377441,90.601791 828.489746,86.223885 821.454102,82.098228 
	C809.309814,74.976929 796.911621,68.276543 784.915771,60.917233 
	C768.808899,51.035801 753.002258,50.973919 737.031860,60.973953 
	C731.466064,64.459023 725.790283,67.768448 719.827637,71.018799 
	C712.095886,66.937782 704.945557,62.417892 697.257751,59.169998 
	C679.108582,51.502487 660.834167,44.086845 642.353455,37.265484 
	C631.162720,33.134922 619.492126,30.304300 607.808594,26.593723 
	C602.022156,24.862125 596.506165,23.230896 590.898193,22.028950 
	C576.481812,18.939117 562.085693,15.687003 547.565125,13.171523 
	C535.129456,11.017214 522.532532,9.793828 509.589172,8.093519 
	C501.361572,7.023676 493.578186,5.596884 485.736115,5.103815 
	C470.243408,4.129715 454.722351,3.280341 439.205231,3.115969 
	C424.812042,2.963503 410.408691,3.770951 395.544830,4.095093 
	C383.089417,4.698964 371.073547,5.072729 359.116394,6.118024 
	C349.172058,6.987358 339.290039,8.598196 329.392975,9.970898 
	C322.255127,10.960900 315.137848,12.099250 307.625427,13.273115 
	C293.426849,16.255056 279.521667,18.758566 265.828308,22.124125 
	C252.773712,25.332695 239.940033,29.440189 226.622131,33.126881 
	C212.787445,37.924931 199.180450,42.353340 185.941177,47.693478 
	C174.727463,52.216591 163.939102,57.794212 152.600189,62.964951 
	C146.431686,66.038330 140.427200,68.727592 134.859360,72.131142 
	C122.141998,79.905113 109.442795,87.741051 97.120964,96.117767 
	C89.691635,101.168427 82.984032,107.280701 75.653564,113.074837 
	C73.004326,115.271622 70.448944,117.118401 68.337708,119.379829 
	C58.114170,130.330704 47.145592,140.735580 38.115913,152.607803 
	C29.735874,163.625870 22.466034,175.779648 16.568392,188.309326 
	C11.094419,199.938904 8.120592,212.739944 3.942375,224.989853 
	C3.228063,227.084122 1.993976,229.001114 1.000003,231.000000 
M1716.171021,102.044914 
	C1715.117920,102.082268 1714.064819,102.119621 1712.184326,102.104858 
	C1704.689697,103.156555 1697.069702,103.668884 1689.726929,105.374695 
	C1675.403320,108.702278 1661.391724,113.030380 1648.599731,120.685135 
	C1638.674194,126.624565 1629.639404,133.685638 1623.969849,143.765381 
	C1612.566162,164.039337 1618.124756,183.682968 1634.859253,198.851013 
	C1648.088745,210.842133 1664.094727,217.956238 1681.409180,221.515060 
	C1693.785522,224.058975 1706.466797,225.120499 1719.941895,226.952408 
	C1732.325317,226.308228 1744.816528,226.472595 1757.068237,224.840088 
	C1778.138062,222.032578 1798.100220,215.552750 1815.506470,202.752960 
	C1825.690918,195.263824 1834.334351,186.026001 1836.682129,173.457031 
	C1839.447632,158.650604 1835.667236,145.039703 1824.508545,133.905441 
	C1812.268677,121.692223 1797.485474,114.516800 1781.165283,109.442360 
	C1760.491211,103.014160 1739.435059,101.339798 1717.482544,102.082451 
	C1717.306641,102.106522 1717.130615,102.130600 1716.171021,102.044914 
M1465.552612,440.710114 
	C1499.290527,442.121277 1531.897827,438.754791 1561.605103,418.164551 
	C1551.723511,413.090759 1542.748535,408.391815 1533.680298,403.880951 
	C1530.916504,402.506165 1528.619019,399.632263 1524.671021,401.776154 
	C1510.961426,409.220612 1496.230103,413.147827 1480.604492,412.915955 
	C1473.397461,412.809021 1466.204346,411.767975 1458.241699,410.986267 
	C1456.977905,410.640991 1455.703613,410.329956 1454.452026,409.945007 
	C1443.892090,406.697144 1434.729004,401.749878 1430.302002,389.849762 
	C1445.550049,389.849762 1460.277710,389.849762 1475.936646,389.957092 
	C1507.483643,389.957092 1539.030640,389.957092 1570.438599,389.957092 
	C1572.753784,375.652588 1569.423584,363.256104 1562.389404,351.852325 
	C1553.664429,337.707489 1540.141846,329.657135 1525.055298,323.937378 
	C1506.332153,316.838959 1486.809692,315.365570 1466.090088,316.041534 
	C1457.705933,316.732178 1449.113281,316.494476 1440.984375,318.321045 
	C1427.216309,321.414825 1413.555176,325.233368 1401.476807,333.171844 
	C1386.984009,342.697357 1375.048828,353.772675 1372.648315,372.363953 
	C1371.278076,382.975952 1372.752075,392.682098 1378.258179,401.767242 
	C1385.249268,413.302887 1395.616943,421.206268 1407.473511,426.867340 
	C1425.575317,435.510254 1444.838379,439.896851 1465.552612,440.710114 
M1473.082520,102.035561 
	C1457.939087,101.801697 1443.095093,104.134163 1428.640991,108.327461 
	C1409.932617,113.754959 1392.694946,121.795815 1379.373291,136.941269 
	C1370.119141,147.462067 1365.751831,167.294464 1371.023560,179.150375 
	C1377.244995,193.142639 1387.788208,203.156631 1401.087402,209.784866 
	C1411.032349,214.741409 1421.787109,218.232925 1432.429199,221.591309 
	C1446.227783,225.945862 1460.512695,227.533401 1475.937866,226.953827 
	C1496.101196,227.608780 1515.667236,224.749252 1534.851562,218.249893 
	C1553.998413,211.763260 1571.098022,202.601471 1582.239380,185.079376 
	C1589.225708,174.091476 1590.002930,161.917984 1585.336426,149.936508 
	C1578.623413,132.700317 1564.385010,122.487068 1548.418579,115.410538 
	C1524.873413,104.975006 1499.836060,100.825699 1473.082520,102.035561 
M1941.250122,143.245789 
	C1939.757812,144.120667 1938.265503,144.995560 1935.979248,146.335861 
	C1935.979248,117.522530 1935.979248,89.507683 1935.979248,61.408318 
	C1916.007324,61.408318 1896.652222,61.408318 1877.290283,61.408318 
	C1877.290283,115.701286 1877.290283,169.583511 1877.290283,223.599609 
	C1896.960571,223.599609 1916.314209,223.599609 1936.000854,223.599609 
	C1936.000854,213.227753 1936.191895,203.248749 1935.902832,193.283646 
	C1935.793945,189.525604 1936.798706,186.898651 1940.727295,184.984894 
	C1942.999512,183.360046 1945.271729,181.735199 1947.766724,180.275635 
	C1947.766724,180.275635 1947.991333,180.112900 1948.692017,179.977615 
	C1949.880981,179.108856 1950.969238,177.777100 1952.285156,177.490509 
	C1953.870605,177.145142 1956.246582,177.029099 1957.255615,177.943924 
	C1973.160156,192.366364 1988.861206,207.013199 2004.741211,221.463257 
	C2006.222290,222.811035 2008.589478,223.874710 2010.556030,223.892639 
	C2030.200806,224.071747 2049.847900,224.003616 2069.494141,224.005173 
	C2070.737061,224.005280 2071.980225,224.005188 2074.406738,224.005188 
	C2047.440430,199.401428 2021.386230,175.630081 1995.059937,151.610443 
	C2020.475098,136.007080 2045.571533,120.599342 2071.615723,104.609795 
	C2069.772949,104.198982 2069.333984,104.015739 2068.894775,104.015427 
	C2047.749878,104.000488 2026.603760,103.885292 2005.461792,104.135864 
	C2002.564575,104.170197 1999.363403,105.525131 1996.855225,107.131203 
	C1978.440186,118.922379 1960.165649,130.933289 1941.250122,143.245789 
M1200.211304,331.064392 
	C1191.023926,336.950012 1181.836426,342.835632 1171.670166,349.348267 
	C1171.670166,326.112823 1171.670166,304.213440 1171.670166,282.392731 
	C1151.890747,282.392731 1132.656860,282.392731 1113.341064,282.392731 
	C1113.341064,334.346130 1113.341064,385.904083 1113.341064,437.534119 
	C1133.030273,437.534119 1152.379761,437.534119 1172.002686,437.534119 
	C1172.002686,422.914581 1171.936768,408.760437 1172.089355,394.608612 
	C1172.107544,392.912109 1172.815796,390.458466 1174.048096,389.663635 
	C1182.108643,384.463928 1190.543701,379.839752 1198.546509,374.557922 
	C1201.605591,372.538849 1203.637939,372.923126 1206.287354,375.680817 
	C1215.791626,383.582489 1225.208496,391.592224 1234.820312,399.360809 
	C1249.696289,411.384186 1264.649292,423.314453 1279.724609,435.085815 
	C1281.731201,436.652557 1284.635620,437.851013 1287.138550,437.877441 
	C1308.126587,438.098999 1329.117798,438.009338 1350.108154,438.001678 
	C1351.160889,438.001282 1352.213745,437.892181 1354.267822,437.778046 
	C1316.691772,407.645020 1279.972900,378.199432 1242.531982,348.174744 
	C1277.842041,326.264801 1312.659180,304.660797 1348.086792,282.677948 
	C1346.836182,282.271759 1346.428711,282.023926 1346.020996,282.023529 
	C1323.697998,282.002075 1301.375000,281.977142 1279.052368,282.058258 
	C1277.702026,282.063171 1276.196899,282.682495 1275.030518,283.431274 
	C1262.534790,291.453064 1250.124634,299.607971 1237.627197,307.626984 
	C1225.423584,315.457458 1213.145996,323.172607 1200.211304,331.064392 
M2187.932373,389.957550 
	C2220.152832,389.957550 2252.373047,389.957550 2284.422607,389.957550 
	C2286.618652,375.750427 2284.496826,362.895782 2276.830811,351.504913 
	C2267.727295,337.978027 2254.559326,329.623322 2239.460693,323.962982 
	C2220.221924,316.750641 2200.260254,315.414062 2179.093994,316.041840 
	C2171.207031,316.720490 2163.125977,316.531219 2155.469971,318.242401 
	C2133.530273,323.146057 2112.917725,330.797577 2097.637207,348.745636 
	C2087.248291,360.948120 2084.586914,375.040344 2087.737549,389.932190 
	C2091.070068,405.683929 2102.717041,415.938568 2115.828857,423.658722 
	C2124.309570,428.652161 2134.000732,432.206543 2143.603760,434.524902 
	C2156.486816,437.635193 2169.748779,440.039764 2182.955322,440.746399 
	C2203.762451,441.859741 2224.565674,440.466858 2244.657471,433.943787 
	C2255.612549,430.387054 2266.035156,425.802063 2275.536865,417.960754 
	C2265.270996,412.577240 2255.651855,407.293152 2245.775146,402.544708 
	C2243.664795,401.530090 2240.424561,401.852417 2238.043945,402.615540 
	C2232.429688,404.415100 2227.145752,407.277649 2221.501953,408.944946 
	C2208.237061,412.863647 2194.741943,414.211945 2180.897705,412.099426 
	C2172.041992,410.748138 2163.188965,409.371429 2155.950928,403.869812 
	C2151.451904,400.450134 2146.169189,397.012970 2145.705078,389.837463 
	C2159.693359,389.837463 2173.347656,389.837463 2187.932373,389.957550 
M1711.068115,316.040771 
	C1697.686646,316.751495 1684.020752,315.990479 1670.988770,318.509430 
	C1650.158447,322.535736 1630.850098,330.421173 1615.528320,346.517670 
	C1603.597656,359.051514 1601.115845,373.487671 1603.828613,389.416412 
	C1605.377197,398.509766 1610.437866,406.042145 1617.155884,412.454193 
	C1628.129883,422.928314 1641.262329,429.585541 1655.585815,433.850342 
	C1667.912231,437.520569 1680.629883,439.014679 1693.471802,440.328491 
	C1709.992188,442.018585 1726.301880,440.666992 1742.427368,438.428497 
	C1753.335327,436.914276 1763.966064,432.554077 1774.364136,428.542297 
	C1780.418213,426.206451 1785.768677,422.046631 1792.304443,418.195557 
	C1781.008911,412.511292 1771.232666,407.407318 1761.257324,402.727325 
	C1759.266968,401.793549 1756.095825,401.618347 1754.183228,402.553558 
	C1737.762817,410.582916 1720.454590,414.221405 1702.308960,412.868744 
	C1692.481201,412.136139 1682.591797,410.552094 1673.874023,405.361847 
	C1668.033203,401.884430 1663.552490,397.082153 1660.696655,389.844055 
	C1676.393066,389.844055 1691.198364,389.844055 1706.934814,389.957153 
	C1738.144897,389.957153 1769.354980,389.957153 1801.003906,389.957153 
	C1801.003906,384.345978 1801.249390,379.372009 1800.955200,374.430176 
	C1800.229492,362.233215 1794.649292,351.821594 1786.488770,343.423737 
	C1775.942505,332.570618 1762.664062,325.697021 1748.015015,321.420593 
	C1736.211182,317.974762 1724.189941,316.635132 1711.068115,316.040771 
M1938.169067,318.042908 
	C1929.679810,320.964691 1921.093262,323.638245 1912.743530,326.915680 
	C1908.718994,328.495392 1905.140869,331.212708 1900.698486,333.800659 
	C1900.698486,328.169586 1900.698486,323.255493 1900.698486,318.313416 
	C1881.316528,318.313416 1862.417358,318.313416 1843.379150,318.313416 
	C1843.379150,370.288483 1843.379150,421.948151 1843.379150,473.703491 
	C1862.657104,473.703491 1881.556274,473.703491 1901.085938,473.703491 
	C1901.085938,457.075073 1901.085938,440.730927 1901.085938,423.618042 
	C1903.385376,425.032806 1904.785889,426.198730 1906.395996,426.834564 
	C1915.205200,430.313477 1924.065918,433.662201 1933.399536,437.666504 
	C1935.149414,438.107208 1936.886353,438.865662 1938.651123,438.936676 
	C1949.577637,439.376465 1960.511353,439.935486 1971.440552,439.893860 
	C1977.824829,439.869568 1984.391235,439.555176 1990.544189,438.032043 
	C2000.073242,435.673218 2009.683472,432.982880 2018.608154,428.980957 
	C2036.787598,420.829254 2050.607910,408.305969 2054.666992,387.587280 
	C2056.508301,378.188446 2055.925781,368.855072 2052.402100,360.018890 
	C2044.669189,340.627563 2028.451294,330.298248 2010.156250,323.269409 
	C1991.244141,316.003540 1971.170166,315.256470 1951.109985,316.086670 
	C1947.052979,316.254547 1943.038208,317.442383 1938.169067,318.042908 
M1210.933228,223.952057 
	C1223.252075,223.967163 1235.611816,224.622070 1247.879517,223.837326 
	C1263.642700,222.828979 1279.497192,221.565903 1295.002319,218.722168 
	C1308.142090,216.312271 1320.485352,211.049057 1330.474243,201.221176 
	C1339.836914,192.009583 1340.455811,170.457748 1331.550659,161.710526 
	C1325.559204,155.825287 1318.658691,152.080109 1311.220825,149.030365 
	C1304.861084,146.422699 1298.206787,144.533142 1291.736206,142.343994 
	C1297.060913,139.601746 1302.200317,137.041870 1307.258301,134.329926 
	C1315.048706,130.152695 1320.075928,123.513390 1322.916260,115.349686 
	C1326.993774,103.629669 1319.830688,91.367325 1311.081909,85.031441 
	C1294.182739,72.793182 1274.536255,69.283882 1254.444946,68.163879 
	C1240.342896,67.377762 1226.156860,68.095589 1211.074585,68.033669 
	C1178.509399,68.033669 1145.944092,68.033669 1113.347656,68.033669 
	C1113.347656,120.379089 1113.347656,171.927689 1113.347656,223.858490 
	C1145.792358,223.858490 1177.896362,223.858490 1210.933228,223.952057 
M2327.000977,417.499847 
	C2327.000977,424.250824 2327.000977,431.001801 2327.000977,437.652618 
	C2346.760498,437.652618 2365.675293,437.652618 2385.000000,437.652618 
	C2385.000000,435.339569 2384.962646,433.369812 2385.005615,431.401825 
	C2385.328125,416.630096 2385.546143,401.854584 2386.051025,387.088959 
	C2386.300781,379.781311 2389.223389,373.223053 2394.223389,368.044983 
	C2402.034424,359.955780 2412.249512,356.043274 2423.047607,354.137054 
	C2431.437500,352.656006 2440.023193,352.286499 2448.593018,351.415710 
	C2448.593018,339.678650 2448.593018,327.976685 2448.593018,316.197235 
	C2423.856445,314.691895 2401.965332,319.835083 2384.694336,340.607574 
	C2384.694336,332.147491 2384.694336,325.225616 2384.694336,318.319824 
	C2365.305176,318.319824 2346.390869,318.319824 2327.000977,318.319824 
	C2327.000977,351.258240 2327.000977,383.879059 2327.000977,417.499847 
z"/>
<path fill="#013C65" opacity="1.000000" stroke="none" 
	d="
M1.000003,231.468658 
	C1.993976,229.001114 3.228063,227.084122 3.942375,224.989853 
	C8.120592,212.739944 11.094419,199.938904 16.568392,188.309326 
	C22.466034,175.779648 29.735874,163.625870 38.115913,152.607803 
	C47.145592,140.735580 58.114170,130.330704 68.337708,119.379829 
	C70.448944,117.118401 73.004326,115.271622 75.851379,113.357788 
	C83.468498,118.776314 86.168953,131.620728 82.028252,139.556625 
	C81.000366,141.526642 80.007866,143.920441 80.163681,146.033569 
	C80.892097,155.911667 82.153641,165.749283 82.972305,175.622299 
	C83.487396,181.834244 84.620354,188.274612 83.541748,194.264175 
	C82.348572,200.889954 85.505775,208.939621 77.898888,214.062637 
	C81.199928,216.871445 81.226013,219.711594 79.595200,223.473053 
	C78.634224,225.689560 79.392654,228.971527 80.159172,231.541214 
	C81.280235,235.299515 83.266907,238.792892 84.531105,242.519119 
	C84.935501,243.711075 84.218491,245.283493 83.935562,247.223587 
	C82.184380,245.736832 81.190048,244.892654 79.761749,243.680038 
	C79.408791,245.073608 78.872665,245.940247 79.081459,246.553101 
	C82.319786,256.058197 80.480431,265.885254 81.046211,275.554230 
	C81.161186,277.518951 81.918739,279.470428 81.872025,281.415833 
	C81.716911,287.877136 81.002159,294.338776 81.117401,300.789276 
	C81.253433,308.404083 84.161064,316.080231 80.157990,323.546844 
	C79.847282,324.126404 80.495247,325.149902 80.448578,325.952576 
	C80.174713,330.663361 79.744881,335.366119 79.533936,340.079041 
	C79.402832,343.008026 78.693336,346.319336 79.752190,348.820312 
	C83.656540,358.042328 85.426445,367.016388 79.958351,376.226379 
	C79.513107,376.976349 79.506981,378.102600 79.585075,379.029724 
	C80.345161,388.054260 81.166733,397.073639 81.970779,406.094482 
	C66.427437,393.934357 52.258991,380.345093 40.748386,364.286682 
	C32.725758,353.094299 24.890894,341.674835 18.100475,329.716095 
	C10.333445,316.037476 5.889813,300.955078 3.014760,285.463257 
	C2.853486,284.594269 2.205791,283.815582 1.392246,282.997437 
	C1.000000,265.979095 1.000000,248.958206 1.000003,231.468658 
z"/>
<path fill="#F8F8F8" opacity="1.000000" stroke="none" 
	d="
M720.164734,71.158066 
	C725.790283,67.768448 731.466064,64.459023 737.031860,60.973953 
	C753.002258,50.973919 768.808899,51.035801 784.915771,60.917233 
	C796.911621,68.276543 809.309814,74.976929 821.454102,82.098228 
	C828.489746,86.223885 835.377441,90.601791 842.599121,95.346451 
	C839.376526,98.001602 835.933350,100.256042 832.389221,102.338737 
	C805.614685,118.072716 778.831421,133.792068 752.028503,149.477661 
	C730.242432,162.227325 708.421753,174.917923 686.622925,187.645844 
	C666.687195,199.285934 646.772156,210.961395 626.826172,222.583771 
	C605.444275,235.042816 584.019592,247.428574 562.645325,259.900665 
	C540.125549,273.041138 517.649048,286.255585 495.143188,299.419952 
	C470.199890,314.010071 445.217438,328.533722 420.331543,343.221008 
	C417.397827,344.952393 414.970154,345.263977 412.017944,343.542786 
	C392.217712,331.998444 372.373688,320.529236 352.543976,309.035461 
	C332.570496,297.458435 312.602783,285.871521 292.622223,274.306763 
	C272.210510,262.492432 251.802856,250.670914 231.362305,238.906586 
	C214.376236,229.130402 197.345032,219.432678 180.579010,209.436615 
	C195.542236,200.427048 210.260239,191.681046 225.324356,182.888062 
	C228.954056,180.899033 232.229980,178.943893 235.522552,177.017197 
	C249.921188,168.591644 264.319641,168.557358 278.767090,176.945007 
	C288.780731,182.758575 298.848083,188.479691 309.077209,194.529526 
	C319.262329,200.673706 329.245331,206.558670 339.264648,212.381134 
	C357.487823,222.971069 375.732605,233.523880 394.152588,244.376709 
	C400.638458,248.341721 407.024048,251.888626 413.200623,255.768204 
	C415.685974,257.329285 417.532196,257.183655 419.919800,255.683517 
	C429.474792,249.680130 439.146332,243.862518 448.759125,237.950714 
	C467.545410,226.397232 486.321259,214.826691 505.445129,203.176468 
	C518.375916,195.404739 530.980042,187.747330 543.546387,180.028580 
	C564.707214,167.030823 585.844177,153.994110 607.333374,140.911530 
	C643.674866,118.839943 679.679565,96.839310 715.656189,74.792938 
	C717.288513,73.792625 718.667664,72.379120 720.164734,71.158066 
z"/>
<path fill="#06436E" opacity="1.000000" stroke="none" 
	d="
M224.978241,182.935059 
	C210.260239,191.681046 195.542236,200.427048 180.257294,209.508789 
	C175.991638,212.057251 172.031433,213.931717 168.645523,216.549103 
	C160.105209,223.150925 161.598343,229.483444 168.548752,235.299957 
	C169.813858,236.358688 171.265839,237.211975 172.693192,238.055847 
	C178.267365,241.351364 183.880569,244.580887 189.453140,247.879120 
	C202.336334,255.504303 215.204300,263.155212 228.085907,271.153564 
	C228.498123,273.830750 228.902893,276.150024 229.307678,278.469269 
	C230.338577,280.851105 230.853546,283.189636 231.050308,285.554657 
	C231.543930,291.488251 231.453522,297.506134 232.414871,303.355865 
	C233.558060,310.312225 235.555206,317.128265 237.168381,323.946106 
	C230.060135,326.332458 229.871811,326.430115 233.190628,332.830444 
	C234.575287,335.500732 234.919342,337.680725 233.185089,340.112183 
	C229.884628,344.739563 229.602570,355.088074 232.107391,359.741760 
	C233.260620,361.884308 233.683243,364.637299 233.711472,367.121704 
	C233.765289,371.858795 230.353836,376.566315 233.713272,381.399872 
	C234.024796,381.848083 233.108994,383.082458 232.883362,383.981995 
	C231.628525,388.984680 229.121841,394.096436 229.499619,398.980865 
	C229.996231,405.402039 227.567825,412.647369 232.881439,418.298767 
	C232.974518,418.397675 232.966949,418.622498 232.954788,418.784668 
	C232.442337,425.612793 232.251282,432.486023 231.309723,439.254761 
	C230.453995,445.406494 230.708893,446.449310 236.266541,448.036316 
	C236.440048,448.085846 236.477402,448.612152 236.412811,448.417389 
	C234.885284,450.838989 233.159576,452.824188 232.300735,455.132019 
	C231.295258,457.833923 231.044815,460.816803 230.466843,463.677795 
	C232.809860,469.390533 234.314301,475.513428 230.951019,482.102905 
	C218.015808,477.753448 204.931656,473.794922 192.188919,468.940247 
	C180.373947,464.439056 168.913239,459.004333 157.324875,453.916168 
	C155.680313,453.194061 154.195984,452.106995 152.319977,450.601562 
	C151.896042,448.193695 152.231567,446.203613 151.608963,444.581146 
	C148.404602,436.230835 153.676117,430.061859 156.224060,422.596191 
	C155.755630,421.641785 154.186737,419.905090 154.161865,418.146515 
	C154.042755,409.724060 149.992828,401.353424 153.862732,392.822723 
	C154.448776,391.530853 154.014053,389.415619 153.368439,387.990723 
	C151.154236,383.104218 150.261368,378.542816 152.520615,373.151276 
	C153.528885,370.745087 152.714249,367.556427 155.499374,365.643524 
	C155.846573,365.405060 155.815140,364.393616 155.725403,363.774200 
	C154.503632,355.341461 153.097946,346.932007 152.073196,338.476105 
	C151.758484,335.879242 153.345978,332.846130 152.536148,330.551483 
	C149.450470,321.808258 154.066498,313.607086 153.741699,305.021332 
	C153.419128,296.494629 155.143387,287.890747 155.959030,279.319672 
	C155.989960,278.994507 155.971405,278.635498 155.865417,278.330719 
	C152.910675,269.832520 151.335754,261.216583 152.854828,252.162628 
	C153.422714,248.777878 153.529633,245.258698 153.372086,241.822571 
	C153.129959,236.542099 152.401443,231.285919 152.021622,226.009201 
	C151.647385,220.809891 151.422943,215.599091 151.186996,210.390869 
	C151.071747,207.846954 150.439224,205.094650 151.167877,202.793533 
	C152.597244,198.279541 154.815582,194.015396 156.692307,189.682739 
	C155.823746,188.395172 154.281891,187.166992 154.277710,185.933609 
	C154.248169,177.210205 149.717072,168.448196 154.476624,159.705154 
	C155.020981,158.705215 154.709259,156.482574 153.923126,155.635391 
	C147.928680,149.175369 153.606842,142.128952 152.673996,135.462265 
	C157.411346,133.036209 154.488647,129.738876 154.171066,126.307053 
	C153.048828,114.179451 152.459320,101.989281 152.120560,89.810242 
	C152.014114,85.983650 153.795364,82.128120 153.884781,78.266670 
	C154.003113,73.156036 153.308014,68.026558 152.962509,62.905182 
	C163.939102,57.794212 174.727463,52.216591 185.941177,47.693478 
	C199.180450,42.353340 212.787445,37.924931 226.619858,33.506180 
	C226.739990,36.247246 226.322495,38.579041 226.255844,40.920826 
	C226.195648,43.035690 226.378891,45.182896 226.699142,47.278492 
	C227.738388,54.078873 229.038559,60.842163 229.952576,67.658043 
	C230.727570,73.437126 231.106247,79.269348 231.725449,85.761055 
	C227.598511,88.951981 226.669083,92.056374 229.255783,98.724060 
	C230.272400,101.344521 229.639542,102.403229 227.132309,103.014992 
	C226.108963,103.264694 225.174042,103.876846 224.213806,104.317261 
	C225.392822,106.789772 226.912140,108.787056 227.271652,110.974922 
	C228.042664,115.667076 227.074905,120.974075 228.931473,125.072411 
	C231.078583,129.812103 231.716843,132.612625 227.001328,134.021271 
	C227.001328,137.666748 227.122406,140.651688 226.980438,143.624069 
	C226.354416,156.729706 225.652618,169.831741 224.978241,182.935059 
z"/>
<path fill="#0D4E7C" opacity="1.000000" stroke="none" 
	d="
M505.101410,203.263184 
	C486.321259,214.826691 467.545410,226.397232 448.759125,237.950714 
	C439.146332,243.862518 429.474792,249.680130 419.919800,255.683517 
	C417.532196,257.183655 415.685974,257.329285 413.200623,255.768204 
	C407.024048,251.888626 400.638458,248.341721 394.202759,243.998810 
	C395.041107,240.380859 396.527618,237.482376 396.863434,234.456207 
	C397.347351,230.095215 397.206268,225.628418 396.933929,221.231400 
	C396.712189,217.651321 395.794159,214.120148 395.388947,210.544159 
	C394.929352,206.488235 393.779297,202.285980 398.016083,199.139114 
	C398.976898,198.425446 399.548920,196.513458 399.476166,195.198639 
	C399.142303,189.165207 398.782928,183.110031 397.933594,177.133606 
	C396.589600,167.676773 395.659149,158.277954 395.675995,148.660431 
	C395.685730,143.088257 394.371246,137.843750 398.451508,133.499817 
	C397.395020,130.990036 396.976837,128.528351 397.023682,126.075523 
	C397.070679,123.614700 398.761444,120.160927 397.678589,118.885429 
	C393.626831,114.112938 395.778015,109.104401 396.035492,104.186707 
	C396.430115,96.650032 397.155487,89.131271 397.618866,81.597427 
	C398.034241,74.844002 398.491333,68.082077 398.543823,61.320900 
	C398.585693,55.932278 398.069366,50.537758 397.756836,45.148407 
	C397.484314,40.448257 397.042786,35.755623 396.870056,31.052538 
	C396.640839,24.811504 394.244690,18.225462 398.611786,14.019923 
	C397.435059,11.826904 396.407196,10.560548 396.083405,9.134329 
	C395.723846,7.550861 396.006683,5.821541 396.009796,4.155728 
	C410.408691,3.770951 424.812042,2.963503 439.205231,3.115969 
	C454.722351,3.280341 470.243408,4.129715 485.736115,5.103815 
	C493.578186,5.596884 501.361572,7.023676 509.596161,8.470127 
	C510.278290,9.687559 510.457642,10.500580 510.807892,11.231757 
	C511.825409,13.356140 510.110931,30.341961 508.255920,31.473810 
	C502.813843,34.794331 507.112549,41.371479 503.344421,45.116028 
	C503.597382,45.314953 503.850342,45.513870 504.075470,45.690899 
	C506.153168,45.166931 508.201324,44.650417 510.249481,44.133904 
	C510.326202,44.497379 510.402954,44.860855 510.479675,45.224331 
	C508.399414,47.170902 506.319183,49.117470 504.323456,50.984943 
	C506.190002,52.027809 507.528381,52.775581 508.866760,53.523361 
	C507.992920,54.732929 507.012878,55.882366 506.281952,57.172871 
	C505.782043,58.055523 505.348083,59.143650 505.379028,60.124317 
	C505.446198,62.253529 505.841370,64.371468 506.082062,66.496330 
	C506.555084,70.672348 506.821503,74.882484 507.520172,79.019951 
	C508.886017,87.108620 510.714630,95.126907 511.805267,103.247726 
	C512.022705,104.866684 510.002441,106.991508 508.646088,108.566147 
	C506.821625,110.684174 504.639984,112.494522 503.330566,113.748489 
	C506.938202,117.492790 509.509674,120.161629 512.081116,122.830475 
	C511.489044,122.940956 510.897003,123.051445 510.304932,123.161926 
	C509.759918,125.394798 509.240723,127.634483 508.653168,129.856094 
	C508.490784,130.469971 508.265747,131.178345 507.830414,131.591446 
	C504.258667,134.980621 506.036591,138.487350 508.613770,140.721725 
	C513.326904,144.807922 513.640076,149.202927 511.402466,154.408386 
	C505.664215,154.560257 502.259644,160.403625 505.811768,164.901428 
	C508.216034,167.945801 508.099945,169.909760 505.149506,172.204086 
	C510.967163,174.006241 509.389648,178.174881 508.420807,181.307907 
	C506.281677,188.225418 506.505157,190.144852 512.530151,195.024323 
	C510.961639,196.321060 509.303192,197.420639 508.003601,198.847107 
	C506.831970,200.133087 506.053345,201.777084 505.101410,203.263184 
z"/>
<path fill="#033F69" opacity="1.000000" stroke="none" 
	d="
M152.600189,62.964951 
	C153.308014,68.026558 154.003113,73.156036 153.884781,78.266670 
	C153.795364,82.128120 152.014114,85.983650 152.120560,89.810242 
	C152.459320,101.989281 153.048828,114.179451 154.171066,126.307053 
	C154.488647,129.738876 157.411346,133.036209 152.673996,135.462265 
	C153.606842,142.128952 147.928680,149.175369 153.923126,155.635391 
	C154.709259,156.482574 155.020981,158.705215 154.476624,159.705154 
	C149.717072,168.448196 154.248169,177.210205 154.277710,185.933609 
	C154.281891,187.166992 155.823746,188.395172 156.692307,189.682739 
	C154.815582,194.015396 152.597244,198.279541 151.167877,202.793533 
	C150.439224,205.094650 151.071747,207.846954 151.186996,210.390869 
	C151.422943,215.599091 151.647385,220.809891 152.021622,226.009201 
	C152.401443,231.285919 153.129959,236.542099 153.372086,241.822571 
	C153.529633,245.258698 153.422714,248.777878 152.854828,252.162628 
	C151.335754,261.216583 152.910675,269.832520 155.865417,278.330719 
	C155.971405,278.635498 155.989960,278.994507 155.959030,279.319672 
	C155.143387,287.890747 153.419128,296.494629 153.741699,305.021332 
	C154.066498,313.607086 149.450470,321.808258 152.536148,330.551483 
	C153.345978,332.846130 151.758484,335.879242 152.073196,338.476105 
	C153.097946,346.932007 154.503632,355.341461 155.725403,363.774200 
	C155.815140,364.393616 155.846573,365.405060 155.499374,365.643524 
	C152.714249,367.556427 153.528885,370.745087 152.520615,373.151276 
	C150.261368,378.542816 151.154236,383.104218 153.368439,387.990723 
	C154.014053,389.415619 154.448776,391.530853 153.862732,392.822723 
	C149.992828,401.353424 154.042755,409.724060 154.161865,418.146515 
	C154.186737,419.905090 155.755630,421.641785 156.224060,422.596191 
	C153.676117,430.061859 148.404602,436.230835 151.608963,444.581146 
	C152.231567,446.203613 151.896042,448.193695 152.005066,450.434387 
	C127.191208,438.617462 103.845535,424.059113 82.129181,406.386902 
	C81.166733,397.073639 80.345161,388.054260 79.585075,379.029724 
	C79.506981,378.102600 79.513107,376.976349 79.958351,376.226379 
	C85.426445,367.016388 83.656540,358.042328 79.752190,348.820312 
	C78.693336,346.319336 79.402832,343.008026 79.533936,340.079041 
	C79.744881,335.366119 80.174713,330.663361 80.448578,325.952576 
	C80.495247,325.149902 79.847282,324.126404 80.157990,323.546844 
	C84.161064,316.080231 81.253433,308.404083 81.117401,300.789276 
	C81.002159,294.338776 81.716911,287.877136 81.872025,281.415833 
	C81.918739,279.470428 81.161186,277.518951 81.046211,275.554230 
	C80.480431,265.885254 82.319786,256.058197 79.081459,246.553101 
	C78.872665,245.940247 79.408791,245.073608 79.761749,243.680038 
	C81.190048,244.892654 82.184380,245.736832 83.935562,247.223587 
	C84.218491,245.283493 84.935501,243.711075 84.531105,242.519119 
	C83.266907,238.792892 81.280235,235.299515 80.159172,231.541214 
	C79.392654,228.971527 78.634224,225.689560 79.595200,223.473053 
	C81.226013,219.711594 81.199928,216.871445 77.898888,214.062637 
	C85.505775,208.939621 82.348572,200.889954 83.541748,194.264175 
	C84.620354,188.274612 83.487396,181.834244 82.972305,175.622299 
	C82.153641,165.749283 80.892097,155.911667 80.163681,146.033569 
	C80.007866,143.920441 81.000366,141.526642 82.028252,139.556625 
	C86.168953,131.620728 83.468498,118.776314 76.149940,113.198898 
	C82.984032,107.280701 89.691635,101.168427 97.120964,96.117767 
	C109.442795,87.741051 122.141998,79.905113 134.859360,72.131142 
	C140.427200,68.727592 146.431686,66.038330 152.600189,62.964951 
z"/>
<path fill="#EAEAEB" opacity="1.000000" stroke="none" 
	d="
M228.078461,270.795654 
	C215.204300,263.155212 202.336334,255.504303 189.453140,247.879120 
	C183.880569,244.580887 178.267365,241.351364 172.693192,238.055847 
	C171.265839,237.211975 169.813858,236.358688 168.548752,235.299957 
	C161.598343,229.483444 160.105209,223.150925 168.645523,216.549103 
	C172.031433,213.931717 175.991638,212.057251 180.012085,209.772369 
	C197.345032,219.432678 214.376236,229.130402 231.362305,238.906586 
	C251.802856,250.670914 272.210510,262.492432 292.622223,274.306763 
	C312.602783,285.871521 332.570496,297.458435 352.543976,309.035461 
	C372.373688,320.529236 392.217712,331.998444 412.017944,343.542786 
	C414.970154,345.263977 417.397827,344.952393 420.331543,343.221008 
	C445.217438,328.533722 470.199890,314.010071 495.143188,299.419952 
	C517.649048,286.255585 540.125549,273.041138 562.645325,259.900665 
	C584.019592,247.428574 605.444275,235.042816 626.826172,222.583771 
	C646.772156,210.961395 666.687195,199.285934 686.622925,187.645844 
	C708.421753,174.917923 730.242432,162.227325 752.028503,149.477661 
	C778.831421,133.792068 805.614685,118.072716 832.389221,102.338737 
	C835.933350,100.256042 839.376526,98.001602 842.927246,95.495651 
	C848.371460,98.322296 853.945251,101.199936 859.094910,104.701355 
	C867.453796,110.384857 864.562134,121.604698 856.691589,125.946999 
	C843.301819,133.334305 830.331055,141.481110 816.655029,149.591324 
	C814.773193,150.304688 813.283691,150.501404 812.087646,151.200317 
	C775.241455,172.731628 738.418701,194.303009 701.603455,215.887100 
	C641.585693,251.074356 581.566345,286.258850 521.568359,321.479614 
	C503.829346,331.892944 486.159729,342.424438 468.130615,352.938599 
	C462.082764,356.332611 456.220459,359.472076 450.673248,363.094147 
	C440.397217,369.803925 429.559326,374.538574 416.552490,374.098633 
	C408.182526,374.256714 401.032867,371.981934 394.205750,367.954803 
	C368.190521,352.608856 342.072571,337.437103 315.714050,321.987457 
	C299.667938,312.526154 283.915375,303.252625 268.129181,294.036865 
	C254.799240,286.255035 241.430191,278.540161 228.078461,270.795654 
z"/>
<path fill="#115382" opacity="1.000000" stroke="none" 
	d="
M660.038086,470.110687 
	C643.301331,475.746185 626.741577,482.001801 609.778687,486.845367 
	C592.302856,491.835358 574.463196,495.577271 556.722412,499.599335 
	C550.174622,501.083862 543.454956,501.810455 536.407959,502.442444 
	C535.096985,495.455475 533.787231,488.933197 533.391052,482.355865 
	C532.918579,474.510712 531.381958,466.442719 535.854370,459.004547 
	C536.407104,458.085175 535.839233,456.376221 535.547913,455.088043 
	C534.845886,451.983093 533.981201,448.915283 533.221741,445.822754 
	C532.936890,444.663086 532.708435,443.483643 532.549316,442.300446 
	C532.314819,440.556366 531.955688,438.791199 532.035278,437.052734 
	C532.124573,435.103851 532.960754,433.166168 532.909180,431.238678 
	C532.802795,427.261993 532.341064,423.293671 531.984680,419.325562 
	C531.881409,418.176056 531.569214,417.044922 531.472290,415.895325 
	C530.962830,409.851837 529.818481,403.758545 530.232361,397.775116 
	C530.532654,393.433838 532.930603,389.242096 534.359009,384.972260 
	C534.933960,383.253601 536.107910,381.380066 535.821777,379.790863 
	C534.647949,373.271545 533.372375,366.726776 531.453552,360.397675 
	C529.538818,354.081757 530.051208,351.379852 536.041443,347.193390 
	C531.391907,338.770508 534.961487,330.423706 537.201355,321.716644 
	C551.932495,314.463959 566.473022,307.516388 580.976929,300.493286 
	C604.468140,289.118408 627.922302,277.667236 651.426880,266.320190 
	C654.849060,264.668091 658.463440,263.414001 661.953491,262.333374 
	C659.597778,266.256042 657.017822,269.439178 658.618835,274.475189 
	C659.487488,277.207428 659.249756,282.422821 657.610168,283.433136 
	C652.044861,286.862427 655.505371,291.337250 655.026367,295.272217 
	C654.585449,298.893768 653.007263,303.189453 654.364258,306.021912 
	C656.277039,310.014465 656.004517,313.683899 656.198364,317.664062 
	C656.548950,324.862823 658.449219,332.128387 653.929504,339.036530 
	C658.510193,340.600189 659.474854,342.586670 657.738770,347.575775 
	C655.868713,352.949890 651.187012,359.247498 657.461365,365.215820 
	C658.049561,365.775330 657.686096,367.404663 657.655090,368.534241 
	C657.490112,374.537750 656.165039,380.796753 657.456299,386.462555 
	C658.501709,391.049286 660.029236,394.050018 654.452515,394.891388 
	C655.186462,399.566681 656.213623,403.761017 656.390747,407.990967 
	C656.529236,411.300140 655.580017,414.649292 655.176086,417.988190 
	C654.757996,421.443787 653.667664,425.037628 654.237854,428.334686 
	C654.872925,432.007477 658.258179,435.266541 655.212708,439.325836 
	C654.984314,439.630096 655.525330,440.529449 655.736267,441.142670 
	C658.078552,447.952393 659.557007,454.860779 659.079773,462.160339 
	C658.908569,464.778381 659.690918,467.458771 660.038086,470.110687 
M653.346558,468.166992 
	C654.121887,468.140045 654.897156,468.113098 655.672485,468.086151 
	C655.525208,467.527008 655.377930,466.967896 655.230652,466.408722 
	C654.550476,466.771881 653.870300,467.135071 653.346558,468.166992 
z"/>
<path fill="#155786" opacity="1.000000" stroke="none" 
	d="
M660.424194,470.064148 
	C659.690918,467.458771 658.908569,464.778381 659.079773,462.160339 
	C659.557007,454.860779 658.078552,447.952393 655.736267,441.142670 
	C655.525330,440.529449 654.984314,439.630096 655.212708,439.325836 
	C658.258179,435.266541 654.872925,432.007477 654.237854,428.334686 
	C653.667664,425.037628 654.757996,421.443787 655.176086,417.988190 
	C655.580017,414.649292 656.529236,411.300140 656.390747,407.990967 
	C656.213623,403.761017 655.186462,399.566681 654.452515,394.891388 
	C660.029236,394.050018 658.501709,391.049286 657.456299,386.462555 
	C656.165039,380.796753 657.490112,374.537750 657.655090,368.534241 
	C657.686096,367.404663 658.049561,365.775330 657.461365,365.215820 
	C651.187012,359.247498 655.868713,352.949890 657.738770,347.575775 
	C659.474854,342.586670 658.510193,340.600189 653.929504,339.036530 
	C658.449219,332.128387 656.548950,324.862823 656.198364,317.664062 
	C656.004517,313.683899 656.277039,310.014465 654.364258,306.021912 
	C653.007263,303.189453 654.585449,298.893768 655.026367,295.272217 
	C655.505371,291.337250 652.044861,286.862427 657.610168,283.433136 
	C659.249756,282.422821 659.487488,277.207428 658.618835,274.475189 
	C657.017822,269.439178 659.597778,266.256042 662.162231,262.063904 
	C668.401733,258.559052 674.408813,255.705292 680.390564,252.799530 
	C704.945435,240.871552 729.476257,228.894089 754.055481,217.016724 
	C759.281250,214.491470 764.673096,212.309738 769.954956,210.322540 
	C764.815613,214.699234 766.902588,220.549194 766.562256,225.555817 
	C766.076111,232.707916 766.796143,239.938339 766.833862,247.136169 
	C766.837158,247.755249 765.489380,248.304642 764.950806,249.022614 
	C764.263794,249.938538 763.165527,251.071945 763.284790,251.974091 
	C763.756714,255.543655 764.834534,259.032104 765.324036,262.600494 
	C766.647522,272.247864 768.068665,281.897827 768.853027,291.595154 
	C769.155212,295.331879 767.895752,299.208405 767.249634,303.004547 
	C766.594421,306.853516 764.429199,311.092194 765.413879,314.424927 
	C766.966919,319.681396 765.653137,324.404999 765.401306,329.372559 
	C765.176758,333.802124 765.002258,338.264221 765.294006,342.679718 
	C765.500366,345.802979 766.808716,348.844604 767.110779,351.972412 
	C767.544739,356.464630 767.510559,361.002136 767.676208,365.520294 
	C767.626465,367.395752 766.212097,369.422852 766.192444,371.463348 
	C766.140381,376.890778 766.339050,382.372681 767.085632,387.742889 
	C768.079346,394.891357 769.685730,401.954681 771.028809,409.054596 
	C752.711304,424.163452 732.447144,436.431610 711.606812,447.482910 
	C695.281921,456.139771 677.785889,462.588043 660.424194,470.064148 
z"/>
<path fill="#0A4A77" opacity="1.000000" stroke="none" 
	d="
M395.544830,4.095093 
	C396.006683,5.821541 395.723846,7.550861 396.083405,9.134329 
	C396.407196,10.560548 397.435059,11.826904 398.611786,14.019923 
	C394.244690,18.225462 396.640839,24.811504 396.870056,31.052538 
	C397.042786,35.755623 397.484314,40.448257 397.756836,45.148407 
	C398.069366,50.537758 398.585693,55.932278 398.543823,61.320900 
	C398.491333,68.082077 398.034241,74.844002 397.618866,81.597427 
	C397.155487,89.131271 396.430115,96.650032 396.035492,104.186707 
	C395.778015,109.104401 393.626831,114.112938 397.678589,118.885429 
	C398.761444,120.160927 397.070679,123.614700 397.023682,126.075523 
	C396.976837,128.528351 397.395020,130.990036 398.451508,133.499817 
	C394.371246,137.843750 395.685730,143.088257 395.675995,148.660431 
	C395.659149,158.277954 396.589600,167.676773 397.933594,177.133606 
	C398.782928,183.110031 399.142303,189.165207 399.476166,195.198639 
	C399.548920,196.513458 398.976898,198.425446 398.016083,199.139114 
	C393.779297,202.285980 394.929352,206.488235 395.388947,210.544159 
	C395.794159,214.120148 396.712189,217.651321 396.933929,221.231400 
	C397.206268,225.628418 397.347351,230.095215 396.863434,234.456207 
	C396.527618,237.482376 395.041107,240.380859 394.018555,243.714294 
	C375.732605,233.523880 357.487823,222.971069 339.264648,212.381134 
	C329.245331,206.558670 319.262329,200.673706 309.218781,194.187561 
	C308.437073,187.260727 307.583679,180.973526 307.023163,174.660324 
	C306.819672,172.368332 307.315674,170.014252 307.472595,167.950546 
	C306.522949,166.729340 304.285339,165.149750 304.421326,163.811340 
	C305.177856,156.366791 306.519653,148.982162 307.641876,141.574112 
	C308.267731,137.442551 309.483948,133.279510 309.315338,129.176636 
	C309.057770,122.909103 307.632202,116.696739 307.149719,110.426537 
	C307.019226,108.731453 308.025085,106.027473 309.335022,105.324036 
	C312.631104,103.554054 312.147125,101.408539 311.365295,98.643578 
	C310.901825,97.004410 311.054169,95.191803 310.923553,93.457634 
	C310.725769,90.830811 310.618408,88.192810 310.302429,85.580139 
	C309.590546,79.693619 308.058563,73.807076 308.162140,67.943535 
	C308.332947,58.274323 307.685486,48.859413 304.450439,39.699623 
	C304.333160,39.367580 304.665802,38.876633 304.878204,38.156670 
	C306.176361,39.042271 307.261444,39.782516 308.762329,40.806400 
	C308.762329,34.645519 308.762329,29.168077 308.762329,22.658632 
	C310.075287,21.598459 311.111450,19.411343 308.652679,16.484062 
	C308.020447,15.731359 308.203125,14.294173 308.011414,13.171430 
	C315.137848,12.099250 322.255127,10.960900 329.392975,9.970898 
	C339.290039,8.598196 349.172058,6.987358 359.116394,6.118024 
	C371.073547,5.072729 383.089417,4.698964 395.544830,4.095093 
M392.447784,194.710831 
	C392.712830,194.988907 392.977875,195.266998 393.242920,195.545074 
	C393.358032,195.435226 393.579285,195.235886 393.572998,195.228424 
	C393.325592,194.935135 393.057556,194.659317 392.447784,194.710831 
z"/>
<path fill="#0E4F7D" opacity="1.000000" stroke="none" 
	d="
M536.994324,321.987885 
	C534.961487,330.423706 531.391907,338.770508 536.041443,347.193390 
	C530.051208,351.379852 529.538818,354.081757 531.453552,360.397675 
	C533.372375,366.726776 534.647949,373.271545 535.821777,379.790863 
	C536.107910,381.380066 534.933960,383.253601 534.359009,384.972260 
	C532.930603,389.242096 530.532654,393.433838 530.232361,397.775116 
	C529.818481,403.758545 530.962830,409.851837 531.472290,415.895325 
	C531.569214,417.044922 531.881409,418.176056 531.984680,419.325562 
	C532.341064,423.293671 532.802795,427.261993 532.909180,431.238678 
	C532.960754,433.166168 532.124573,435.103851 532.035278,437.052734 
	C531.955688,438.791199 532.314819,440.556366 532.549316,442.300446 
	C532.708435,443.483643 532.936890,444.663086 533.221741,445.822754 
	C533.981201,448.915283 534.845886,451.983093 535.547913,455.088043 
	C535.839233,456.376221 536.407104,458.085175 535.854370,459.004547 
	C531.381958,466.442719 532.918579,474.510712 533.391052,482.355865 
	C533.787231,488.933197 535.096985,495.455475 536.005371,502.421814 
	C519.349976,504.886993 502.705719,507.060486 486.025909,508.914154 
	C479.462952,509.643494 472.824249,509.803162 466.213654,509.969849 
	C450.124359,510.375549 434.031311,510.633575 417.459656,510.501465 
	C416.942566,501.823120 414.372009,493.636444 416.666351,485.346771 
	C416.972809,484.239624 416.323151,482.854950 416.067688,481.608765 
	C415.812012,480.361786 414.823639,478.600739 415.315338,477.973511 
	C418.334717,474.121948 416.721008,470.923920 413.940887,467.687653 
	C418.705170,464.561188 416.976379,460.231537 416.555023,456.250061 
	C415.476471,446.058136 411.876312,435.866730 416.844574,425.717255 
	C417.179291,425.033417 417.196350,424.001617 416.959473,423.259949 
	C414.321136,414.999115 417.459900,406.638489 416.851898,398.198608 
	C416.300659,390.546906 413.368713,382.068970 416.996124,374.167816 
	C429.559326,374.538574 440.397217,369.803925 450.673248,363.094147 
	C456.220459,359.472076 462.082764,356.332611 468.553345,352.955597 
	C470.570068,352.610535 471.930145,352.482239 473.088440,351.930359 
	C489.404083,344.156952 505.672424,336.284180 521.999146,328.534332 
	C526.923767,326.196716 531.991943,324.161591 536.994324,321.987885 
z"/>
<path fill="#084672" opacity="1.000000" stroke="none" 
	d="
M228.085907,271.153564 
	C241.430191,278.540161 254.799240,286.255035 268.129181,294.036865 
	C283.915375,303.252625 299.667938,312.526154 315.722839,322.357483 
	C319.349823,332.881561 324.378967,342.739319 317.690094,352.932037 
	C319.589630,354.308136 321.509430,355.698914 323.429230,357.089691 
	C323.642365,357.636200 323.855530,358.182709 324.068695,358.729248 
	C316.843872,357.364838 317.761841,360.232147 319.380035,364.034180 
	C320.315735,366.232697 320.567383,368.805145 320.719635,371.234802 
	C320.943756,374.811249 320.805145,378.410522 320.819336,382.000061 
	C320.835114,385.992859 320.902283,389.986542 320.838348,393.978088 
	C320.811462,395.655487 319.922241,397.535767 320.430817,398.966309 
	C322.314514,404.265320 320.958344,412.590271 318.191132,414.534515 
	C318.501282,417.425964 318.813690,419.823822 318.996399,422.231476 
	C319.109558,423.722534 319.029968,425.228577 319.029419,426.727875 
	C319.027222,432.642029 319.097931,438.557648 318.985962,444.469757 
	C318.930145,447.416656 317.287903,451.113281 318.527069,453.162048 
	C322.610901,459.914032 319.319946,467.143219 320.898682,473.948212 
	C321.243835,475.435852 319.902252,477.951660 320.614532,478.607910 
	C323.824432,481.565552 322.417175,484.010376 320.709686,486.886871 
	C320.159973,487.812988 320.693268,489.379425 320.724060,490.653107 
	C320.822327,494.717743 320.917267,498.782440 321.013489,502.847107 
	C307.951965,500.503754 294.776642,498.656799 281.857178,495.693939 
	C264.936615,491.813538 248.218124,487.051941 231.181870,482.386169 
	C234.314301,475.513428 232.809860,469.390533 230.466843,463.677795 
	C231.044815,460.816803 231.295258,457.833923 232.300735,455.132019 
	C233.159576,452.824188 234.885284,450.838989 236.412811,448.417389 
	C236.477402,448.612152 236.440048,448.085846 236.266541,448.036316 
	C230.708893,446.449310 230.453995,445.406494 231.309723,439.254761 
	C232.251282,432.486023 232.442337,425.612793 232.954788,418.784668 
	C232.966949,418.622498 232.974518,418.397675 232.881439,418.298767 
	C227.567825,412.647369 229.996231,405.402039 229.499619,398.980865 
	C229.121841,394.096436 231.628525,388.984680 232.883362,383.981995 
	C233.108994,383.082458 234.024796,381.848083 233.713272,381.399872 
	C230.353836,376.566315 233.765289,371.858795 233.711472,367.121704 
	C233.683243,364.637299 233.260620,361.884308 232.107391,359.741760 
	C229.602570,355.088074 229.884628,344.739563 233.185089,340.112183 
	C234.919342,337.680725 234.575287,335.500732 233.190628,332.830444 
	C229.871811,326.430115 230.060135,326.332458 237.168381,323.946106 
	C235.555206,317.128265 233.558060,310.312225 232.414871,303.355865 
	C231.453522,297.506134 231.543930,291.488251 231.050308,285.554657 
	C230.853546,283.189636 230.338577,280.851105 229.307678,278.469269 
	C228.902893,276.150024 228.498123,273.830750 228.085907,271.153564 
z"/>
<path fill="#105280" opacity="1.000000" stroke="none" 
	d="
M505.445129,203.176453 
	C506.053345,201.777084 506.831970,200.133087 508.003601,198.847107 
	C509.303192,197.420639 510.961639,196.321060 512.530151,195.024323 
	C506.505157,190.144852 506.281677,188.225418 508.420807,181.307907 
	C509.389648,178.174881 510.967163,174.006241 505.149506,172.204086 
	C508.099945,169.909760 508.216034,167.945801 505.811768,164.901428 
	C502.259644,160.403625 505.664215,154.560257 511.402466,154.408386 
	C513.640076,149.202927 513.326904,144.807922 508.613770,140.721725 
	C506.036591,138.487350 504.258667,134.980621 507.830414,131.591446 
	C508.265747,131.178345 508.490784,130.469971 508.653168,129.856094 
	C509.240723,127.634483 509.759918,125.394798 510.304932,123.161926 
	C510.897003,123.051445 511.489044,122.940956 512.081116,122.830475 
	C509.509674,120.161629 506.938202,117.492790 503.330566,113.748489 
	C504.639984,112.494522 506.821625,110.684174 508.646088,108.566147 
	C510.002441,106.991508 512.022705,104.866684 511.805267,103.247726 
	C510.714630,95.126907 508.886017,87.108620 507.520172,79.019951 
	C506.821503,74.882484 506.555084,70.672348 506.082062,66.496330 
	C505.841370,64.371468 505.446198,62.253529 505.379028,60.124317 
	C505.348083,59.143650 505.782043,58.055523 506.281952,57.172871 
	C507.012878,55.882366 507.992920,54.732929 508.866760,53.523361 
	C507.528381,52.775581 506.190002,52.027809 504.323456,50.984943 
	C506.319183,49.117470 508.399414,47.170902 510.479675,45.224331 
	C510.402954,44.860855 510.326202,44.497379 510.249481,44.133904 
	C508.201324,44.650417 506.153168,45.166931 504.075470,45.690899 
	C503.850342,45.513870 503.597382,45.314953 503.344421,45.116028 
	C507.112549,41.371479 502.813843,34.794331 508.255920,31.473810 
	C510.110931,30.341961 511.825409,13.356140 510.807892,11.231757 
	C510.457642,10.500580 510.278290,9.687559 510.013855,8.535332 
	C522.532532,9.793828 535.129456,11.017214 547.565125,13.171523 
	C562.085693,15.687003 576.481812,18.939117 590.898193,22.028950 
	C596.506165,23.230896 602.022156,24.862125 607.802734,26.984669 
	C611.657715,33.852844 610.691895,40.267754 609.068054,46.750969 
	C607.714966,52.153061 605.358765,57.603992 605.440491,63.003109 
	C605.612671,74.367355 606.506714,85.806503 608.318909,97.018631 
	C609.064026,101.628662 612.269287,105.423325 609.303040,110.679970 
	C607.624146,113.655281 608.194580,117.882187 607.668030,121.533295 
	C607.426697,123.206627 606.697327,124.848892 606.686035,126.508629 
	C606.653137,131.329422 606.871399,136.151932 606.991150,140.973770 
	C585.844177,153.994110 564.707214,167.030823 543.546387,180.028580 
	C530.980042,187.747330 518.375916,195.404739 505.445129,203.176453 
M511.215515,162.138321 
	C511.772247,161.591400 512.328979,161.044464 512.885742,160.497528 
	C512.325684,160.077667 511.765594,159.657822 511.205566,159.237976 
	C511.089050,160.016403 510.972534,160.794830 511.215515,162.138321 
M513.407593,49.195766 
	C513.791321,49.200130 514.174988,49.204494 514.558716,49.208858 
	C514.560364,49.049641 514.572754,48.752033 514.562134,48.751205 
	C514.180237,48.721508 513.796265,48.719547 513.407593,49.195766 
z"/>
<path fill="#0B4B78" opacity="1.000000" stroke="none" 
	d="
M321.427063,502.906647 
	C320.917267,498.782440 320.822327,494.717743 320.724060,490.653107 
	C320.693268,489.379425 320.159973,487.812988 320.709686,486.886871 
	C322.417175,484.010376 323.824432,481.565552 320.614532,478.607910 
	C319.902252,477.951660 321.243835,475.435852 320.898682,473.948212 
	C319.319946,467.143219 322.610901,459.914032 318.527069,453.162048 
	C317.287903,451.113281 318.930145,447.416656 318.985962,444.469757 
	C319.097931,438.557648 319.027222,432.642029 319.029419,426.727875 
	C319.029968,425.228577 319.109558,423.722534 318.996399,422.231476 
	C318.813690,419.823822 318.501282,417.425964 318.191132,414.534515 
	C320.958344,412.590271 322.314514,404.265320 320.430817,398.966309 
	C319.922241,397.535767 320.811462,395.655487 320.838348,393.978088 
	C320.902283,389.986542 320.835114,385.992859 320.819336,382.000061 
	C320.805145,378.410522 320.943756,374.811249 320.719635,371.234802 
	C320.567383,368.805145 320.315735,366.232697 319.380035,364.034180 
	C317.761841,360.232147 316.843872,357.364838 324.068695,358.729248 
	C323.855530,358.182709 323.642365,357.636200 323.429230,357.089691 
	C321.509430,355.698914 319.589630,354.308136 317.690094,352.932037 
	C324.378967,342.739319 319.349823,332.881561 316.001831,322.570312 
	C342.072571,337.437103 368.190521,352.608856 394.205750,367.954803 
	C401.032867,371.981934 408.182526,374.256714 416.552490,374.098633 
	C413.368713,382.068970 416.300659,390.546906 416.851898,398.198608 
	C417.459900,406.638489 414.321136,414.999115 416.959473,423.259949 
	C417.196350,424.001617 417.179291,425.033417 416.844574,425.717255 
	C411.876312,435.866730 415.476471,446.058136 416.555023,456.250061 
	C416.976379,460.231537 418.705170,464.561188 413.940887,467.687653 
	C416.721008,470.923920 418.334717,474.121948 415.315338,477.973511 
	C414.823639,478.600739 415.812012,480.361786 416.067688,481.608765 
	C416.323151,482.854950 416.972809,484.239624 416.666351,485.346771 
	C414.372009,493.636444 416.942566,501.823120 416.994446,510.447937 
	C400.175446,509.918671 383.331238,509.147278 366.511475,508.012848 
	C355.652496,507.280457 344.821289,506.093292 333.994446,504.950562 
	C329.918762,504.520416 325.890503,503.640839 321.427063,502.906647 
z"/>
<path fill="#175A8A" opacity="1.000000" stroke="none" 
	d="
M771.335205,408.913269 
	C769.685730,401.954681 768.079346,394.891357 767.085632,387.742889 
	C766.339050,382.372681 766.140381,376.890778 766.192444,371.463348 
	C766.212097,369.422852 767.626465,367.395752 767.676208,365.520294 
	C767.510559,361.002136 767.544739,356.464630 767.110779,351.972412 
	C766.808716,348.844604 765.500366,345.802979 765.294006,342.679718 
	C765.002258,338.264221 765.176758,333.802124 765.401306,329.372559 
	C765.653137,324.404999 766.966919,319.681396 765.413879,314.424927 
	C764.429199,311.092194 766.594421,306.853516 767.249634,303.004547 
	C767.895752,299.208405 769.155212,295.331879 768.853027,291.595154 
	C768.068665,281.897827 766.647522,272.247864 765.324036,262.600494 
	C764.834534,259.032104 763.756714,255.543655 763.284790,251.974091 
	C763.165527,251.071945 764.263794,249.938538 764.950806,249.022614 
	C765.489380,248.304642 766.837158,247.755249 766.833862,247.136169 
	C766.796143,239.938339 766.076111,232.707916 766.562256,225.555817 
	C766.902588,220.549194 764.815613,214.699234 770.164307,210.054077 
	C777.819885,206.143921 785.328735,203.052872 792.620850,199.515213 
	C801.411072,195.250687 810.031128,190.633362 818.698120,186.117432 
	C823.833313,183.441772 828.916748,180.667023 834.023499,177.936859 
	C837.000000,182.914917 840.353943,187.713425 842.834290,192.927521 
	C844.837341,197.138138 845.586975,201.924911 847.238159,206.326462 
	C854.526001,225.753815 857.076355,245.920212 855.840576,266.468445 
	C855.282898,275.740723 853.644958,285.087524 851.263550,294.073639 
	C848.573120,304.225708 845.012878,314.229706 840.903503,323.904144 
	C834.573669,338.806122 825.684692,352.258331 815.600220,364.936554 
	C802.626160,381.247498 787.694458,395.564331 771.335205,408.913269 
z"/>
<path fill="#033F69" opacity="1.000000" stroke="none" 
	d="
M1212.008423,68.141800 
	C1226.156860,68.095589 1240.342896,67.377762 1254.444946,68.163879 
	C1274.536255,69.283882 1294.182739,72.793182 1311.081909,85.031441 
	C1319.830688,91.367325 1326.993774,103.629669 1322.916260,115.349686 
	C1320.075928,123.513390 1315.048706,130.152695 1307.258301,134.329926 
	C1302.200317,137.041870 1297.060913,139.601746 1291.736206,142.343994 
	C1298.206787,144.533142 1304.861084,146.422699 1311.220825,149.030365 
	C1318.658691,152.080109 1325.559204,155.825287 1331.550659,161.710526 
	C1340.455811,170.457748 1339.836914,192.009583 1330.474243,201.221176 
	C1320.485352,211.049057 1308.142090,216.312271 1295.002319,218.722168 
	C1279.497192,221.565903 1263.642700,222.828979 1247.879517,223.837326 
	C1235.611816,224.622070 1223.252075,223.967163 1210.383789,223.547165 
	C1206.027466,217.377838 1205.877563,206.508438 1208.378174,204.845627 
	C1209.411011,200.260910 1210.210083,196.713821 1211.474487,193.113235 
	C1224.404297,193.040176 1236.893188,193.480118 1249.323730,192.820786 
	C1256.269653,192.452347 1263.287720,190.802872 1269.963867,188.733063 
	C1276.487915,186.710449 1278.704224,182.340286 1279.111938,176.646439 
	C1279.495972,171.284912 1274.049927,165.616165 1267.612549,164.194778 
	C1258.511597,162.185287 1249.191650,160.732239 1239.895996,160.152161 
	C1228.637573,159.449585 1217.306885,159.905624 1206.005127,159.438873 
	C1206.738770,156.075363 1207.517578,153.143036 1208.190186,150.186554 
	C1208.468262,148.964798 1208.740234,147.672272 1208.634766,146.444626 
	C1208.168457,141.012161 1207.563721,135.591568 1207.473145,130.099014 
	C1216.903320,130.021088 1225.908081,130.515778 1234.823730,129.838516 
	C1241.775146,129.310440 1248.793457,127.890259 1255.446167,125.798195 
	C1260.267212,124.282097 1264.705200,121.111237 1264.981201,115.019821 
	C1265.269043,108.666649 1261.022705,105.008789 1256.026978,103.229240 
	C1249.929443,101.057182 1243.368164,99.752312 1236.906982,99.149811 
	C1229.330322,98.443314 1221.645752,98.895576 1213.943481,98.477524 
	C1212.053589,97.373947 1210.164429,96.761284 1208.424683,95.860092 
	C1207.208008,95.229874 1205.888062,94.391708 1205.215332,93.281952 
	C1204.848877,92.677383 1205.416382,90.818230 1206.109131,90.370728 
	C1210.999268,87.212280 1214.357178,83.098740 1214.045654,77.067589 
	C1213.890625,74.065254 1212.719727,71.115395 1212.008423,68.141800 
z"/>
<path fill="#013C65" opacity="1.000000" stroke="none" 
	d="
M1211.541504,68.087730 
	C1212.719727,71.115395 1213.890625,74.065254 1214.045654,77.067589 
	C1214.357178,83.098740 1210.999268,87.212280 1206.109131,90.370728 
	C1205.416382,90.818230 1204.848877,92.677383 1205.215332,93.281952 
	C1205.888062,94.391708 1207.208008,95.229874 1208.424683,95.860092 
	C1210.164429,96.761284 1212.053589,97.373947 1213.476807,98.534004 
	C1199.175903,98.958199 1185.277222,98.958199 1171.350586,98.958199 
	C1171.350586,109.714668 1171.350586,119.609222 1171.350586,130.097656 
	C1179.142700,130.097656 1186.592041,130.097656 1194.226562,130.325317 
	C1195.260498,130.401794 1196.109253,130.250641 1197.304932,130.073181 
	C1198.115479,130.064423 1198.578735,130.081955 1199.227539,130.326752 
	C1200.261108,130.402664 1201.109253,130.251312 1202.377930,130.068939 
	C1204.202026,130.080856 1205.605469,130.123779 1207.009033,130.166687 
	C1207.563721,135.591568 1208.168457,141.012161 1208.634766,146.444626 
	C1208.740234,147.672272 1208.468262,148.964798 1208.190186,150.186554 
	C1207.517578,153.143036 1206.738770,156.075363 1205.538208,159.492615 
	C1193.838257,159.967819 1182.602783,159.967819 1171.352051,159.967819 
	C1171.352051,171.388428 1171.352051,181.947800 1171.352051,193.166718 
	C1184.801636,193.166718 1197.905396,193.166718 1211.009033,193.166718 
	C1210.210083,196.713821 1209.411011,200.260910 1208.378174,204.845627 
	C1205.877563,206.508438 1206.027466,217.377838 1209.917480,223.500381 
	C1177.896362,223.858490 1145.792358,223.858490 1113.347656,223.858490 
	C1113.347656,171.927689 1113.347656,120.379089 1113.347656,68.033669 
	C1145.944092,68.033669 1178.509399,68.033669 1211.541504,68.087730 
z"/>
<path fill="#084672" opacity="1.000000" stroke="none" 
	d="
M307.625427,13.273114 
	C308.203125,14.294173 308.020447,15.731359 308.652679,16.484062 
	C311.111450,19.411343 310.075287,21.598459 308.762329,22.658632 
	C308.762329,29.168077 308.762329,34.645519 308.762329,40.806400 
	C307.261444,39.782516 306.176361,39.042271 304.878204,38.156670 
	C304.665802,38.876633 304.333160,39.367580 304.450439,39.699623 
	C307.685486,48.859413 308.332947,58.274323 308.162140,67.943535 
	C308.058563,73.807076 309.590546,79.693619 310.302429,85.580139 
	C310.618408,88.192810 310.725769,90.830811 310.923553,93.457634 
	C311.054169,95.191803 310.901825,97.004410 311.365295,98.643578 
	C312.147125,101.408539 312.631104,103.554054 309.335022,105.324036 
	C308.025085,106.027473 307.019226,108.731453 307.149719,110.426537 
	C307.632202,116.696739 309.057770,122.909103 309.315338,129.176636 
	C309.483948,133.279510 308.267731,137.442551 307.641876,141.574112 
	C306.519653,148.982162 305.177856,156.366791 304.421326,163.811340 
	C304.285339,165.149750 306.522949,166.729340 307.472595,167.950546 
	C307.315674,170.014252 306.819672,172.368332 307.023163,174.660324 
	C307.583679,180.973526 308.437073,187.260727 309.033020,193.900177 
	C298.848083,188.479691 288.780731,182.758575 278.767090,176.945007 
	C264.319641,168.557358 249.921188,168.591644 235.522552,177.017197 
	C232.229980,178.943893 228.954056,180.899033 225.324371,182.888062 
	C225.652618,169.831741 226.354416,156.729706 226.980438,143.624069 
	C227.122406,140.651688 227.001328,137.666748 227.001328,134.021271 
	C231.716843,132.612625 231.078583,129.812103 228.931473,125.072411 
	C227.074905,120.974075 228.042664,115.667076 227.271652,110.974922 
	C226.912140,108.787056 225.392822,106.789772 224.213806,104.317261 
	C225.174042,103.876846 226.108963,103.264694 227.132309,103.014992 
	C229.639542,102.403229 230.272400,101.344521 229.255783,98.724060 
	C226.669083,92.056374 227.598511,88.951981 231.725449,85.761055 
	C231.106247,79.269348 230.727570,73.437126 229.952576,67.658043 
	C229.038559,60.842163 227.738388,54.078873 226.699142,47.278492 
	C226.378891,45.182896 226.195648,43.035690 226.255844,40.920826 
	C226.322495,38.579041 226.739990,36.247246 227.006958,33.531799 
	C239.940033,29.440189 252.773712,25.332695 265.828308,22.124125 
	C279.521667,18.758566 293.426849,16.255056 307.625427,13.273114 
z"/>
<path fill="#0F507E" opacity="1.000000" stroke="none" 
	d="
M1932.908936,437.055664 
	C1924.065918,433.662201 1915.205200,430.313477 1906.395996,426.834564 
	C1904.785889,426.198730 1903.385376,425.032806 1901.085938,423.618042 
	C1901.085938,440.730927 1901.085938,457.075073 1901.085938,473.703491 
	C1881.556274,473.703491 1862.657104,473.703491 1843.379150,473.703491 
	C1843.379150,421.948151 1843.379150,370.288483 1843.379150,318.313416 
	C1862.417358,318.313416 1881.316528,318.313416 1900.698486,318.313416 
	C1900.698486,323.255493 1900.698486,328.169586 1900.698486,333.800659 
	C1905.140869,331.212708 1908.718994,328.495392 1912.743530,326.915680 
	C1921.093262,323.638245 1929.679810,320.964691 1938.576416,318.474762 
	C1936.500000,322.916656 1937.160278,327.088440 1938.649414,331.138794 
	C1940.454956,336.049927 1941.520508,340.874878 1938.603638,345.906860 
	C1926.911987,348.123627 1916.359619,351.591736 1907.786255,359.966064 
	C1899.648804,367.914795 1898.117065,383.288757 1904.915894,392.487854 
	C1911.527100,401.432983 1920.707031,406.109406 1931.003784,409.544250 
	C1931.893433,415.456604 1933.069702,420.957611 1933.567749,426.519348 
	C1933.878174,429.983978 1933.163574,433.540405 1932.908936,437.055664 
z"/>
<path fill="#0B4B78" opacity="1.000000" stroke="none" 
	d="
M1706.003662,389.844055 
	C1691.198364,389.844055 1676.393066,389.844055 1660.696655,389.844055 
	C1663.552490,397.082153 1668.033203,401.884430 1673.874023,405.361847 
	C1682.591797,410.552094 1692.481201,412.136139 1702.308960,412.868744 
	C1720.454590,414.221405 1737.762817,410.582916 1754.183228,402.553558 
	C1756.095825,401.618347 1759.266968,401.793549 1761.257324,402.727325 
	C1771.232666,407.407318 1781.008911,412.511292 1792.304443,418.195557 
	C1785.768677,422.046631 1780.418213,426.206451 1774.364136,428.542297 
	C1763.966064,432.554077 1753.335327,436.914276 1742.427368,438.428497 
	C1726.301880,440.666992 1709.992188,442.018585 1693.471802,440.328491 
	C1680.629883,439.014679 1667.912231,437.520569 1655.585815,433.850342 
	C1641.262329,429.585541 1628.129883,422.928314 1617.155884,412.454193 
	C1610.437866,406.042145 1605.377197,398.509766 1603.828613,389.416412 
	C1601.115845,373.487671 1603.597656,359.051514 1615.528320,346.517670 
	C1630.850098,330.421173 1650.158447,322.535736 1670.988770,318.509430 
	C1684.020752,315.990479 1697.686646,316.751495 1711.480469,316.466644 
	C1710.104858,320.977722 1707.843140,325.099884 1711.955078,327.701935 
	C1710.520020,333.564941 1709.261963,338.705048 1707.539307,343.903931 
	C1697.408813,343.595947 1687.821045,344.066376 1678.866943,348.151917 
	C1669.833008,352.273895 1663.025146,358.569855 1660.112427,369.156006 
	C1675.388916,369.156006 1690.199097,369.156006 1705.052734,369.440430 
	C1706.049927,369.534515 1707.003540,369.344177 1708.218872,369.118225 
	C1708.654785,369.106506 1708.829224,369.130493 1709.158569,369.447784 
	C1710.176758,371.273956 1711.040161,372.806793 1711.939941,374.404114 
	C1710.463867,376.023987 1709.183838,377.428711 1707.936890,378.797150 
	C1706.169434,377.305267 1704.697632,376.062927 1702.865723,374.516571 
	C1701.965576,380.150879 1702.636475,381.360443 1707.719482,384.286011 
	C1707.329956,385.167419 1706.849854,386.036438 1706.562866,386.965179 
	C1706.275757,387.893677 1706.182007,388.881958 1706.003662,389.844055 
M1707.017822,330.313263 
	C1707.593506,329.783569 1708.169189,329.253876 1708.744873,328.724121 
	C1708.147461,328.296295 1707.549927,327.868469 1706.952515,327.440643 
	C1706.819214,328.238708 1706.685913,329.036774 1707.017822,330.313263 
z"/>
<path fill="#135584" opacity="1.000000" stroke="none" 
	d="
M2187.001953,389.837463 
	C2173.347656,389.837463 2159.693359,389.837463 2145.705078,389.837463 
	C2146.169189,397.012970 2151.451904,400.450134 2155.950928,403.869812 
	C2163.188965,409.371429 2172.041992,410.748138 2180.897705,412.099426 
	C2194.741943,414.211945 2208.237061,412.863647 2221.501953,408.944946 
	C2227.145752,407.277649 2232.429688,404.415100 2238.043945,402.615540 
	C2240.424561,401.852417 2243.664795,401.530090 2245.775146,402.544708 
	C2255.651855,407.293152 2265.270996,412.577240 2275.536865,417.960754 
	C2266.035156,425.802063 2255.612549,430.387054 2244.657471,433.943787 
	C2224.565674,440.466858 2203.762451,441.859741 2182.955322,440.746399 
	C2169.748779,440.039764 2156.486816,437.635193 2143.603760,434.524902 
	C2134.000732,432.206543 2124.309570,428.652161 2115.828857,423.658722 
	C2102.717041,415.938568 2091.070068,405.683929 2087.737549,389.932190 
	C2084.586914,375.040344 2087.248291,360.948120 2097.637207,348.745636 
	C2112.917725,330.797577 2133.530273,323.146057 2155.469971,318.242401 
	C2163.125977,316.531219 2171.207031,316.720490 2179.548828,316.486755 
	C2180.313721,318.192444 2180.212646,319.883667 2181.004639,320.640259 
	C2184.633057,324.106964 2184.000977,329.133881 2185.944092,333.202362 
	C2187.574219,336.615082 2188.669922,340.283020 2189.540039,343.899658 
	C2183.818359,344.309204 2178.451660,344.108582 2173.320068,345.111176 
	C2159.724609,347.767395 2148.928955,354.274933 2143.821045,369.161346 
	C2161.277832,369.161346 2178.139893,369.161346 2195.049561,369.515411 
	C2195.848145,371.703033 2195.931641,372.897980 2193.280029,373.067871 
	C2190.582764,373.240692 2187.922607,373.995239 2183.706787,374.782501 
	C2186.279541,377.407837 2187.941162,379.103455 2189.043457,380.228424 
	C2188.302979,383.713837 2187.652344,386.775635 2187.001953,389.837463 
z"/>
<path fill="#013C65" opacity="1.000000" stroke="none" 
	d="
M1205.970825,375.094421 
	C1203.637939,372.923126 1201.605591,372.538849 1198.546509,374.557922 
	C1190.543701,379.839752 1182.108643,384.463928 1174.048096,389.663635 
	C1172.815796,390.458466 1172.107544,392.912109 1172.089355,394.608612 
	C1171.936768,408.760437 1172.002686,422.914581 1172.002686,437.534119 
	C1152.379761,437.534119 1133.030273,437.534119 1113.341064,437.534119 
	C1113.341064,385.904083 1113.341064,334.346130 1113.341064,282.392731 
	C1132.656860,282.392731 1151.890747,282.392731 1171.670166,282.392731 
	C1171.670166,304.213440 1171.670166,326.112823 1171.670166,349.348267 
	C1181.836426,342.835632 1191.023926,336.950012 1200.867188,331.240906 
	C1202.015259,333.291321 1202.611450,335.145447 1202.973145,337.044220 
	C1203.400146,339.286255 1202.951782,342.000336 1204.074219,343.742126 
	C1206.541138,347.569885 1207.091553,350.377747 1202.522095,351.784119 
	C1203.408325,354.420135 1205.374756,357.275085 1204.626221,358.628693 
	C1202.724121,362.068115 1203.612793,364.665405 1204.870239,367.817841 
	C1205.755249,370.036682 1205.639648,372.654663 1205.970825,375.094421 
z"/>
<path fill="#033F69" opacity="1.000000" stroke="none" 
	d="
M1206.129150,375.387634 
	C1205.639648,372.654663 1205.755249,370.036682 1204.870239,367.817841 
	C1203.612793,364.665405 1202.724121,362.068115 1204.626221,358.628693 
	C1205.374756,357.275085 1203.408325,354.420135 1202.522095,351.784119 
	C1207.091553,350.377747 1206.541138,347.569885 1204.074219,343.742126 
	C1202.951782,342.000336 1203.400146,339.286255 1202.973145,337.044220 
	C1202.611450,335.145447 1202.015259,333.291321 1201.211914,331.177887 
	C1213.145996,323.172607 1225.423584,315.457458 1237.627197,307.626984 
	C1250.124634,299.607971 1262.534790,291.453064 1275.030518,283.431274 
	C1276.196899,282.682495 1277.702026,282.063171 1279.052368,282.058258 
	C1301.375000,281.977142 1323.697998,282.002075 1346.020996,282.023529 
	C1346.428711,282.023926 1346.836182,282.271759 1348.086792,282.677948 
	C1312.659180,304.660797 1277.842041,326.264801 1242.531982,348.174744 
	C1279.972900,378.199432 1316.691772,407.645020 1354.267822,437.778046 
	C1352.213745,437.892181 1351.160889,438.001282 1350.108154,438.001678 
	C1329.117798,438.009338 1308.126587,438.098999 1287.138550,437.877441 
	C1284.635620,437.851013 1281.731201,436.652557 1279.724609,435.085815 
	C1264.649292,423.314453 1249.696289,411.384186 1234.820312,399.360809 
	C1225.208496,391.592224 1215.791626,383.582489 1206.129150,375.387634 
z"/>
<path fill="#0F507E" opacity="1.000000" stroke="none" 
	d="
M1947.991333,180.112900 
	C1947.991333,180.112900 1947.766724,180.275635 1947.229736,180.173676 
	C1942.988770,179.789093 1940.786987,181.490692 1940.036865,185.110016 
	C1936.798706,186.898651 1935.793945,189.525604 1935.902832,193.283646 
	C1936.191895,203.248749 1936.000854,213.227753 1936.000854,223.599609 
	C1916.314209,223.599609 1896.960571,223.599609 1877.290283,223.599609 
	C1877.290283,169.583511 1877.290283,115.701286 1877.290283,61.408318 
	C1896.652222,61.408318 1916.007324,61.408318 1935.979248,61.408318 
	C1935.979248,89.507683 1935.979248,117.522530 1935.979248,146.335861 
	C1938.265503,144.995560 1939.757812,144.120667 1941.883667,143.243515 
	C1944.549072,144.136459 1946.580933,145.031677 1949.260010,146.212067 
	C1944.260010,152.250839 1947.198242,159.072403 1947.427612,165.725159 
	C1947.592773,170.521851 1947.801758,175.317047 1947.991333,180.112900 
z"/>
<path fill="#175A89" opacity="1.000000" stroke="none" 
	d="
M2327.000977,416.999878 
	C2327.000977,383.879059 2327.000977,351.258240 2327.000977,318.319824 
	C2346.390869,318.319824 2365.305176,318.319824 2384.694336,318.319824 
	C2384.694336,325.225616 2384.694336,332.147491 2384.694336,340.607574 
	C2401.965332,319.835083 2423.856445,314.691895 2448.593018,316.197235 
	C2448.593018,327.976685 2448.593018,339.678650 2448.593018,351.415710 
	C2440.023193,352.286499 2431.437500,352.656006 2423.047607,354.137054 
	C2412.249512,356.043274 2402.034424,359.955780 2394.223389,368.044983 
	C2389.223389,373.223053 2386.300781,379.781311 2386.051025,387.088959 
	C2385.546143,401.854584 2385.328125,416.630096 2385.005615,431.401825 
	C2384.962646,433.369812 2385.000000,435.339569 2385.000000,437.652618 
	C2365.675293,437.652618 2346.760498,437.652618 2327.000977,437.652618 
	C2327.000977,431.001801 2327.000977,424.250824 2327.000977,416.999878 
z"/>
<path fill="#105281" opacity="1.000000" stroke="none" 
	d="
M1933.154297,437.361084 
	C1933.163574,433.540405 1933.878174,429.983978 1933.567749,426.519348 
	C1933.069702,420.957611 1931.893433,415.456604 1931.415405,409.491913 
	C1940.923828,411.138977 1950.014404,411.565094 1959.313599,410.085236 
	C1971.327393,408.173431 1982.387085,404.496490 1990.487915,394.921112 
	C1996.620483,387.672272 1999.069824,379.412048 1995.543091,370.058929 
	C1990.763062,357.382324 1980.255249,351.595856 1968.262573,348.116425 
	C1958.760620,345.359589 1948.932617,344.330139 1939.004028,345.842468 
	C1941.520508,340.874878 1940.454956,336.049927 1938.649414,331.138794 
	C1937.160278,327.088440 1936.500000,322.916656 1938.993896,318.533325 
	C1943.038208,317.442383 1947.052979,316.254547 1951.109985,316.086670 
	C1971.170166,315.256470 1991.244141,316.003540 2010.156250,323.269409 
	C2028.451294,330.298248 2044.669189,340.627563 2052.402100,360.018890 
	C2055.925781,368.855072 2056.508301,378.188446 2054.666992,387.587280 
	C2050.607910,408.305969 2036.787598,420.829254 2018.608154,428.980957 
	C2009.683472,432.982880 2000.073242,435.673218 1990.544189,438.032043 
	C1984.391235,439.555176 1977.824829,439.869568 1971.440552,439.893860 
	C1960.511353,439.935486 1949.577637,439.376465 1938.651123,438.936676 
	C1936.886353,438.865662 1935.149414,438.107208 1933.154297,437.361084 
z"/>
<path fill="#0D4D7B" opacity="1.000000" stroke="none" 
	d="
M1718.010376,102.156960 
	C1739.435059,101.339798 1760.491211,103.014160 1781.165283,109.442360 
	C1797.485474,114.516800 1812.268677,121.692223 1824.508545,133.905441 
	C1835.667236,145.039703 1839.447632,158.650604 1836.682129,173.457031 
	C1834.334351,186.026001 1825.690918,195.263824 1815.506470,202.752960 
	C1798.100220,215.552750 1778.138062,222.032578 1757.068237,224.840088 
	C1744.816528,226.472595 1732.325317,226.308228 1719.535889,226.501251 
	C1719.085327,221.661804 1720.306519,216.728378 1718.705322,213.010422 
	C1716.176392,207.137909 1714.594360,201.913239 1718.424805,196.090790 
	C1720.617188,196.392029 1722.400513,197.005798 1724.161743,196.947998 
	C1729.598633,196.769531 1735.035645,196.437302 1740.457031,195.979095 
	C1753.012695,194.917862 1764.240356,190.770493 1773.089966,181.402451 
	C1780.133545,173.946533 1781.864136,160.885422 1777.026367,153.536102 
	C1770.506348,143.631516 1760.908203,138.421219 1749.946655,134.940475 
	C1739.148071,131.511536 1728.053955,132.101944 1717.001221,131.428253 
	C1713.559570,123.824135 1720.777344,117.587173 1718.871582,110.128532 
	C1718.343262,108.060501 1719.258545,104.796326 1718.010376,102.156960 
z"/>
<path fill="#084672" opacity="1.000000" stroke="none" 
	d="
M1474.007324,102.148911 
	C1499.836060,100.825699 1524.873413,104.975006 1548.418579,115.410538 
	C1564.385010,122.487068 1578.623413,132.700317 1585.336426,149.936508 
	C1590.002930,161.917984 1589.225708,174.091476 1582.239380,185.079376 
	C1571.098022,202.601471 1553.998413,211.763260 1534.851562,218.249893 
	C1515.667236,224.749252 1496.101196,227.608780 1475.469971,226.451279 
	C1474.930786,217.565994 1475.467285,209.128510 1472.233154,201.074829 
	C1471.770264,199.922333 1472.060547,198.467331 1472.467041,197.097900 
	C1478.706543,196.711456 1484.478638,196.320129 1490.256714,196.059280 
	C1503.545288,195.459381 1514.675781,190.163467 1524.091309,180.889297 
	C1529.117798,175.938400 1531.342407,164.574692 1529.018799,157.813736 
	C1525.078125,146.346970 1515.938232,140.942841 1505.590576,136.848419 
	C1495.455322,132.838104 1484.832886,131.628952 1474.003418,131.439392 
	C1473.755127,121.400291 1477.113525,111.775261 1474.007324,102.148911 
z"/>
<path fill="#06436F" opacity="1.000000" stroke="none" 
	d="
M1475.005249,389.849762 
	C1460.277710,389.849762 1445.550049,389.849762 1430.302002,389.849762 
	C1434.729004,401.749878 1443.892090,406.697144 1454.452026,409.945007 
	C1455.703613,410.329956 1456.977905,410.640991 1458.629272,411.434784 
	C1463.282715,420.808014 1466.781372,429.894714 1464.973511,440.101562 
	C1444.838379,439.896851 1425.575317,435.510254 1407.473511,426.867340 
	C1395.616943,421.206268 1385.249268,413.302887 1378.258179,401.767242 
	C1372.752075,392.682098 1371.278076,382.975952 1372.648315,372.363953 
	C1375.048828,353.772675 1386.984009,342.697357 1401.476807,333.171844 
	C1413.555176,325.233368 1427.216309,321.414825 1440.984375,318.321045 
	C1449.113281,316.494476 1457.705933,316.732178 1466.556641,316.482971 
	C1469.683838,325.900116 1472.344604,334.875793 1474.542236,343.907715 
	C1465.195190,343.452423 1456.502075,344.496735 1448.336792,348.089508 
	C1439.137817,352.137115 1432.491577,358.671600 1429.568970,369.148285 
	C1442.712280,369.148285 1455.358765,369.148285 1468.012695,369.503601 
	C1472.151245,375.892639 1473.373169,382.942871 1475.005249,389.849762 
z"/>
<path fill="#06436F" opacity="1.000000" stroke="none" 
	d="
M1473.544922,102.092239 
	C1477.113525,111.775261 1473.755127,121.400291 1473.563232,131.495514 
	C1459.743408,132.778564 1446.949707,135.616440 1436.368164,144.398453 
	C1426.372559,152.694183 1421.976562,165.542480 1431.318115,177.928757 
	C1439.843750,189.233368 1451.927002,193.251862 1464.867920,195.976120 
	C1467.224243,196.472153 1469.623047,196.765442 1472.002319,197.152313 
	C1472.060547,198.467331 1471.770264,199.922333 1472.233154,201.074829 
	C1475.467285,209.128510 1474.930786,217.565994 1475.004395,226.400116 
	C1460.512695,227.533401 1446.227783,225.945862 1432.429199,221.591309 
	C1421.787109,218.232925 1411.032349,214.741409 1401.087402,209.784866 
	C1387.788208,203.156631 1377.244995,193.142639 1371.023560,179.150375 
	C1365.751831,167.294464 1370.119141,147.462067 1379.373291,136.941269 
	C1392.694946,121.795815 1409.932617,113.754959 1428.640991,108.327461 
	C1443.095093,104.134163 1457.939087,101.801697 1473.544922,102.092239 
z"/>
<path fill="#105281" opacity="1.000000" stroke="none" 
	d="
M1948.341675,180.045258 
	C1947.801758,175.317047 1947.592773,170.521851 1947.427612,165.725159 
	C1947.198242,159.072403 1944.260010,152.250839 1949.260010,146.212067 
	C1946.580933,145.031677 1944.549072,144.136459 1942.182007,143.058105 
	C1960.165649,130.933289 1978.440186,118.922379 1996.855225,107.131203 
	C1999.363403,105.525131 2002.564575,104.170197 2005.461792,104.135864 
	C2026.603760,103.885292 2047.749878,104.000488 2068.894775,104.015427 
	C2069.333984,104.015739 2069.772949,104.198982 2071.615723,104.609795 
	C2045.571533,120.599342 2020.475098,136.007080 1995.059937,151.610443 
	C2021.386230,175.630081 2047.440430,199.401428 2074.406738,224.005188 
	C2071.980225,224.005188 2070.737061,224.005280 2069.494141,224.005173 
	C2049.847900,224.003616 2030.200806,224.071747 2010.556030,223.892639 
	C2008.589478,223.874710 2006.222290,222.811035 2004.741211,221.463257 
	C1988.861206,207.013199 1973.160156,192.366364 1957.255615,177.943924 
	C1956.246582,177.029099 1953.870605,177.145142 1952.285156,177.490509 
	C1950.969238,177.777100 1949.880981,179.108856 1948.341675,180.045258 
z"/>
<path fill="#0B4B78" opacity="1.000000" stroke="none" 
	d="
M1718.005493,196.096130 
	C1714.594360,201.913239 1716.176392,207.137909 1718.705322,213.010422 
	C1720.306519,216.728378 1719.085327,221.661804 1719.070923,226.446777 
	C1706.466797,225.120499 1693.785522,224.058975 1681.409180,221.515060 
	C1664.094727,217.956238 1648.088745,210.842133 1634.859253,198.851013 
	C1618.124756,183.682968 1612.566162,164.039337 1623.969849,143.765381 
	C1629.639404,133.685638 1638.674194,126.624565 1648.599731,120.685135 
	C1661.391724,113.030380 1675.403320,108.702278 1689.726929,105.374695 
	C1697.069702,103.668884 1704.689697,103.156555 1712.653687,102.441147 
	C1714.400269,102.569839 1715.677490,102.362259 1716.954712,102.154671 
	C1717.130615,102.130600 1717.306641,102.106522 1717.746460,102.119705 
	C1719.258545,104.796326 1718.343262,108.060501 1718.871582,110.128532 
	C1720.777344,117.587173 1713.559570,123.824135 1716.654053,131.622177 
	C1705.632324,134.723282 1694.951904,136.792816 1686.024536,144.186874 
	C1675.641846,152.786194 1672.056152,166.859680 1680.583984,177.915970 
	C1689.903198,189.997787 1703.127197,194.976669 1718.005493,196.096130 
z"/>
<path fill="#09416A" opacity="1.000000" stroke="none" 
	d="
M833.993042,177.571198 
	C828.916748,180.667023 823.833313,183.441772 818.698120,186.117432 
	C810.031128,190.633362 801.411072,195.250687 792.620850,199.515213 
	C785.328735,203.052872 777.819885,206.143921 770.197754,209.701294 
	C764.673096,212.309738 759.281250,214.491470 754.055481,217.016724 
	C729.476257,228.894089 704.945435,240.871552 680.390564,252.799530 
	C674.408813,255.705292 668.401733,258.559052 662.197632,261.706238 
	C658.463440,263.414001 654.849060,264.668091 651.426880,266.320190 
	C627.922302,277.667236 604.468140,289.118408 580.976929,300.493286 
	C566.473022,307.516388 551.932495,314.463959 537.201355,321.716644 
	C531.991943,324.161591 526.923767,326.196716 521.999146,328.534332 
	C505.672424,336.284180 489.404083,344.156952 473.088440,351.930359 
	C471.930145,352.482239 470.570068,352.610535 468.881073,352.918762 
	C486.159729,342.424438 503.829346,331.892944 521.568359,321.479614 
	C581.566345,286.258850 641.585693,251.074356 701.603455,215.887100 
	C738.418701,194.303009 775.241455,172.731628 812.087646,151.200317 
	C813.283691,150.501404 814.773193,150.304688 816.516968,149.915588 
	C821.771362,157.287247 826.676086,164.590302 831.465393,171.968292 
	C832.509460,173.576645 833.141052,175.452774 833.993042,177.571198 
z"/>
<path fill="#135584" opacity="1.000000" stroke="none" 
	d="
M607.333374,140.911530 
	C606.871399,136.151932 606.653137,131.329422 606.686035,126.508629 
	C606.697327,124.848892 607.426697,123.206627 607.668030,121.533295 
	C608.194580,117.882187 607.624146,113.655281 609.303040,110.679970 
	C612.269287,105.423325 609.064026,101.628662 608.318909,97.018631 
	C606.506714,85.806503 605.612671,74.367355 605.440491,63.003109 
	C605.358765,57.603992 607.714966,52.153061 609.068054,46.750969 
	C610.691895,40.267754 611.657715,33.852844 608.031372,27.280586 
	C619.492126,30.304300 631.162720,33.134922 642.353455,37.265484 
	C660.834167,44.086845 679.108582,51.502487 697.257751,59.169998 
	C704.945557,62.417892 712.095886,66.937782 719.827637,71.018799 
	C718.667664,72.379120 717.288513,73.792625 715.656189,74.792938 
	C679.679565,96.839310 643.674866,118.839943 607.333374,140.911530 
z"/>
<path fill="#084672" opacity="1.000000" stroke="none" 
	d="
M1475.470947,389.903442 
	C1473.373169,382.942871 1472.151245,375.892639 1468.478516,369.450439 
	C1483.819946,369.041901 1498.702881,369.041901 1514.572388,369.041901 
	C1512.404663,364.891998 1511.178833,361.421570 1509.042725,358.653564 
	C1500.468750,347.543488 1488.254761,344.419556 1475.005371,343.851471 
	C1472.344604,334.875793 1469.683838,325.900116 1467.014526,316.537537 
	C1486.809692,315.365570 1506.332153,316.838959 1525.055298,323.937378 
	C1540.141846,329.657135 1553.664429,337.707489 1562.389404,351.852325 
	C1569.423584,363.256104 1572.753784,375.652588 1570.438599,389.957092 
	C1539.030640,389.957092 1507.483643,389.957092 1475.470947,389.903442 
z"/>
<path fill="#155786" opacity="1.000000" stroke="none" 
	d="
M2190.002197,343.837952 
	C2188.669922,340.283020 2187.574219,336.615082 2185.944092,333.202362 
	C2184.000977,329.133881 2184.633057,324.106964 2181.004639,320.640259 
	C2180.212646,319.883667 2180.313721,318.192444 2180.002686,316.547180 
	C2200.260254,315.414062 2220.221924,316.750641 2239.460693,323.962982 
	C2254.559326,329.623322 2267.727295,337.978027 2276.830811,351.504913 
	C2284.496826,362.895782 2286.618652,375.750427 2284.422607,389.957550 
	C2252.373047,389.957550 2220.152832,389.957550 2187.467285,389.897491 
	C2187.652344,386.775635 2188.302979,383.713837 2189.043457,380.228424 
	C2187.941162,379.103455 2186.279541,377.407837 2183.706787,374.782501 
	C2187.922607,373.995239 2190.582764,373.240692 2193.280029,373.067871 
	C2195.931641,372.897980 2195.848145,371.703033 2195.515137,369.455750 
	C2206.692871,369.042053 2217.452637,369.042053 2228.606689,369.042053 
	C2227.096436,362.219116 2223.364502,357.206390 2218.410156,353.220215 
	C2210.173340,346.593018 2200.417480,344.106506 2190.002197,343.837952 
z"/>
<path fill="#0C4D7A" opacity="1.000000" stroke="none" 
	d="
M1706.469238,389.900604 
	C1706.182007,388.881958 1706.275757,387.893677 1706.562866,386.965179 
	C1706.849854,386.036438 1707.329956,385.167419 1707.719482,384.286011 
	C1702.636475,381.360443 1701.965576,380.150879 1702.865723,374.516571 
	C1704.697632,376.062927 1706.169434,377.305267 1707.936890,378.797150 
	C1709.183838,377.428711 1710.463867,376.023987 1711.939941,374.404114 
	C1711.040161,372.806793 1710.176758,371.273956 1709.624268,369.391541 
	C1721.350098,369.041962 1732.764893,369.041962 1744.869629,369.041962 
	C1743.311768,365.733398 1742.360962,362.713165 1740.638550,360.227661 
	C1732.777588,348.884521 1721.105347,344.883972 1708.003906,343.845154 
	C1709.261963,338.705048 1710.520020,333.564941 1711.955078,327.701935 
	C1707.843140,325.099884 1710.104858,320.977722 1711.945923,316.524139 
	C1724.189941,316.635132 1736.211182,317.974762 1748.015015,321.420593 
	C1762.664062,325.697021 1775.942505,332.570618 1786.488770,343.423737 
	C1794.649292,351.821594 1800.229492,362.233215 1800.955200,374.430176 
	C1801.249390,379.372009 1801.003906,384.345978 1801.003906,389.957153 
	C1769.354980,389.957153 1738.144897,389.957153 1706.469238,389.900604 
z"/>
<path fill="#084672" opacity="1.000000" stroke="none" 
	d="
M1465.263062,440.405823 
	C1466.781372,429.894714 1463.282715,420.808014 1459.010864,411.516876 
	C1466.204346,411.767975 1473.397461,412.809021 1480.604492,412.915955 
	C1496.230103,413.147827 1510.961426,409.220612 1524.671021,401.776154 
	C1528.619019,399.632263 1530.916504,402.506165 1533.680298,403.880951 
	C1542.748535,408.391815 1551.723511,413.090759 1561.605103,418.164551 
	C1531.897827,438.754791 1499.290527,442.121277 1465.263062,440.405823 
z"/>
<path fill="#105281" opacity="1.000000" stroke="none" 
	d="
M1940.382080,185.047455 
	C1940.786987,181.490692 1942.988770,179.789093 1947.118164,180.091034 
	C1945.271729,181.735199 1942.999512,183.360046 1940.382080,185.047455 
z"/>
<path fill="#0D4D7B" opacity="1.000000" stroke="none" 
	d="
M1716.562866,102.099792 
	C1715.677490,102.362259 1714.400269,102.569839 1713.067383,102.467209 
	C1714.064819,102.119621 1715.117920,102.082268 1716.562866,102.099792 
z"/>
<path fill="#155786" opacity="1.000000" stroke="none" 
	d="
M653.268311,467.832611 
	C653.870300,467.135071 654.550476,466.771881 655.230652,466.408752 
	C655.377930,466.967896 655.525208,467.527008 655.672485,468.086151 
	C654.897156,468.113098 654.121887,468.140045 653.268311,467.832611 
z"/>
<path fill="#0D4E7C" opacity="1.000000" stroke="none" 
	d="
M392.619995,194.546021 
	C393.057556,194.659317 393.325592,194.935135 393.572998,195.228424 
	C393.579285,195.235886 393.358032,195.435226 393.242920,195.545074 
	C392.977875,195.266998 392.712830,194.988907 392.619995,194.546021 
z"/>
<path fill="#0D4E7C" opacity="1.000000" stroke="none" 
	d="
M511.035767,161.855789 
	C510.972534,160.794830 511.089050,160.016403 511.205566,159.237976 
	C511.765594,159.657822 512.325684,160.077667 512.885742,160.497528 
	C512.328979,161.044464 511.772247,161.591400 511.035767,161.855789 
z"/>
<path fill="#0D4E7C" opacity="1.000000" stroke="none" 
	d="
M513.410034,48.954742 
	C513.796265,48.719547 514.180237,48.721508 514.562134,48.751205 
	C514.572754,48.752033 514.560364,49.049641 514.558716,49.208858 
	C514.174988,49.204494 513.791321,49.200130 513.410034,48.954742 
z"/>
<path fill="#000000" opacity="1.000000" stroke="none" 
	d="
M1211.474365,193.113220 
	C1197.905396,193.166718 1184.801636,193.166718 1171.352051,193.166718 
	C1171.352051,181.947800 1171.352051,171.388428 1171.352051,159.967819 
	C1182.602783,159.967819 1193.838257,159.967819 1205.540527,159.914078 
	C1217.306885,159.905624 1228.637573,159.449585 1239.895996,160.152161 
	C1249.191650,160.732239 1258.511597,162.185287 1267.612549,164.194778 
	C1274.049927,165.616165 1279.495972,171.284912 1279.111938,176.646439 
	C1278.704224,182.340286 1276.487915,186.710449 1269.963867,188.733063 
	C1263.287720,190.802872 1256.269653,192.452347 1249.323730,192.820786 
	C1236.893188,193.480118 1224.404297,193.040176 1211.474365,193.113220 
z"/>
<path fill="#000000" opacity="1.000000" stroke="none" 
	d="
M1207.473022,130.099014 
	C1205.605469,130.123779 1204.202026,130.080856 1202.015625,130.016479 
	C1200.502441,130.029846 1199.772339,130.064651 1199.042114,130.099472 
	C1198.578735,130.081955 1198.115479,130.064423 1196.942383,130.020889 
	C1195.502319,130.029144 1194.771851,130.063400 1194.041382,130.097656 
	C1186.592041,130.097656 1179.142700,130.097656 1171.350586,130.097656 
	C1171.350586,119.609222 1171.350586,109.714668 1171.350586,98.958199 
	C1185.277222,98.958199 1199.175903,98.958199 1213.541260,98.901718 
	C1221.645752,98.895576 1229.330322,98.443314 1236.906982,99.149811 
	C1243.368164,99.752312 1249.929443,101.057182 1256.026978,103.229240 
	C1261.022705,105.008789 1265.269043,108.666649 1264.981201,115.019821 
	C1264.705200,121.111237 1260.267212,124.282097 1255.446167,125.798195 
	C1248.793457,127.890259 1241.775146,129.310440 1234.823730,129.838516 
	C1225.908081,130.515778 1216.903320,130.021088 1207.473022,130.099014 
z"/>
<path fill="#033F69" opacity="1.000000" stroke="none" 
	d="
M1199.227539,130.326752 
	C1199.772339,130.064651 1200.502441,130.029846 1201.594971,130.047501 
	C1201.109253,130.251312 1200.261108,130.402664 1199.227539,130.326752 
z"/>
<path fill="#033F69" opacity="1.000000" stroke="none" 
	d="
M1194.226562,130.325317 
	C1194.771851,130.063400 1195.502319,130.029144 1196.595337,130.047180 
	C1196.109253,130.250641 1195.260498,130.401794 1194.226562,130.325317 
z"/>
<path fill="#000000" opacity="1.000000" stroke="none" 
	d="
M1938.603638,345.906860 
	C1948.932617,344.330139 1958.760620,345.359589 1968.262573,348.116425 
	C1980.255249,351.595856 1990.763062,357.382324 1995.543091,370.058929 
	C1999.069824,379.412048 1996.620483,387.672272 1990.487915,394.921112 
	C1982.387085,404.496490 1971.327393,408.173431 1959.313599,410.085236 
	C1950.014404,411.565094 1940.923828,411.138977 1931.415527,409.106232 
	C1920.707031,406.109406 1911.527100,401.432983 1904.915894,392.487854 
	C1898.117065,383.288757 1899.648804,367.914795 1907.786255,359.966064 
	C1916.359619,351.591736 1926.911987,348.123627 1938.603638,345.906860 
z"/>
<path fill="#000000" opacity="1.000000" stroke="none" 
	d="
M1707.539307,343.903931 
	C1721.105347,344.883972 1732.777588,348.884521 1740.638550,360.227661 
	C1742.360962,362.713165 1743.311768,365.733398 1744.869629,369.041962 
	C1732.764893,369.041962 1721.350098,369.041962 1709.469482,369.098206 
	C1708.829224,369.130493 1708.654785,369.106506 1707.852539,369.063477 
	C1706.486084,369.081604 1705.747559,369.118805 1705.009155,369.156006 
	C1690.199097,369.156006 1675.388916,369.156006 1660.112427,369.156006 
	C1663.025146,358.569855 1669.833008,352.273895 1678.866943,348.151917 
	C1687.821045,344.066376 1697.408813,343.595947 1707.539307,343.903931 
z"/>
<path fill="#0C4D7A" opacity="1.000000" stroke="none" 
	d="
M1706.785156,330.074036 
	C1706.685913,329.036774 1706.819214,328.238708 1706.952515,327.440643 
	C1707.549927,327.868469 1708.147461,328.296295 1708.744873,328.724152 
	C1708.169189,329.253876 1707.593506,329.783569 1706.785156,330.074036 
z"/>
<path fill="#0C4D7A" opacity="1.000000" stroke="none" 
	d="
M1705.052734,369.440430 
	C1705.747559,369.118805 1706.486084,369.081604 1707.590820,369.099121 
	C1707.003540,369.344177 1706.049927,369.534515 1705.052734,369.440430 
z"/>
<path fill="#000000" opacity="1.000000" stroke="none" 
	d="
M2189.540039,343.899658 
	C2200.417480,344.106506 2210.173340,346.593018 2218.410156,353.220215 
	C2223.364502,357.206390 2227.096436,362.219116 2228.606689,369.042053 
	C2217.452637,369.042053 2206.692871,369.042053 2195.467773,369.101685 
	C2178.139893,369.161346 2161.277832,369.161346 2143.821045,369.161346 
	C2148.928955,354.274933 2159.724609,347.767395 2173.320068,345.111176 
	C2178.451660,344.108582 2183.818359,344.309204 2189.540039,343.899658 
z"/>
<path fill="#000000" opacity="1.000000" stroke="none" 
	d="
M1718.424805,196.090790 
	C1703.127197,194.976669 1689.903198,189.997787 1680.583984,177.915970 
	C1672.056152,166.859680 1675.641846,152.786194 1686.024536,144.186874 
	C1694.951904,136.792816 1705.632324,134.723282 1716.655151,132.034882 
	C1728.053955,132.101944 1739.148071,131.511536 1749.946655,134.940475 
	C1760.908203,138.421219 1770.506348,143.631516 1777.026367,153.536102 
	C1781.864136,160.885422 1780.133545,173.946533 1773.089966,181.402451 
	C1764.240356,190.770493 1753.012695,194.917862 1740.457031,195.979095 
	C1735.035645,196.437302 1729.598633,196.769531 1724.161743,196.947998 
	C1722.400513,197.005798 1720.617188,196.392029 1718.424805,196.090790 
z"/>
<path fill="#000000" opacity="1.000000" stroke="none" 
	d="
M1472.467041,197.097916 
	C1469.623047,196.765442 1467.224243,196.472153 1464.867920,195.976120 
	C1451.927002,193.251862 1439.843750,189.233368 1431.318115,177.928757 
	C1421.976562,165.542480 1426.372559,152.694183 1436.368164,144.398453 
	C1446.949707,135.616440 1459.743408,132.778564 1473.565186,131.908844 
	C1484.832886,131.628952 1495.455322,132.838104 1505.590576,136.848419 
	C1515.938232,140.942841 1525.078125,146.346970 1529.018799,157.813736 
	C1531.342407,164.574692 1529.117798,175.938400 1524.091309,180.889297 
	C1514.675781,190.163467 1503.545288,195.459381 1490.256714,196.059280 
	C1484.478638,196.320129 1478.706543,196.711456 1472.467041,197.097916 
z"/>
<path fill="#000000" opacity="1.000000" stroke="none" 
	d="
M1474.542236,343.907715 
	C1488.254761,344.419556 1500.468750,347.543488 1509.042725,358.653564 
	C1511.178833,361.421570 1512.404663,364.891998 1514.572388,369.041901 
	C1498.702881,369.041901 1483.819946,369.041901 1468.471191,369.095093 
	C1455.358765,369.148285 1442.712280,369.148285 1429.568970,369.148285 
	C1432.491577,358.671600 1439.137817,352.137115 1448.336792,348.089508 
	C1456.502075,344.496735 1465.195190,343.452423 1474.542236,343.907715 
z"/>
</svg>