<?xml version="1.0" encoding="UTF-8" standalone="no"?>
<svg
   xmlns:dc="http://purl.org/dc/elements/1.1/"
   xmlns:cc="http://creativecommons.org/ns#"
   xmlns:rdf="http://www.w3.org/1999/02/22-rdf-syntax-ns#"
   xmlns:svg="http://www.w3.org/2000/svg"
   xmlns="http://www.w3.org/2000/svg"
   id="svg13"
   xml:space="preserve"
   enable-background="new 0 0 200 200"
   viewBox="0 0 200 200"
   y="0px"
   x="0px"
   version="1.1"><metadata
     id="metadata17"><rdf:RDF><cc:Work
         rdf:about=""><dc:format>image/svg+xml</dc:format><dc:type
           rdf:resource="http://purl.org/dc/dcmitype/StillImage" /></cc:Work></rdf:RDF></metadata><rect
     id="rect2"
     fill="#192733"
     height="200"
     width="200" /><defs
     id="defs464827" /><linearGradient
     spreadMethod="pad"
     y2="30%"
     x2="-10%"
     y1="120%"
     x1="30%"
     id="3d_gradient2-logo-5b1c9e4e-390a-483f-ad85-80951c1c4ede"><stop
       id="stop464804"
       stop-opacity="1"
       stop-color="#ffffff"
       offset="0%" /><stop
       id="stop464806"
       stop-opacity="1"
       stop-color="#000000"
       offset="100%" /></linearGradient><linearGradient
     gradientTransform="rotate(-30)"
     spreadMethod="pad"
     y2="30%"
     x2="-10%"
     y1="120%"
     x1="30%"
     id="3d_gradient3-logo-5b1c9e4e-390a-483f-ad85-80951c1c4ede"><stop
       id="stop464809"
       stop-opacity="1"
       stop-color="#ffffff"
       offset="0%" /><stop
       id="stop464811"
       stop-opacity="1"
       stop-color="#cccccc"
       offset="50%" /><stop
       id="stop464813"
       stop-opacity="1"
       stop-color="#000000"
       offset="100%" /></linearGradient><path
     stroke-miterlimit="2"
     d="m 116.95542,43.153903 q 7.56937,0.454164 13.62488,3.784693 2.57359,1.36249 4.99581,3.633306 2.57357,2.270815 4.39023,5.601345 1.96806,3.179142 3.17914,7.569386 1.2111,4.390244 1.2111,10.142977 0,5.752734 -1.2111,10.142977 -1.21108,4.238857 -3.17914,7.569386 -1.81666,3.179142 -4.39023,5.449958 -2.42222,2.119428 -4.99581,3.481919 -6.05551,3.33053 -13.62488,3.78469 H 62.001662 v 52.53154 H 55.643378 V 97.956258 h 59.192602 q 6.50967,-0.302776 11.50548,-3.027755 2.11941,-1.059714 4.23884,-2.724979 2.11943,-1.816652 3.78469,-4.390244 1.66529,-2.573591 2.57359,-5.904121 1.05972,-3.481917 1.05972,-8.023549 0,-4.541631 -1.05972,-8.023549 -0.9083,-3.481917 -2.57359,-6.055508 -1.66526,-2.573592 -3.78469,-4.238857 -2.11943,-1.816652 -4.23884,-3.027754 -4.99581,-2.724979 -11.50548,-3.027754 H 55.643378 v -6.358285 z"
     style="font-style:normal;font-weight:300;font-size:72px;line-height:1;font-family:'Meedori Sans';font-variant-ligatures:none;text-align:center;text-anchor:middle;fill:#ad945e;stroke:#ad945e;stroke-width:6.30782175;stroke-linejoin:miter;stroke-miterlimit:2"
     id="path464890" /></svg>