<?xml version="1.0" standalone="no"?>
<!-- <!DOCTYPE svg PUBLIC "-//W3C//DTD SVG 20010904//EN"
 "http://www.w3.org/TR/2001/REC-SVG-20010904/DTD/svg10.dtd"> -->
<svg version="1.0" xmlns="http://www.w3.org/2000/svg"
 width="1095.000000pt" height="228.000000pt" viewBox="0 0 1095.000000 228.000000"
 preserveAspectRatio="xMidYMid meet">

<g transform="translate(0.000000,228.000000) scale(0.100000,-0.100000)"
fill="#000000" stroke="none">
<path d="M5791 1790 c-180 -65 -276 -234 -225 -396 28 -91 99 -156 258 -235
185 -92 220 -133 181 -206 -23 -43 -70 -63 -143 -63 -66 0 -123 20 -211 72
-34 21 -67 38 -72 38 -8 0 -119 -181 -119 -195 0 -27 180 -114 272 -131 233
-44 445 23 518 166 20 40 40 126 40 174 0 18 -7 55 -17 82 -22 65 -116 158
-204 200 -227 111 -240 118 -258 148 -24 38 -18 76 16 108 22 20 34 23 111 23
77 0 95 -4 153 -31 l66 -32 50 98 50 99 -58 31 c-125 67 -301 88 -408 50z"/>
<path d="M9255 1795 c-87 -25 -99 -29 -165 -65 -225 -122 -347 -372 -295 -606
34 -154 121 -276 265 -370 127 -83 284 -112 459 -83 100 16 221 66 221 92 0
16 -92 197 -100 197 -4 0 -34 -12 -66 -27 -52 -24 -71 -27 -159 -27 -88 1
-108 4 -162 29 -73 32 -139 98 -174 171 -32 68 -32 189 -1 255 32 68 96 135
155 163 117 55 247 55 362 0 28 -13 51 -19 53 -14 2 5 23 48 48 96 24 47 44
93 44 100 0 20 -84 59 -179 83 -99 25 -230 27 -306 6z"/>
<path d="M310 1235 l0 -555 320 0 321 0 -3 108 -3 107 -192 3 -193 2 0 445 0
445 -125 0 -125 0 0 -555z"/>
<path d="M1230 1235 l0 -555 125 0 125 0 0 555 0 555 -125 0 -125 0 0 -555z"/>
<path d="M1800 1235 l0 -555 120 0 120 0 2 218 3 217 180 5 180 5 3 107 3 108
-183 2 -183 3 0 110 0 110 198 3 197 2 0 110 0 110 -320 0 -320 0 0 -555z"/>
<path d="M2720 1235 l0 -555 315 0 315 0 0 104 c0 85 -3 105 -16 110 -9 3 -96
6 -195 6 l-179 0 0 110 0 110 183 2 182 3 3 107 3 108 -183 2 -183 3 -3 113
-3 112 196 0 195 0 0 110 0 110 -315 0 -315 0 0 -555z"/>
<path d="M3650 1235 l0 -555 315 0 315 0 0 110 0 110 -190 0 -190 0 0 110 c0
81 3 110 13 111 6 0 89 1 182 2 l170 2 3 108 3 107 -186 0 -185 0 0 115 0 115
190 0 190 0 0 110 0 110 -315 0 -315 0 0 -555z"/>
<path d="M4590 1235 l0 -555 315 0 315 0 0 110 0 110 -190 0 -190 0 0 445 0
445 -125 0 -125 0 0 -555z"/>
<path d="M6560 1235 l0 -555 125 0 125 0 0 204 0 204 123 4 c145 6 213 24 282
76 112 85 157 220 124 374 -13 61 -28 88 -78 141 -83 89 -159 106 -468 107
l-233 0 0 -555z m431 340 c52 -19 86 -55 95 -101 21 -113 -57 -183 -203 -184
l-73 0 0 150 0 150 69 0 c38 0 88 -7 112 -15z"/>
<path d="M7941 1768 c-65 -165 -382 -947 -426 -1051 l-16 -38 137 3 137 3 13
40 c7 22 23 69 37 105 l24 65 218 0 218 0 41 -107 41 -108 132 0 132 0 -23 57
c-13 32 -81 200 -151 373 -70 173 -136 338 -147 365 -11 28 -26 66 -33 85 -8
19 -31 78 -53 130 l-40 95 -116 3 c-113 3 -117 2 -125 -20z m179 -448 c5 -14
24 -64 43 -112 l35 -88 -129 0 c-71 0 -129 4 -129 8 0 5 11 35 24 68 12 32 40
104 61 159 l39 100 24 -55 c13 -30 28 -66 32 -80z"/>
<path d="M10000 1235 l0 -555 320 0 321 0 -3 108 -3 107 -192 3 -193 2 0 110
0 110 185 0 185 0 0 110 0 110 -182 2 -183 3 -3 113 -3 112 196 0 195 0 0 110
0 110 -320 0 -320 0 0 -555z"/>
</g>
</svg>
