<?xml version="1.0" standalone="no"?>
<!DOCTYPE svg PUBLIC "-//W3C//DTD SVG 20010904//EN"
 "http://www.w3.org/TR/2001/REC-SVG-20010904/DTD/svg10.dtd">
<svg version="1.0" xmlns="http://www.w3.org/2000/svg"
 width="816.000000pt" height="173.000000pt" viewBox="0 0 816.000000 173.000000"
 preserveAspectRatio="xMidYMid meet">

<g transform="translate(0.000000,173.000000) scale(0.100000,-0.100000)"
fill="#000000" stroke="none">
<path d="M697 1713 c-16 -26 -687 -1548 -687 -1558 0 -3 40 -5 88 -5 l88 0 16
33 c8 18 48 109 88 202 40 94 76 175 81 180 5 7 120 10 330 10 l322 -1 24 -54
c13 -30 54 -126 90 -212 l66 -158 94 0 c72 0 94 3 90 13 -3 6 -123 284 -267
617 -144 332 -284 658 -312 725 -52 124 -95 215 -103 215 -2 0 -6 -3 -8 -7z
m68 -520 c101 -240 185 -445 185 -454 0 -5 -115 -9 -256 -9 -201 0 -255 3
-251 13 3 6 61 141 129 299 68 158 126 287 129 288 4 0 32 -62 64 -137z"/>
<path d="M4390 925 l0 -785 85 0 85 0 0 580 c0 319 4 580 8 580 9 0 531 -539
952 -981 124 -130 228 -237 233 -238 4 -1 7 357 7 795 l0 797 -52 -7 c-29 -3
-68 -6 -85 -6 l-33 0 0 -581 c0 -335 -4 -579 -9 -577 -10 3 -344 347 -650 669
-319 334 -521 539 -531 539 -6 0 -10 -287 -10 -785z"/>
<path d="M3380 1675 c-194 -39 -369 -146 -481 -293 -60 -80 -121 -202 -145
-292 -23 -87 -23 -280 -1 -372 60 -243 249 -456 486 -547 340 -131 734 -5 914
291 59 97 97 250 97 387 0 48 0 48 -37 55 -50 8 -429 8 -526 0 l-77 -7 0 -73
0 -74 230 0 c181 0 230 -3 230 -13 0 -30 -32 -131 -56 -180 -41 -81 -147 -178
-246 -226 -172 -82 -325 -80 -508 10 -114 56 -239 179 -294 289 -88 180 -86
364 5 549 81 164 259 307 425 341 85 18 266 8 337 -17 82 -31 184 -102 260
-182 l65 -69 63 57 63 58 -76 76 c-127 127 -264 202 -425 233 -90 17 -215 17
-303 -1z"/>
<path d="M1548 1663 l-48 -4 0 -760 0 -759 395 0 395 0 0 80 0 80 -310 0 -310
0 0 685 0 685 -37 -2 c-21 -1 -59 -3 -85 -5z"/>
<path d="M2430 906 l0 -766 54 0 c29 0 68 3 85 6 l31 7 0 753 0 754 -32 0
c-18 0 -57 3 -85 6 l-53 7 0 -767z"/>
<path d="M7010 903 l0 -766 233 6 c284 7 354 19 495 88 90 44 116 62 192 139
75 74 96 103 133 182 63 130 80 207 80 353 -1 144 -22 238 -84 365 -34 69 -58
102 -129 172 -141 140 -281 197 -537 218 -65 5 -178 10 -250 10 l-133 0 0
-767z m529 582 c184 -44 345 -197 408 -389 22 -68 26 -99 26 -191 0 -96 -3
-121 -29 -195 -69 -196 -213 -334 -405 -386 -46 -13 -105 -18 -214 -18 l-150
-1 -3 598 -2 597 152 0 c101 0 175 -5 217 -15z"/>
<path d="M5890 1580 l0 -60 470 0 470 0 0 60 0 60 -470 0 -470 0 0 -60z"/>
<path d="M5890 895 l0 -65 470 0 470 0 0 65 0 65 -470 0 -470 0 0 -65z"/>
<path d="M5890 205 l0 -65 470 0 470 0 0 65 0 65 -470 0 -470 0 0 -65z"/>
</g>
</svg>
