<?xml version="1.0" standalone="no"?>
<!DOCTYPE svg PUBLIC "-//W3C//DTD SVG 20010904//EN"
 "http://www.w3.org/TR/2001/REC-SVG-20010904/DTD/svg10.dtd">
<svg version="1.0" xmlns="http://www.w3.org/2000/svg"
 width="512.000000pt" height="512.000000pt" viewBox="0 0 512.000000 512.000000"
 preserveAspectRatio="xMidYMid meet">

<g transform="translate(0.000000,512.000000) scale(0.100000,-0.100000)"
fill="#000000" stroke="none">
<path d="M965 3828 c-3 -7 -4 -510 -3 -1118 l3 -1105 635 0 635 0 0 155 0 155
-477 3 -478 2 -2 958 -3 957 -153 3 c-116 2 -154 0 -157 -10z"/>
<path d="M2885 3828 c-3 -7 -4 -294 -3 -638 l3 -625 478 -3 477 -2 0 -320 0
-320 -477 -2 -478 -3 0 -155 0 -155 635 0 635 0 0 635 0 635 -477 3 -478 2 0
320 0 320 478 2 477 3 0 155 0 155 -633 3 c-501 2 -634 0 -637 -10z"/>
</g>
</svg>
