<svg xmlns="http://www.w3.org/2000/svg" xmlns:xlink="http://www.w3.org/1999/xlink" width="512" zoomAndPan="magnify" viewBox="0 0 384 383.999986" height="512" preserveAspectRatio="xMidYMid meet" version="1.0"><defs><g/><clipPath id="efe07f048d"><path d="M 95.824219 74 L 288.175781 74 L 288.175781 226.171875 L 95.824219 226.171875 Z M 95.824219 74 " clip-rule="nonzero"/></clipPath><clipPath id="b9926e8097"><path d="M 103 51.132812 L 251 51.132812 L 251 115 L 103 115 Z M 103 51.132812 " clip-rule="nonzero"/></clipPath><clipPath id="451069ce8f"><path d="M 138 150 L 214 150 L 214 200.304688 L 138 200.304688 Z M 138 150 " clip-rule="nonzero"/></clipPath><clipPath id="fa5ac4a603"><path d="M 138 178 L 214 178 L 214 200.304688 L 138 200.304688 Z M 138 178 " clip-rule="nonzero"/></clipPath><clipPath id="3cf16cc547"><path d="M 125.085938 112 L 176 112 L 176 146 L 125.085938 146 Z M 125.085938 112 " clip-rule="nonzero"/></clipPath></defs><rect x="-38.4" width="460.8" fill="#ffffff" y="-38.399999" height="460.799983" fill-opacity="1"/><rect x="-38.4" width="460.8" fill="#ffffff" y="-38.399999" height="460.799983" fill-opacity="1"/><rect x="-38.4" width="460.8" fill="#ffffff" y="-38.399999" height="460.799983" fill-opacity="1"/><g fill="#000000" fill-opacity="1"><g transform="translate(106.84014, 297.790427)"><g><path d="M 37.421875 0 L 31.515625 -15.171875 L 12.09375 -15.171875 L 6.25 0 L 0 0 L 19.15625 -49.234375 L 24.71875 -49.234375 L 43.8125 0 Z M 29.671875 -20.671875 L 24.171875 -35.5 C 24.035156 -35.863281 23.804688 -36.523438 23.484375 -37.484375 C 23.160156 -38.453125 22.847656 -39.453125 22.546875 -40.484375 C 22.253906 -41.515625 22.019531 -42.300781 21.84375 -42.84375 C 21.46875 -41.425781 21.085938 -40.039062 20.703125 -38.6875 C 20.316406 -37.34375 19.984375 -36.28125 19.703125 -35.5 L 14.140625 -20.671875 Z M 29.671875 -20.671875 "/></g></g></g><g fill="#000000" fill-opacity="1"><g transform="translate(149.349763, 297.790427)"><g><path d="M 18.125 -4.25 C 19.039062 -4.25 19.976562 -4.316406 20.9375 -4.453125 C 21.90625 -4.597656 22.6875 -4.785156 23.28125 -5.015625 L 23.28125 -0.40625 C 22.632812 -0.09375 21.71875 0.164062 20.53125 0.375 C 19.34375 0.582031 18.195312 0.6875 17.09375 0.6875 C 15.175781 0.6875 13.40625 0.351562 11.78125 -0.3125 C 10.15625 -0.976562 8.835938 -2.132812 7.828125 -3.78125 C 6.816406 -5.425781 6.3125 -7.738281 6.3125 -10.71875 L 6.3125 -32.140625 L 1.09375 -32.140625 L 1.09375 -35.015625 L 6.390625 -37.421875 L 8.796875 -45.25 L 12.359375 -45.25 L 12.359375 -36.8125 L 23 -36.8125 L 23 -32.140625 L 12.359375 -32.140625 L 12.359375 -10.84375 C 12.359375 -8.601562 12.894531 -6.941406 13.96875 -5.859375 C 15.050781 -4.785156 16.4375 -4.25 18.125 -4.25 Z M 18.125 -4.25 "/></g></g></g><g fill="#000000" fill-opacity="1"><g transform="translate(172.767775, 297.790427)"><g><path d="M 8.921875 -50.609375 C 9.835938 -50.609375 10.648438 -50.296875 11.359375 -49.671875 C 12.066406 -49.054688 12.421875 -48.085938 12.421875 -46.765625 C 12.421875 -45.441406 12.066406 -44.46875 11.359375 -43.84375 C 10.648438 -43.226562 9.835938 -42.921875 8.921875 -42.921875 C 7.921875 -42.921875 7.078125 -43.226562 6.390625 -43.84375 C 5.703125 -44.46875 5.359375 -45.441406 5.359375 -46.765625 C 5.359375 -48.085938 5.703125 -49.054688 6.390625 -49.671875 C 7.078125 -50.296875 7.921875 -50.609375 8.921875 -50.609375 Z M 11.875 -36.8125 L 11.875 0 L 5.84375 0 L 5.84375 -36.8125 Z M 11.875 -36.8125 "/></g></g></g><g fill="#000000" fill-opacity="1"><g transform="translate(189.112274, 297.790427)"><g><path d="M 23 -37.5 C 23.6875 -37.5 24.421875 -37.460938 25.203125 -37.390625 C 25.984375 -37.316406 26.691406 -37.210938 27.328125 -37.078125 L 26.578125 -31.515625 C 25.984375 -31.648438 25.316406 -31.765625 24.578125 -31.859375 C 23.847656 -31.953125 23.1875 -32 22.59375 -32 C 20.71875 -32 18.953125 -31.484375 17.296875 -30.453125 C 15.648438 -29.421875 14.332031 -27.976562 13.34375 -26.125 C 12.363281 -24.269531 11.875 -22.109375 11.875 -19.640625 L 11.875 0 L 5.84375 0 L 5.84375 -36.8125 L 10.78125 -36.8125 L 11.46875 -30.078125 L 11.75 -30.078125 C 12.882812 -32.085938 14.398438 -33.828125 16.296875 -35.296875 C 18.203125 -36.765625 20.4375 -37.5 23 -37.5 Z M 23 -37.5 "/></g></g></g><g fill="#000000" fill-opacity="1"><g transform="translate(216.101383, 297.790427)"><g><path d="M 8.921875 -50.609375 C 9.835938 -50.609375 10.648438 -50.296875 11.359375 -49.671875 C 12.066406 -49.054688 12.421875 -48.085938 12.421875 -46.765625 C 12.421875 -45.441406 12.066406 -44.46875 11.359375 -43.84375 C 10.648438 -43.226562 9.835938 -42.921875 8.921875 -42.921875 C 7.921875 -42.921875 7.078125 -43.226562 6.390625 -43.84375 C 5.703125 -44.46875 5.359375 -45.441406 5.359375 -46.765625 C 5.359375 -48.085938 5.703125 -49.054688 6.390625 -49.671875 C 7.078125 -50.296875 7.921875 -50.609375 8.921875 -50.609375 Z M 11.875 -36.8125 L 11.875 0 L 5.84375 0 L 5.84375 -36.8125 Z M 11.875 -36.8125 "/></g></g></g><g fill="#000000" fill-opacity="1"><g transform="translate(232.445888, 297.790427)"><g><path d="M 23 -37.5 C 23.6875 -37.5 24.421875 -37.460938 25.203125 -37.390625 C 25.984375 -37.316406 26.691406 -37.210938 27.328125 -37.078125 L 26.578125 -31.515625 C 25.984375 -31.648438 25.316406 -31.765625 24.578125 -31.859375 C 23.847656 -31.953125 23.1875 -32 22.59375 -32 C 20.71875 -32 18.953125 -31.484375 17.296875 -30.453125 C 15.648438 -29.421875 14.332031 -27.976562 13.34375 -26.125 C 12.363281 -24.269531 11.875 -22.109375 11.875 -19.640625 L 11.875 0 L 5.84375 0 L 5.84375 -36.8125 L 10.78125 -36.8125 L 11.46875 -30.078125 L 11.75 -30.078125 C 12.882812 -32.085938 14.398438 -33.828125 16.296875 -35.296875 C 18.203125 -36.765625 20.4375 -37.5 23 -37.5 Z M 23 -37.5 "/></g></g></g><g fill="#000000" fill-opacity="1"><g transform="translate(259.435005, 297.790427)"><g><path d="M 8.921875 -50.609375 C 9.835938 -50.609375 10.648438 -50.296875 11.359375 -49.671875 C 12.066406 -49.054688 12.421875 -48.085938 12.421875 -46.765625 C 12.421875 -45.441406 12.066406 -44.46875 11.359375 -43.84375 C 10.648438 -43.226562 9.835938 -42.921875 8.921875 -42.921875 C 7.921875 -42.921875 7.078125 -43.226562 6.390625 -43.84375 C 5.703125 -44.46875 5.359375 -45.441406 5.359375 -46.765625 C 5.359375 -48.085938 5.703125 -49.054688 6.390625 -49.671875 C 7.078125 -50.296875 7.921875 -50.609375 8.921875 -50.609375 Z M 11.875 -36.8125 L 11.875 0 L 5.84375 0 L 5.84375 -36.8125 Z M 11.875 -36.8125 "/></g></g></g><g fill="#ff6600" fill-opacity="1"><g transform="translate(111.607629, 330.573774)"><g><path d="M 0.765625 0 C 0.648438 0 0.59375 -0.0546875 0.59375 -0.171875 L 0.59375 -6.734375 C 0.59375 -6.847656 0.648438 -6.90625 0.765625 -6.90625 L 3.1875 -6.90625 C 3.675781 -6.90625 4.101562 -6.816406 4.46875 -6.640625 C 4.84375 -6.460938 5.132812 -6.21875 5.34375 -5.90625 C 5.550781 -5.59375 5.65625 -5.226562 5.65625 -4.8125 L 5.65625 -2.09375 C 5.65625 -1.675781 5.550781 -1.304688 5.34375 -0.984375 C 5.132812 -0.671875 4.84375 -0.425781 4.46875 -0.25 C 4.101562 -0.0820312 3.675781 0 3.1875 0 Z M 1.984375 -1.25 C 1.984375 -1.207031 2.003906 -1.1875 2.046875 -1.1875 L 3.234375 -1.1875 C 3.535156 -1.1875 3.78125 -1.285156 3.96875 -1.484375 C 4.15625 -1.691406 4.253906 -1.96875 4.265625 -2.3125 L 4.265625 -4.578125 C 4.265625 -4.921875 4.171875 -5.191406 3.984375 -5.390625 C 3.796875 -5.597656 3.539062 -5.703125 3.21875 -5.703125 L 2.046875 -5.703125 C 2.003906 -5.703125 1.984375 -5.6875 1.984375 -5.65625 Z M 1.984375 -1.25 "/></g></g></g><g fill="#ff6600" fill-opacity="1"><g transform="translate(122.142873, 330.573774)"><g><path d="M 0.765625 0 C 0.648438 0 0.59375 -0.0546875 0.59375 -0.171875 L 0.59375 -6.734375 C 0.59375 -6.847656 0.648438 -6.90625 0.765625 -6.90625 L 1.828125 -6.90625 C 1.929688 -6.90625 1.984375 -6.847656 1.984375 -6.734375 L 1.984375 -0.171875 C 1.984375 -0.0546875 1.929688 0 1.828125 0 Z M 0.765625 0 "/></g></g></g><g fill="#ff6600" fill-opacity="1"><g transform="translate(129.176225, 330.573774)"><g><path d="M 3.03125 0.078125 C 2.519531 0.078125 2.070312 -0.0195312 1.6875 -0.21875 C 1.300781 -0.425781 1 -0.710938 0.78125 -1.078125 C 0.570312 -1.441406 0.46875 -1.863281 0.46875 -2.34375 L 0.46875 -4.5625 C 0.46875 -5.039062 0.570312 -5.460938 0.78125 -5.828125 C 1 -6.191406 1.300781 -6.472656 1.6875 -6.671875 C 2.070312 -6.878906 2.519531 -6.984375 3.03125 -6.984375 C 3.53125 -6.984375 3.96875 -6.882812 4.34375 -6.6875 C 4.726562 -6.488281 5.03125 -6.21875 5.25 -5.875 C 5.46875 -5.539062 5.578125 -5.164062 5.578125 -4.75 L 5.578125 -4.734375 C 5.578125 -4.617188 5.519531 -4.5625 5.40625 -4.5625 L 4.34375 -4.5625 C 4.289062 -4.5625 4.25 -4.566406 4.21875 -4.578125 C 4.195312 -4.597656 4.1875 -4.617188 4.1875 -4.640625 L 4.1875 -4.71875 C 4.1875 -5.019531 4.078125 -5.269531 3.859375 -5.46875 C 3.648438 -5.675781 3.375 -5.78125 3.03125 -5.78125 C 2.675781 -5.78125 2.390625 -5.671875 2.171875 -5.453125 C 1.960938 -5.234375 1.859375 -4.945312 1.859375 -4.59375 L 1.859375 -2.3125 C 1.859375 -1.957031 1.972656 -1.664062 2.203125 -1.4375 C 2.429688 -1.21875 2.722656 -1.109375 3.078125 -1.109375 C 3.421875 -1.109375 3.691406 -1.195312 3.890625 -1.375 C 4.097656 -1.5625 4.203125 -1.816406 4.203125 -2.140625 L 4.203125 -2.578125 C 4.203125 -2.609375 4.179688 -2.625 4.140625 -2.625 L 3.09375 -2.625 C 2.976562 -2.625 2.921875 -2.679688 2.921875 -2.796875 L 2.921875 -3.609375 C 2.921875 -3.722656 2.976562 -3.78125 3.09375 -3.78125 L 5.40625 -3.78125 C 5.519531 -3.78125 5.578125 -3.722656 5.578125 -3.609375 L 5.578125 -2.359375 C 5.578125 -1.859375 5.46875 -1.421875 5.25 -1.046875 C 5.039062 -0.679688 4.742188 -0.398438 4.359375 -0.203125 C 3.972656 -0.015625 3.53125 0.078125 3.03125 0.078125 Z M 3.03125 0.078125 "/></g></g></g><g fill="#ff6600" fill-opacity="1"><g transform="translate(139.602968, 330.573774)"><g><path d="M 0.765625 0 C 0.648438 0 0.59375 -0.0546875 0.59375 -0.171875 L 0.59375 -6.734375 C 0.59375 -6.847656 0.648438 -6.90625 0.765625 -6.90625 L 1.828125 -6.90625 C 1.929688 -6.90625 1.984375 -6.847656 1.984375 -6.734375 L 1.984375 -0.171875 C 1.984375 -0.0546875 1.929688 0 1.828125 0 Z M 0.765625 0 "/></g></g></g><g fill="#ff6600" fill-opacity="1"><g transform="translate(146.636322, 330.573774)"><g><path d="M 5.3125 -6.90625 C 5.425781 -6.90625 5.484375 -6.847656 5.484375 -6.734375 L 5.484375 -5.859375 C 5.484375 -5.753906 5.425781 -5.703125 5.3125 -5.703125 L 3.609375 -5.703125 C 3.566406 -5.703125 3.546875 -5.679688 3.546875 -5.640625 L 3.546875 -0.171875 C 3.546875 -0.0546875 3.488281 0 3.375 0 L 2.328125 0 C 2.210938 0 2.15625 -0.0546875 2.15625 -0.171875 L 2.15625 -5.640625 C 2.15625 -5.679688 2.132812 -5.703125 2.09375 -5.703125 L 0.4375 -5.703125 C 0.332031 -5.703125 0.28125 -5.753906 0.28125 -5.859375 L 0.28125 -6.734375 C 0.28125 -6.847656 0.332031 -6.90625 0.4375 -6.90625 Z M 5.3125 -6.90625 "/></g></g></g><g fill="#ff6600" fill-opacity="1"><g transform="translate(156.846045, 330.573774)"><g><path d="M 5.03125 0 C 4.945312 0 4.882812 -0.046875 4.84375 -0.140625 L 4.578125 -1.0625 C 4.566406 -1.09375 4.546875 -1.109375 4.515625 -1.109375 L 2.09375 -1.109375 C 2.0625 -1.109375 2.046875 -1.09375 2.046875 -1.0625 L 1.765625 -0.140625 C 1.734375 -0.046875 1.671875 0 1.578125 0 L 0.4375 0 C 0.375 0 0.328125 -0.015625 0.296875 -0.046875 C 0.273438 -0.0859375 0.273438 -0.132812 0.296875 -0.1875 L 2.390625 -6.765625 C 2.421875 -6.859375 2.484375 -6.90625 2.578125 -6.90625 L 4.03125 -6.90625 C 4.125 -6.90625 4.1875 -6.859375 4.21875 -6.765625 L 6.3125 -0.1875 C 6.320312 -0.175781 6.328125 -0.15625 6.328125 -0.125 C 6.328125 -0.0820312 6.3125 -0.0507812 6.28125 -0.03125 C 6.257812 -0.0078125 6.226562 0 6.1875 0 Z M 2.390625 -2.25 C 2.378906 -2.195312 2.394531 -2.171875 2.4375 -2.171875 L 4.1875 -2.171875 C 4.21875 -2.171875 4.234375 -2.195312 4.234375 -2.25 L 3.34375 -5.25 C 3.332031 -5.28125 3.316406 -5.296875 3.296875 -5.296875 C 3.285156 -5.296875 3.273438 -5.28125 3.265625 -5.25 Z M 2.390625 -2.25 "/></g></g></g><g fill="#ff6600" fill-opacity="1"><g transform="translate(167.904119, 330.573774)"><g><path d="M 0.765625 0 C 0.648438 0 0.59375 -0.0546875 0.59375 -0.171875 L 0.59375 -6.734375 C 0.59375 -6.847656 0.648438 -6.90625 0.765625 -6.90625 L 1.828125 -6.90625 C 1.929688 -6.90625 1.984375 -6.847656 1.984375 -6.734375 L 1.984375 -1.25 C 1.984375 -1.207031 2.003906 -1.1875 2.046875 -1.1875 L 5.21875 -1.1875 C 5.332031 -1.1875 5.390625 -1.132812 5.390625 -1.03125 L 5.390625 -0.171875 C 5.390625 -0.0546875 5.332031 0 5.21875 0 Z M 0.765625 0 "/></g></g></g><g fill="#ff6600" fill-opacity="1"><g transform="translate(177.985599, 330.573774)"><g/></g></g><g fill="#ff6600" fill-opacity="1"><g transform="translate(184.397497, 330.573774)"><g><path d="M 0.78125 0 C 0.664062 0 0.609375 -0.0546875 0.609375 -0.171875 L 0.609375 -6.734375 C 0.609375 -6.847656 0.664062 -6.90625 0.78125 -6.90625 L 1.828125 -6.90625 C 1.921875 -6.90625 1.988281 -6.867188 2.03125 -6.796875 L 3.453125 -4.484375 C 3.472656 -4.460938 3.488281 -4.453125 3.5 -4.453125 C 3.519531 -4.453125 3.535156 -4.460938 3.546875 -4.484375 L 4.984375 -6.796875 C 5.035156 -6.867188 5.101562 -6.90625 5.1875 -6.90625 L 6.234375 -6.90625 C 6.347656 -6.90625 6.40625 -6.847656 6.40625 -6.734375 L 6.40625 -0.171875 C 6.40625 -0.0546875 6.347656 0 6.234375 0 L 5.1875 0 C 5.070312 0 5.015625 -0.0546875 5.015625 -0.171875 L 5.015625 -4.4375 C 5.015625 -4.457031 5.003906 -4.472656 4.984375 -4.484375 C 4.972656 -4.492188 4.960938 -4.484375 4.953125 -4.453125 L 3.953125 -2.828125 C 3.910156 -2.753906 3.84375 -2.71875 3.75 -2.71875 L 3.25 -2.71875 C 3.164062 -2.71875 3.101562 -2.753906 3.0625 -2.828125 L 2.078125 -4.453125 C 2.054688 -4.484375 2.035156 -4.492188 2.015625 -4.484375 C 2.003906 -4.472656 2 -4.457031 2 -4.4375 L 2 -0.171875 C 2 -0.0546875 1.941406 0 1.828125 0 Z M 0.78125 0 "/></g></g></g><g fill="#ff6600" fill-opacity="1"><g transform="translate(195.850145, 330.573774)"><g><path d="M 5.03125 0 C 4.945312 0 4.882812 -0.046875 4.84375 -0.140625 L 4.578125 -1.0625 C 4.566406 -1.09375 4.546875 -1.109375 4.515625 -1.109375 L 2.09375 -1.109375 C 2.0625 -1.109375 2.046875 -1.09375 2.046875 -1.0625 L 1.765625 -0.140625 C 1.734375 -0.046875 1.671875 0 1.578125 0 L 0.4375 0 C 0.375 0 0.328125 -0.015625 0.296875 -0.046875 C 0.273438 -0.0859375 0.273438 -0.132812 0.296875 -0.1875 L 2.390625 -6.765625 C 2.421875 -6.859375 2.484375 -6.90625 2.578125 -6.90625 L 4.03125 -6.90625 C 4.125 -6.90625 4.1875 -6.859375 4.21875 -6.765625 L 6.3125 -0.1875 C 6.320312 -0.175781 6.328125 -0.15625 6.328125 -0.125 C 6.328125 -0.0820312 6.3125 -0.0507812 6.28125 -0.03125 C 6.257812 -0.0078125 6.226562 0 6.1875 0 Z M 2.390625 -2.25 C 2.378906 -2.195312 2.394531 -2.171875 2.4375 -2.171875 L 4.1875 -2.171875 C 4.21875 -2.171875 4.234375 -2.195312 4.234375 -2.25 L 3.34375 -5.25 C 3.332031 -5.28125 3.316406 -5.296875 3.296875 -5.296875 C 3.285156 -5.296875 3.273438 -5.28125 3.265625 -5.25 Z M 2.390625 -2.25 "/></g></g></g><g fill="#ff6600" fill-opacity="1"><g transform="translate(206.908218, 330.573774)"><g><path d="M 4.421875 0 C 4.335938 0 4.273438 -0.0390625 4.234375 -0.125 L 3.015625 -2.8125 C 3.003906 -2.84375 2.984375 -2.859375 2.953125 -2.859375 L 2.046875 -2.859375 C 2.003906 -2.859375 1.984375 -2.835938 1.984375 -2.796875 L 1.984375 -0.171875 C 1.984375 -0.0546875 1.929688 0 1.828125 0 L 0.765625 0 C 0.648438 0 0.59375 -0.0546875 0.59375 -0.171875 L 0.59375 -6.75 C 0.59375 -6.851562 0.648438 -6.90625 0.765625 -6.90625 L 3.546875 -6.90625 C 3.960938 -6.90625 4.328125 -6.816406 4.640625 -6.640625 C 4.960938 -6.472656 5.210938 -6.226562 5.390625 -5.90625 C 5.566406 -5.59375 5.65625 -5.234375 5.65625 -4.828125 C 5.65625 -4.378906 5.539062 -3.992188 5.3125 -3.671875 C 5.09375 -3.347656 4.785156 -3.125 4.390625 -3 C 4.367188 -2.988281 4.351562 -2.972656 4.34375 -2.953125 C 4.34375 -2.941406 4.347656 -2.929688 4.359375 -2.921875 L 5.65625 -0.203125 C 5.675781 -0.171875 5.6875 -0.140625 5.6875 -0.109375 C 5.6875 -0.078125 5.671875 -0.0507812 5.640625 -0.03125 C 5.617188 -0.0078125 5.585938 0 5.546875 0 Z M 2.046875 -5.703125 C 2.003906 -5.703125 1.984375 -5.6875 1.984375 -5.65625 L 1.984375 -4 C 1.984375 -3.957031 2.003906 -3.9375 2.046875 -3.9375 L 3.328125 -3.9375 C 3.609375 -3.9375 3.832031 -4.015625 4 -4.171875 C 4.175781 -4.335938 4.265625 -4.550781 4.265625 -4.8125 C 4.265625 -5.070312 4.175781 -5.285156 4 -5.453125 C 3.832031 -5.617188 3.609375 -5.703125 3.328125 -5.703125 Z M 2.046875 -5.703125 "/></g></g></g><g fill="#ff6600" fill-opacity="1"><g transform="translate(217.404015, 330.573774)"><g><path d="M 0.765625 0 C 0.648438 0 0.59375 -0.0546875 0.59375 -0.171875 L 0.59375 -6.734375 C 0.59375 -6.847656 0.648438 -6.90625 0.765625 -6.90625 L 1.828125 -6.90625 C 1.929688 -6.90625 1.984375 -6.847656 1.984375 -6.734375 L 1.984375 -4.046875 C 1.984375 -4.015625 1.992188 -3.992188 2.015625 -3.984375 C 2.035156 -3.984375 2.050781 -3.992188 2.0625 -4.015625 L 4.3125 -6.796875 C 4.351562 -6.867188 4.421875 -6.90625 4.515625 -6.90625 L 5.703125 -6.90625 C 5.753906 -6.90625 5.789062 -6.894531 5.8125 -6.875 C 5.84375 -6.863281 5.859375 -6.835938 5.859375 -6.796875 C 5.859375 -6.773438 5.84375 -6.738281 5.8125 -6.6875 L 3.65625 -3.953125 C 3.632812 -3.929688 3.632812 -3.90625 3.65625 -3.875 L 5.9375 -0.203125 C 5.957031 -0.171875 5.96875 -0.140625 5.96875 -0.109375 C 5.96875 -0.0351562 5.921875 0 5.828125 0 L 4.640625 0 C 4.546875 0 4.476562 -0.0351562 4.4375 -0.109375 L 2.71875 -2.90625 C 2.707031 -2.925781 2.691406 -2.9375 2.671875 -2.9375 C 2.648438 -2.9375 2.632812 -2.925781 2.625 -2.90625 L 2.015625 -2.140625 C 1.992188 -2.109375 1.984375 -2.085938 1.984375 -2.078125 L 1.984375 -0.171875 C 1.984375 -0.0546875 1.929688 0 1.828125 0 Z M 0.765625 0 "/></g></g></g><g fill="#ff6600" fill-opacity="1"><g transform="translate(228.018177, 330.573774)"><g><path d="M 5.390625 -5.875 C 5.390625 -5.757812 5.332031 -5.703125 5.21875 -5.703125 L 2.046875 -5.703125 C 2.003906 -5.703125 1.984375 -5.6875 1.984375 -5.65625 L 1.984375 -4.140625 C 1.984375 -4.097656 2.003906 -4.078125 2.046875 -4.078125 L 4.109375 -4.078125 C 4.222656 -4.078125 4.28125 -4.023438 4.28125 -3.921875 L 4.28125 -3.0625 C 4.28125 -2.945312 4.222656 -2.890625 4.109375 -2.890625 L 2.046875 -2.890625 C 2.003906 -2.890625 1.984375 -2.867188 1.984375 -2.828125 L 1.984375 -1.25 C 1.984375 -1.207031 2.003906 -1.1875 2.046875 -1.1875 L 5.21875 -1.1875 C 5.332031 -1.1875 5.390625 -1.132812 5.390625 -1.03125 L 5.390625 -0.171875 C 5.390625 -0.0546875 5.332031 0 5.21875 0 L 0.765625 0 C 0.648438 0 0.59375 -0.0546875 0.59375 -0.171875 L 0.59375 -6.734375 C 0.59375 -6.847656 0.648438 -6.90625 0.765625 -6.90625 L 5.21875 -6.90625 C 5.332031 -6.90625 5.390625 -6.847656 5.390625 -6.734375 Z M 5.390625 -5.875 "/></g></g></g><g fill="#ff6600" fill-opacity="1"><g transform="translate(238.218034, 330.573774)"><g><path d="M 5.3125 -6.90625 C 5.425781 -6.90625 5.484375 -6.847656 5.484375 -6.734375 L 5.484375 -5.859375 C 5.484375 -5.753906 5.425781 -5.703125 5.3125 -5.703125 L 3.609375 -5.703125 C 3.566406 -5.703125 3.546875 -5.679688 3.546875 -5.640625 L 3.546875 -0.171875 C 3.546875 -0.0546875 3.488281 0 3.375 0 L 2.328125 0 C 2.210938 0 2.15625 -0.0546875 2.15625 -0.171875 L 2.15625 -5.640625 C 2.15625 -5.679688 2.132812 -5.703125 2.09375 -5.703125 L 0.4375 -5.703125 C 0.332031 -5.703125 0.28125 -5.753906 0.28125 -5.859375 L 0.28125 -6.734375 C 0.28125 -6.847656 0.332031 -6.90625 0.4375 -6.90625 Z M 5.3125 -6.90625 "/></g></g></g><g fill="#ff6600" fill-opacity="1"><g transform="translate(248.427751, 330.573774)"><g><path d="M 0.765625 0 C 0.648438 0 0.59375 -0.0546875 0.59375 -0.171875 L 0.59375 -6.734375 C 0.59375 -6.847656 0.648438 -6.90625 0.765625 -6.90625 L 1.828125 -6.90625 C 1.929688 -6.90625 1.984375 -6.847656 1.984375 -6.734375 L 1.984375 -0.171875 C 1.984375 -0.0546875 1.929688 0 1.828125 0 Z M 0.765625 0 "/></g></g></g><g fill="#ff6600" fill-opacity="1"><g transform="translate(255.461099, 330.573774)"><g><path d="M 0.765625 0 C 0.648438 0 0.59375 -0.0546875 0.59375 -0.171875 L 0.59375 -6.734375 C 0.59375 -6.847656 0.648438 -6.90625 0.765625 -6.90625 L 1.78125 -6.90625 C 1.863281 -6.90625 1.929688 -6.867188 1.984375 -6.796875 L 4.453125 -2.6875 C 4.460938 -2.664062 4.472656 -2.65625 4.484375 -2.65625 C 4.503906 -2.664062 4.515625 -2.6875 4.515625 -2.71875 L 4.515625 -6.734375 C 4.515625 -6.847656 4.570312 -6.90625 4.6875 -6.90625 L 5.71875 -6.90625 C 5.832031 -6.90625 5.890625 -6.847656 5.890625 -6.734375 L 5.890625 -0.171875 C 5.890625 -0.0546875 5.832031 0 5.71875 0 L 4.71875 0 C 4.632812 0 4.566406 -0.0390625 4.515625 -0.125 L 2.046875 -4.265625 C 2.023438 -4.285156 2.003906 -4.289062 1.984375 -4.28125 C 1.972656 -4.28125 1.96875 -4.265625 1.96875 -4.234375 L 1.984375 -0.171875 C 1.984375 -0.0546875 1.925781 0 1.8125 0 Z M 0.765625 0 "/></g></g></g><g fill="#ff6600" fill-opacity="1"><g transform="translate(266.390924, 330.573774)"><g><path d="M 3.03125 0.078125 C 2.519531 0.078125 2.070312 -0.0195312 1.6875 -0.21875 C 1.300781 -0.425781 1 -0.710938 0.78125 -1.078125 C 0.570312 -1.441406 0.46875 -1.863281 0.46875 -2.34375 L 0.46875 -4.5625 C 0.46875 -5.039062 0.570312 -5.460938 0.78125 -5.828125 C 1 -6.191406 1.300781 -6.472656 1.6875 -6.671875 C 2.070312 -6.878906 2.519531 -6.984375 3.03125 -6.984375 C 3.53125 -6.984375 3.96875 -6.882812 4.34375 -6.6875 C 4.726562 -6.488281 5.03125 -6.21875 5.25 -5.875 C 5.46875 -5.539062 5.578125 -5.164062 5.578125 -4.75 L 5.578125 -4.734375 C 5.578125 -4.617188 5.519531 -4.5625 5.40625 -4.5625 L 4.34375 -4.5625 C 4.289062 -4.5625 4.25 -4.566406 4.21875 -4.578125 C 4.195312 -4.597656 4.1875 -4.617188 4.1875 -4.640625 L 4.1875 -4.71875 C 4.1875 -5.019531 4.078125 -5.269531 3.859375 -5.46875 C 3.648438 -5.675781 3.375 -5.78125 3.03125 -5.78125 C 2.675781 -5.78125 2.390625 -5.671875 2.171875 -5.453125 C 1.960938 -5.234375 1.859375 -4.945312 1.859375 -4.59375 L 1.859375 -2.3125 C 1.859375 -1.957031 1.972656 -1.664062 2.203125 -1.4375 C 2.429688 -1.21875 2.722656 -1.109375 3.078125 -1.109375 C 3.421875 -1.109375 3.691406 -1.195312 3.890625 -1.375 C 4.097656 -1.5625 4.203125 -1.816406 4.203125 -2.140625 L 4.203125 -2.578125 C 4.203125 -2.609375 4.179688 -2.625 4.140625 -2.625 L 3.09375 -2.625 C 2.976562 -2.625 2.921875 -2.679688 2.921875 -2.796875 L 2.921875 -3.609375 C 2.921875 -3.722656 2.976562 -3.78125 3.09375 -3.78125 L 5.40625 -3.78125 C 5.519531 -3.78125 5.578125 -3.722656 5.578125 -3.609375 L 5.578125 -2.359375 C 5.578125 -1.859375 5.46875 -1.421875 5.25 -1.046875 C 5.039062 -0.679688 4.742188 -0.398438 4.359375 -0.203125 C 3.972656 -0.015625 3.53125 0.078125 3.03125 0.078125 Z M 3.03125 0.078125 "/></g></g></g><path fill="#ffb800" d="M 253.308594 124.679688 C 241.8125 130.347656 227.652344 135.496094 211.089844 140.242188 L 211.089844 145.90625 C 211.089844 147.472656 211.066406 148.996094 211.023438 150.46875 L 213.800781 149.675781 C 227.089844 145.863281 240.621094 141.375 253.261719 135.570312 C 253.28125 132.210938 253.300781 128.574219 253.308594 124.679688 Z M 253.308594 124.679688 " fill-opacity="1" fill-rule="evenodd"/><g clip-path="url(#efe07f048d)"><path fill="#ee7723" d="M 253.308594 124.679688 C 280.308594 111.371094 292.589844 95.191406 286.6875 74.605469 C 286.613281 83.320312 274.804688 92.039062 252.359375 100.738281 C 241.1875 105.070312 227.382812 109.394531 211.078125 113.714844 C 211.082031 113.789062 211.085938 113.863281 211.089844 113.9375 C 202.050781 116.570312 193.660156 118.773438 185.964844 120.652344 C 178.21875 122.480469 168.96875 124.46875 158.15625 126.726562 C 147.289062 128.929688 140.511719 130.324219 137.820312 130.96875 C 124.746094 133.765625 114.527344 139.351562 107.050781 147.625 C 99.574219 155.953125 95.859375 165.945312 95.859375 177.710938 C 95.859375 186.414062 98.121094 194.472656 102.636719 201.941406 C 107.15625 209.410156 113.613281 215.265625 121.953125 219.617188 C 130.289062 223.96875 139.972656 226.171875 151.054688 226.171875 C 163.105469 226.171875 174.023438 224.128906 183.761719 220.101562 C 193.445312 216.070312 203.503906 210 213.941406 201.941406 C 218.78125 209.839844 223.300781 215.800781 227.65625 219.9375 C 231.960938 224.078125 236.320312 226.171875 240.730469 226.171875 C 245.945312 226.171875 250.683594 224.34375 254.824219 220.746094 C 258.96875 217.144531 261.011719 213.117188 261.011719 208.710938 C 261.011719 206.1875 259.71875 200.542969 257.03125 191.789062 C 254.339844 183.027344 252.996094 174.59375 252.996094 166.535156 C 253.101562 157.941406 253.15625 150.097656 253.210938 143.058594 C 253.226562 140.738281 253.246094 138.242188 253.261719 135.570312 C 240.621094 141.375 227.089844 145.867188 213.800781 149.675781 L 211.023438 150.46875 C 210.660156 163.039062 208.746094 172.214844 205.277344 178.035156 C 201.890625 183.890625 196.617188 188.722656 189.410156 192.433594 C 182.203125 196.140625 174.347656 198.019531 165.847656 198.019531 C 157.886719 198.019531 151.429688 195.761719 146.480469 191.195312 C 141.53125 186.628906 139.058594 181.09375 139.058594 174.542969 C 139.058594 168.253906 141.15625 163.367188 145.351562 159.875 C 149.550781 156.328125 153.960938 153.964844 158.585938 152.78125 C 163.210938 151.546875 171.550781 149.667969 183.601562 147.085938 C 195.597656 144.507812 204.796875 142.089844 211.089844 139.78125 L 211.089844 140.246094 C 227.652344 135.496094 241.8125 130.347656 253.308594 124.683594 Z M 253.308594 124.679688 " fill-opacity="1" fill-rule="evenodd"/></g><g clip-path="url(#b9926e8097)"><path fill="#9a2300" d="M 210.015625 103.84375 C 223.054688 100.363281 236.234375 96.464844 248.804688 91.59375 L 250.613281 90.890625 C 249.570312 86.503906 248.230469 82.542969 246.59375 79.015625 C 242.128906 69.347656 234.488281 62.308594 223.675781 57.847656 C 212.863281 53.390625 198.015625 51.132812 179.082031 51.132812 C 162.136719 51.132812 148.039062 53.445312 136.691406 58.0625 C 125.339844 62.683594 117 68.542969 111.621094 75.6875 C 106.242188 82.832031 103.605469 90.191406 103.605469 97.714844 C 103.605469 102.546875 105.328125 106.523438 108.878906 109.585938 C 112.375 112.703125 116.570312 114.261719 121.414062 114.261719 C 126.738281 114.261719 130.234375 113.292969 131.902344 111.359375 C 133.515625 109.425781 136.3125 105.394531 140.238281 99.324219 C 144.167969 93.199219 148.902344 88.6875 154.441406 85.625 C 159.929688 82.5625 168.160156 81.058594 179.078125 81.058594 C 191.828125 81.058594 200.167969 83.691406 204.253906 89.011719 C 206.980469 92.5625 208.894531 97.515625 210.015625 103.84375 Z M 210.015625 103.84375 " fill-opacity="1" fill-rule="evenodd"/></g><g clip-path="url(#451069ce8f)"><path fill="#ffb800" d="M 213.289062 150.847656 L 213.289062 183.640625 L 213.222656 183.640625 C 213.140625 192.8125 196.429688 200.242188 175.824219 200.242188 C 155.222656 200.242188 138.511719 192.789062 138.410156 183.613281 L 138.34375 183.613281 L 138.34375 150.820312 Z M 213.289062 150.847656 " fill-opacity="1" fill-rule="nonzero"/></g><path fill="#dd6136" d="M 213.289062 148.390625 C 213.289062 157.609375 196.515625 165.085938 175.847656 165.085938 C 155.179688 165.085938 138.410156 157.609375 138.410156 148.390625 C 138.410156 139.175781 155.179688 131.699219 175.847656 131.699219 C 196.515625 131.699219 213.289062 139.167969 213.289062 148.390625 Z M 213.289062 148.390625 " fill-opacity="1" fill-rule="nonzero"/><path fill="#ffffff" d="M 210.816406 152.238281 C 210.816406 160.855469 195.152344 167.835938 175.824219 167.835938 C 156.5 167.835938 140.828125 160.855469 140.828125 152.238281 C 140.828125 143.621094 156.492188 136.640625 175.847656 136.640625 C 195.203125 136.640625 210.816406 143.621094 210.816406 152.238281 Z M 210.816406 152.238281 " fill-opacity="1" fill-rule="nonzero"/><path fill="#dd6136" d="M 213.289062 153.542969 L 213.289062 149.078125 C 212.632812 158.019531 196.125 165.222656 175.847656 165.222656 C 155.574219 165.222656 139.058594 158.070312 138.410156 149.078125 L 138.410156 153.542969 C 138.410156 153.65625 138.410156 153.769531 138.410156 153.890625 C 138.410156 163.105469 155.179688 170.585938 175.847656 170.585938 C 196.515625 170.585938 213.289062 163.105469 213.289062 153.890625 C 213.289062 153.769531 213.289062 153.65625 213.289062 153.542969 Z M 213.289062 153.542969 " fill-opacity="1" fill-rule="nonzero"/><g clip-path="url(#fa5ac4a603)"><path fill="#dd6136" d="M 213.289062 183.230469 L 213.289062 178.765625 C 212.632812 187.707031 196.125 194.910156 175.847656 194.910156 C 155.574219 194.910156 139.058594 187.753906 138.410156 178.765625 L 138.410156 183.230469 C 138.410156 183.34375 138.410156 183.457031 138.410156 183.570312 C 138.410156 192.792969 155.179688 200.265625 175.847656 200.265625 C 196.515625 200.265625 213.289062 192.789062 213.289062 183.570312 C 213.289062 183.457031 213.289062 183.34375 213.289062 183.230469 Z M 213.289062 183.230469 " fill-opacity="1" fill-rule="nonzero"/></g><path fill="#fcd7ac" d="M 213.289062 159.433594 L 213.289062 167.511719 L 205.519531 188.382812 C 205.472656 188.507812 205.410156 188.628906 205.332031 188.738281 C 205.253906 188.851562 205.160156 188.949219 205.058594 189.035156 C 204.953125 189.121094 204.839844 189.195312 204.71875 189.253906 C 204.59375 189.308594 204.464844 189.351562 204.332031 189.375 C 204.199219 189.398438 204.066406 189.40625 203.929688 189.394531 C 203.796875 189.382812 203.664062 189.355469 203.535156 189.308594 C 203.410156 189.265625 203.289062 189.203125 203.175781 189.128906 C 203.066406 189.050781 202.964844 188.960938 202.875 188.859375 L 189.753906 173.59375 L 173.328125 194.058594 C 173.027344 194.445312 172.632812 194.644531 172.140625 194.652344 L 172.085938 194.652344 C 171.566406 194.640625 171.160156 194.417969 170.863281 193.992188 L 155.53125 172.285156 L 144.351562 185.269531 C 144.164062 185.492188 143.929688 185.644531 143.652344 185.738281 C 143.375 185.828125 143.097656 185.839844 142.8125 185.773438 C 142.53125 185.707031 142.285156 185.570312 142.074219 185.367188 C 141.867188 185.164062 141.726562 184.921875 141.65625 184.636719 L 138.375 171.71875 L 138.375 159.035156 L 143.941406 180.953125 L 154.457031 168.707031 C 154.613281 168.523438 154.800781 168.382812 155.019531 168.289062 C 155.242188 168.195312 155.472656 168.152344 155.710938 168.164062 C 155.953125 168.175781 156.175781 168.238281 156.386719 168.355469 C 156.597656 168.472656 156.769531 168.628906 156.910156 168.824219 L 172.183594 190.484375 L 188.488281 170.171875 C 188.632812 169.996094 188.808594 169.855469 189.015625 169.753906 C 189.222656 169.65625 189.4375 169.601562 189.667969 169.597656 C 189.898438 169.59375 190.117188 169.640625 190.324219 169.730469 C 190.535156 169.824219 190.714844 169.957031 190.867188 170.132812 L 203.511719 184.804688 L 212.691406 160.203125 C 212.808594 159.882812 213.007812 159.628906 213.289062 159.433594 Z M 213.289062 159.433594 " fill-opacity="1" fill-rule="nonzero"/><g clip-path="url(#3cf16cc547)"><path fill="#ffffff" d="M 126.121094 114.566406 L 174.320312 145.371094 L 175.46875 143.867188 L 128.105469 112.113281 C 128.105469 112.113281 125.152344 111.808594 126.121094 114.566406 Z M 126.121094 114.566406 " fill-opacity="1" fill-rule="nonzero"/></g><path fill="#ffffff" d="M 180.191406 146.152344 C 180.191406 146.546875 180.117188 146.925781 179.964844 147.292969 C 179.816406 147.65625 179.601562 147.980469 179.324219 148.257812 C 179.042969 148.539062 178.722656 148.753906 178.359375 148.90625 C 177.996094 149.054688 177.617188 149.132812 177.222656 149.132812 C 176.828125 149.132812 176.449219 149.054688 176.085938 148.90625 C 175.71875 148.753906 175.398438 148.539062 175.121094 148.257812 C 174.84375 147.980469 174.628906 147.65625 174.476562 147.292969 C 174.324219 146.925781 174.25 146.546875 174.25 146.152344 C 174.25 145.753906 174.324219 145.375 174.476562 145.007812 C 174.628906 144.644531 174.84375 144.320312 175.121094 144.042969 C 175.398438 143.761719 175.71875 143.546875 176.085938 143.394531 C 176.449219 143.246094 176.828125 143.167969 177.222656 143.167969 C 177.617188 143.167969 177.996094 143.246094 178.359375 143.394531 C 178.722656 143.546875 179.042969 143.761719 179.324219 144.042969 C 179.601562 144.320312 179.816406 144.644531 179.964844 145.007812 C 180.117188 145.375 180.191406 145.753906 180.191406 146.152344 Z M 180.191406 146.152344 " fill-opacity="1" fill-rule="nonzero"/><path fill="#ffffff" d="M 224.042969 125.996094 L 174.851562 155.175781 L 175.695312 156.875 L 225.328125 128.882812 C 225.328125 128.882812 226.957031 126.375 224.042969 125.996094 Z M 224.042969 125.996094 " fill-opacity="1" fill-rule="nonzero"/><path fill="#ffffff" d="M 171.5 160.074219 C 171.148438 159.890625 170.847656 159.652344 170.59375 159.351562 C 170.339844 159.050781 170.152344 158.710938 170.03125 158.335938 C 169.910156 157.960938 169.867188 157.574219 169.898438 157.183594 C 169.929688 156.789062 170.035156 156.417969 170.214844 156.066406 C 170.394531 155.714844 170.632812 155.410156 170.933594 155.15625 C 171.230469 154.898438 171.566406 154.710938 171.941406 154.589844 C 172.316406 154.464844 172.699219 154.421875 173.089844 154.449219 C 173.480469 154.480469 173.851562 154.585938 174.203125 154.761719 C 174.554688 154.941406 174.859375 155.179688 175.113281 155.480469 C 175.371094 155.777344 175.558594 156.117188 175.683594 156.488281 C 175.804688 156.863281 175.851562 157.25 175.824219 157.640625 C 175.796875 158.035156 175.691406 158.410156 175.515625 158.761719 C 175.339844 159.117188 175.097656 159.425781 174.796875 159.683594 C 174.496094 159.941406 174.15625 160.132812 173.78125 160.257812 C 173.402344 160.382812 173.015625 160.425781 172.621094 160.394531 C 172.226562 160.363281 171.851562 160.253906 171.5 160.074219 Z M 171.5 160.074219 " fill-opacity="1" fill-rule="nonzero"/><path fill="#fcd7ac" d="M 157.742188 165.726562 C 157.742188 165.945312 157.699219 166.160156 157.613281 166.367188 C 157.53125 166.570312 157.410156 166.753906 157.253906 166.910156 C 157.097656 167.066406 156.914062 167.1875 156.710938 167.273438 C 156.507812 167.359375 156.292969 167.398438 156.070312 167.398438 C 155.851562 167.398438 155.636719 167.359375 155.433594 167.273438 C 155.226562 167.1875 155.046875 167.066406 154.890625 166.910156 C 154.734375 166.753906 154.613281 166.570312 154.527344 166.367188 C 154.445312 166.160156 154.402344 165.945312 154.402344 165.726562 C 154.402344 165.503906 154.445312 165.289062 154.527344 165.082031 C 154.613281 164.878906 154.734375 164.695312 154.890625 164.539062 C 155.046875 164.382812 155.226562 164.261719 155.433594 164.175781 C 155.636719 164.09375 155.851562 164.050781 156.070312 164.050781 C 156.292969 164.050781 156.507812 164.09375 156.710938 164.175781 C 156.914062 164.261719 157.097656 164.382812 157.253906 164.539062 C 157.410156 164.695312 157.53125 164.878906 157.613281 165.082031 C 157.699219 165.289062 157.742188 165.503906 157.742188 165.726562 Z M 157.742188 165.726562 " fill-opacity="1" fill-rule="nonzero"/><path fill="#fcd7ac" d="M 190.765625 166.804688 C 190.765625 167.027344 190.722656 167.238281 190.636719 167.445312 C 190.554688 167.648438 190.433594 167.832031 190.277344 167.988281 C 190.117188 168.144531 189.9375 168.265625 189.734375 168.351562 C 189.53125 168.4375 189.316406 168.480469 189.09375 168.480469 C 188.875 168.480469 188.660156 168.4375 188.457031 168.351562 C 188.25 168.265625 188.070312 168.144531 187.914062 167.988281 C 187.757812 167.832031 187.636719 167.648438 187.550781 167.445312 C 187.46875 167.238281 187.425781 167.027344 187.425781 166.804688 C 187.425781 166.582031 187.46875 166.367188 187.550781 166.164062 C 187.636719 165.957031 187.757812 165.777344 187.914062 165.621094 C 188.070312 165.460938 188.25 165.339844 188.457031 165.257812 C 188.660156 165.171875 188.875 165.128906 189.09375 165.128906 C 189.316406 165.128906 189.53125 165.171875 189.734375 165.257812 C 189.9375 165.339844 190.117188 165.460938 190.277344 165.621094 C 190.433594 165.777344 190.554688 165.957031 190.636719 166.164062 C 190.722656 166.367188 190.765625 166.582031 190.765625 166.804688 Z M 190.765625 166.804688 " fill-opacity="1" fill-rule="nonzero"/><path fill="#fcd7ac" d="M 173.632812 197.449219 C 173.632812 197.671875 173.589844 197.886719 173.503906 198.089844 C 173.421875 198.296875 173.300781 198.476562 173.144531 198.636719 C 172.988281 198.792969 172.804688 198.914062 172.601562 199 C 172.398438 199.082031 172.183594 199.125 171.960938 199.125 C 171.742188 199.125 171.527344 199.082031 171.324219 199 C 171.117188 198.914062 170.9375 198.792969 170.78125 198.636719 C 170.625 198.476562 170.503906 198.296875 170.417969 198.089844 C 170.335938 197.886719 170.292969 197.671875 170.292969 197.449219 C 170.292969 197.226562 170.335938 197.015625 170.417969 196.808594 C 170.503906 196.605469 170.625 196.421875 170.78125 196.265625 C 170.9375 196.109375 171.117188 195.988281 171.324219 195.902344 C 171.527344 195.816406 171.742188 195.773438 171.960938 195.773438 C 172.183594 195.773438 172.398438 195.816406 172.601562 195.902344 C 172.804688 195.988281 172.988281 196.109375 173.144531 196.265625 C 173.300781 196.421875 173.421875 196.605469 173.503906 196.808594 C 173.589844 197.015625 173.632812 197.226562 173.632812 197.449219 Z M 173.632812 197.449219 " fill-opacity="1" fill-rule="nonzero"/><path fill="#fcd7ac" d="M 205.722656 191.667969 C 205.722656 192.597656 205.207031 193.347656 204.574219 193.347656 C 203.945312 193.347656 203.429688 192.597656 203.429688 191.667969 C 203.429688 190.738281 203.941406 189.980469 204.574219 189.980469 C 205.210938 189.980469 205.722656 190.765625 205.722656 191.667969 Z M 205.722656 191.667969 " fill-opacity="1" fill-rule="nonzero"/><path fill="#fcd7ac" d="M 143.675781 188.382812 C 143.675781 189.3125 143.160156 190.0625 142.527344 190.0625 C 141.898438 190.0625 141.382812 189.3125 141.382812 188.382812 C 141.382812 187.453125 141.890625 186.695312 142.527344 186.695312 C 143.164062 186.695312 143.675781 187.453125 143.675781 188.382812 Z M 143.675781 188.382812 " fill-opacity="1" fill-rule="nonzero"/></svg>