<?xml version="1.0" standalone="no"?>
<!DOCTYPE svg PUBLIC "-//W3C//DTD SVG 20010904//EN"
 "http://www.w3.org/TR/2001/REC-SVG-20010904/DTD/svg10.dtd">
<svg version="1.0" xmlns="http://www.w3.org/2000/svg"
 width="960.000000pt" height="960.000000pt" viewBox="0 0 960.000000 960.000000"
 preserveAspectRatio="xMidYMid meet">

<g transform="translate(0.000000,960.000000) scale(0.100000,-0.100000)"
fill="#000000" stroke="none">
<path d="M710 5932 c-57 -130 -123 -279 -147 -330 -24 -52 -43 -96 -43 -98 0
-4 -158 -358 -207 -464 -14 -30 -33 -75 -43 -100 -10 -25 -29 -70 -43 -100
-84 -188 -217 -495 -217 -504 0 -3 45 -6 100 -6 l100 0 21 43 c11 23 59 134
107 247 l88 205 385 3 384 2 19 -42 c10 -24 54 -127 96 -229 43 -103 83 -196
89 -208 11 -19 20 -21 116 -21 58 0 105 3 105 6 0 3 -23 58 -51 122 -28 64
-57 131 -64 147 -7 17 -41 95 -75 175 -34 80 -73 170 -87 200 -37 82 -232 534
-343 795 -113 267 -152 353 -171 377 -12 16 -26 -9 -119 -220z m132 -260 c10
-20 49 -113 88 -207 39 -93 82 -195 95 -225 39 -90 85 -210 85 -220 0 -12
-587 -14 -594 -2 -3 5 26 80 65 168 148 336 198 450 213 487 8 20 19 37 23 37
4 0 16 -17 25 -38z"/>
<path d="M5147 6153 c-2 -5 -3 -417 -3 -918 l1 -910 98 -3 97 -3 0 681 c0 394
4 680 9 680 7 0 481 -480 661 -670 29 -30 136 -143 239 -250 269 -280 371
-387 433 -453 l55 -59 6 279 c3 153 3 571 0 928 -5 631 -5 650 -24 649 -10 0
-53 -1 -94 -2 l-75 -2 0 -680 c0 -742 2 -717 -55 -647 -15 17 -95 102 -179
188 -233 240 -393 406 -480 499 -44 47 -197 206 -340 353 -143 148 -266 277
-273 287 -18 26 -71 62 -76 53z"/>
<path d="M3995 6123 c-278 -62 -460 -168 -596 -348 -205 -271 -253 -589 -135
-897 105 -273 369 -499 661 -565 101 -23 290 -22 390 1 280 65 513 257 603
498 28 75 51 204 54 308 l3 85 -45 7 c-56 8 -471 8 -600 -1 l-95 -6 0 -85 0
-85 260 -3 c142 -1 263 -6 266 -10 4 -4 3 -29 -2 -57 -23 -125 -99 -251 -202
-336 -85 -69 -223 -134 -317 -149 -459 -75 -902 355 -840 813 18 130 51 216
127 329 89 133 238 248 388 299 62 21 88 24 220 24 133 0 158 -3 220 -24 110
-38 200 -97 303 -198 52 -51 96 -93 99 -93 2 0 10 6 17 13 7 6 36 32 64 57 29
24 52 49 52 54 0 5 -42 51 -93 101 -198 193 -397 276 -662 274 -66 -1 -129 -3
-140 -6z"/>
<path d="M1825 6101 l-70 -6 -3 -887 -2 -888 465 0 466 0 -3 88 -3 87 -362 3
-363 2 0 805 0 805 -27 -2 c-16 -1 -59 -4 -98 -7z"/>
<path d="M2847 6102 c-2 -4 -5 -406 -6 -894 l-3 -888 101 0 101 0 0 819 c0
450 2 845 6 877 3 32 1 64 -3 70 -9 12 -190 28 -196 16z"/>
<path d="M8219 5953 c-5 -522 -6 -1601 -2 -1617 5 -18 16 -19 287 -13 258 6
289 8 380 32 170 44 301 119 420 241 225 231 300 583 194 914 -44 138 -110
246 -206 338 -122 116 -254 186 -423 223 -98 21 -328 38 -531 39 l-118 0 -1
-157z m516 -42 c171 -17 291 -75 416 -201 58 -59 86 -97 118 -161 61 -125 76
-192 76 -339 0 -142 -19 -222 -83 -345 -54 -104 -185 -233 -282 -279 -130 -62
-212 -78 -402 -80 l-168 -1 0 700 c0 385 0 703 0 708 0 10 214 9 325 -2z"/>
</g>
</svg>
