<svg width="2458" height="512" viewBox="0 0 2458 512" fill="none" xmlns="http://www.w3.org/2000/svg">
<path d="M734.76 384.573C725.463 392.159 714.007 398.26 700.393 402.877C687.111 407.165 673.663 409.308 660.048 409.308C636.805 409.308 616.384 404.856 598.785 395.951C581.186 387.047 567.406 374.35 557.444 357.859C547.815 341.369 543 321.746 543 298.99C543 276.234 548.147 256.611 558.44 240.121C569.066 223.631 582.846 211.098 599.781 202.523C616.716 193.619 634.978 189.167 654.57 189.167C672.168 189.167 687.775 191.64 701.389 196.587C715.003 201.204 726.791 207.635 736.752 215.88L708.86 251.994C703.547 247.706 696.574 243.748 687.941 240.121C679.639 236.163 670.176 234.184 659.55 234.184C648.261 234.184 637.967 236.988 628.669 242.594C619.704 248.201 612.399 255.951 606.754 265.845C601.441 275.409 598.785 286.458 598.785 298.99C598.785 316.799 604.928 332.135 617.214 344.997C629.5 357.53 645.438 363.796 665.029 363.796C681.3 363.796 695.246 359.179 706.868 349.944L734.76 384.573Z" fill="#FFC701"/>
<path d="M791.961 403.867V18H846.75V230.721C854.055 217.529 864.681 206.811 878.627 198.566C892.905 189.991 909.84 185.704 929.431 185.704C949.022 185.704 965.292 191.64 978.242 203.513C991.525 215.056 998.332 230.062 998.664 248.531V403.867H942.879V268.319C942.215 257.765 939.06 249.355 933.415 243.089C928.103 236.493 919.303 233.03 907.017 232.7C889.751 232.7 875.472 240.121 864.183 254.962C853.225 269.803 847.746 288.436 847.746 310.863V403.867H791.961Z" fill="#FFC701"/>
<path d="M1058.1 297.011C1058.1 275.904 1063.08 256.941 1073.04 240.121C1083.34 223.301 1097.28 209.944 1114.88 200.05C1132.81 190.156 1153.4 185.209 1176.64 185.209C1200.22 185.209 1220.64 190.156 1237.91 200.05C1255.51 209.944 1269.12 223.301 1278.75 240.121C1288.38 256.941 1293.2 275.904 1293.2 297.011C1293.2 318.119 1288.38 337.247 1278.75 354.397C1269.12 371.216 1255.51 384.573 1237.91 394.467C1220.31 404.361 1199.72 409.308 1176.15 409.308C1153.24 409.308 1132.81 404.856 1114.88 395.951C1097.28 386.717 1083.34 373.69 1073.04 356.87C1063.08 340.05 1058.1 320.097 1058.1 297.011ZM1114.39 297.506C1114.39 310.038 1117.04 321.417 1122.35 331.64C1127.67 341.534 1134.81 349.45 1143.77 355.386C1153.07 360.993 1163.53 363.796 1175.15 363.796C1193.41 363.796 1208.19 357.53 1219.48 344.997C1230.77 332.135 1236.41 316.305 1236.41 297.506C1236.41 278.707 1230.77 262.877 1219.48 250.015C1208.19 237.152 1193.41 230.721 1175.15 230.721C1163.53 230.721 1153.07 233.854 1143.77 240.121C1134.81 246.057 1127.67 254.137 1122.35 264.361C1117.04 274.255 1114.39 285.303 1114.39 297.506Z" fill="#FFC701"/>
<path d="M1351.81 194.608H1407.6V403.867H1351.81V194.608ZM1349.32 119.908C1349.32 111.334 1352.64 104.243 1359.28 98.6362C1366.26 93.0296 1373.73 90.2263 1381.7 90.2263C1389.33 90.2263 1396.47 93.0296 1403.11 98.6362C1409.76 104.243 1413.08 111.334 1413.08 119.908C1413.08 128.483 1409.76 135.574 1403.11 141.181C1396.47 146.457 1389.33 149.096 1381.7 149.096C1373.73 149.096 1366.26 146.457 1359.28 141.181C1352.64 135.574 1349.32 128.483 1349.32 119.908Z" fill="#FFC701"/>
<path d="M1534.42 194.608L1538.41 243.089C1544.38 231.216 1552.52 220.992 1562.81 212.417C1573.1 203.513 1583.56 196.752 1594.19 192.135C1605.15 187.517 1614.11 185.209 1621.09 185.209L1618.6 240.615C1602.66 239.296 1588.71 242.099 1576.76 249.025C1565.14 255.951 1556 265.35 1549.36 277.223C1543.05 288.766 1539.9 300.969 1539.9 313.831V403.867H1484.11V194.608H1534.42Z" fill="#FFC701"/>
<path d="M1761.01 409.308C1741.09 409.308 1723.16 405.186 1707.22 396.941C1691.28 388.696 1678.5 376.493 1668.87 360.333C1659.57 344.173 1654.92 323.89 1654.92 299.485C1654.92 275.739 1659.74 255.456 1669.36 238.637C1679.33 221.487 1692.28 208.295 1708.21 199.061C1724.49 189.826 1742.08 185.209 1761.01 185.209C1780.6 185.209 1796.37 189.002 1808.33 196.587C1820.61 203.843 1830.41 212.582 1837.72 222.806L1841.7 194.608H1893V403.867H1837.22V373.195C1833.56 377.483 1828.25 382.43 1821.28 388.036C1814.31 393.643 1805.67 398.59 1795.38 402.877C1785.42 407.165 1773.96 409.308 1761.01 409.308ZM1776.45 363.796C1791.39 363.796 1804.18 359.838 1814.8 351.923C1825.43 344.008 1832.9 333.124 1837.22 319.273V273.76C1833.23 260.898 1825.6 250.509 1814.31 242.594C1803.02 234.679 1789.73 230.721 1774.46 230.721C1762.84 230.721 1752.21 233.525 1742.58 239.131C1733.28 244.408 1725.65 252.158 1719.67 262.382C1714.03 272.276 1711.2 283.654 1711.2 296.517C1711.2 309.049 1714.19 320.427 1720.17 330.651C1726.15 340.875 1733.95 348.955 1743.58 354.891C1753.54 360.828 1764.5 363.796 1776.45 363.796Z" fill="#FFC701"/>
<path fill-rule="evenodd" clip-rule="evenodd" d="M1299.12 419.428C1307.52 427.497 1307.03 440.14 1298.02 447.669C1249.55 488.173 1197.97 497.435 1153.21 491.256C1109.63 485.24 1073.8 464.839 1053.56 447.494C1044.66 439.864 1044.35 427.216 1052.87 419.244C1061.39 411.272 1075.51 410.994 1084.42 418.624C1099.36 431.436 1127.13 447.222 1160.01 451.761C1191.71 456.137 1229.44 450.321 1267.58 418.45C1276.59 410.922 1290.71 411.36 1299.12 419.428Z" fill="#FFC701"/>
<path d="M1057.46 297.091C1057.46 275.984 1062.28 256.204 1072.24 239.384C1082.54 222.564 1097.96 209.408 1115.56 199.514C1133.49 189.62 1153.81 185.257 1177.05 185.257C1200.63 185.257 1221.05 190.204 1238.32 200.098C1255.92 209.993 1269.53 223.349 1279.16 240.169C1288.79 256.989 1293.6 275.953 1293.6 297.06C1293.6 318.167 1289.98 337.648 1280.35 354.798C1270.72 371.618 1255.92 384.622 1238.32 394.516C1220.72 404.41 1200.13 409.357 1176.56 409.357C1153.64 409.357 1133.49 405.671 1115.56 396.766C1097.96 387.532 1083.59 374.765 1073.3 357.945C1063.34 341.126 1057.46 320.177 1057.46 297.091ZM1115.56 297.091C1115.56 309.623 1118.69 321.491 1124.01 331.715C1129.32 341.609 1135.11 348.861 1144.08 354.798C1153.38 360.404 1163.94 363.844 1175.56 363.844C1193.82 363.844 1207.79 357.27 1219.08 344.738C1230.37 331.876 1235.98 316.322 1235.98 297.523C1235.98 278.725 1231.18 262.926 1219.89 250.063C1208.6 237.201 1193.82 230.77 1175.56 230.77C1163.94 230.77 1153.38 235.216 1144.08 241.483C1135.11 247.419 1129.03 255.08 1123.71 265.304C1118.4 275.198 1115.56 284.888 1115.56 297.091Z" fill="black"/>
<path d="M1357.47 444.926V480.41H1371.11C1381.83 480.41 1388.15 473.795 1388.15 462.533C1388.15 451.27 1381.83 444.926 1371.11 444.926H1357.47ZM1364.95 451.049H1370.22C1376.81 451.049 1380.52 455.131 1380.52 462.557C1380.52 470.23 1376.91 474.263 1370.22 474.263H1364.95V451.049Z" fill="black"/>
<path d="M1392.48 480.41H1399.71V454.049H1392.48V480.41ZM1396.09 451.147C1398.27 451.147 1399.96 449.5 1399.96 447.434C1399.96 445.344 1398.27 443.721 1396.09 443.721C1393.92 443.721 1392.23 445.344 1392.23 447.434C1392.23 449.5 1393.92 451.147 1396.09 451.147Z" fill="black"/>
<path d="M1416.79 474.804C1413.2 474.804 1410.97 472 1410.97 467.181C1410.97 462.385 1413.23 459.385 1416.79 459.385C1420.41 459.385 1422.71 462.434 1422.71 467.181C1422.71 471.951 1420.41 474.804 1416.79 474.804ZM1416.67 490.345C1424.62 490.345 1429.92 486.337 1429.92 480.042V454.049H1422.78V458.647H1422.66C1421.27 455.623 1418.28 453.631 1414.47 453.631C1407.73 453.631 1403.57 458.77 1403.57 467.131C1403.57 475.369 1407.86 480.337 1414.34 480.337C1418.18 480.337 1421.3 478.419 1422.54 475.615H1422.69V480.238C1422.69 483.288 1420.61 485.353 1416.87 485.353C1414.12 485.353 1412.04 484.099 1411.47 482.279H1404.39C1404.96 486.976 1409.69 490.345 1416.67 490.345Z" fill="black"/>
<path d="M1434.77 480.41H1442V454.049H1434.77V480.41ZM1438.38 451.147C1440.56 451.147 1442.25 449.5 1442.25 447.434C1442.25 445.344 1440.56 443.721 1438.38 443.721C1436.2 443.721 1434.52 445.344 1434.52 447.434C1434.52 449.5 1436.2 451.147 1438.38 451.147Z" fill="black"/>
<path d="M1448.76 447.975V454.049H1445.02V459.459H1448.76V473.304C1448.76 478.443 1451.18 480.509 1457.42 480.509C1458.88 480.509 1460.12 480.386 1460.86 480.214V474.927C1460.42 475 1459.75 475.05 1459.11 475.05C1456.98 475.05 1455.99 474.091 1455.99 472.074V459.459H1460.89V454.049H1455.99V447.975H1448.76Z" fill="black"/>
<path d="M1474.85 475.64C1472.4 475.64 1470.77 474.41 1470.77 472.443C1470.77 470.574 1472.3 469.369 1475 469.172L1480.6 468.828V470.746C1480.6 473.599 1478 475.64 1474.85 475.64ZM1472.48 480.828C1475.79 480.828 1479.09 479.181 1480.57 476.378H1480.72V480.41H1487.7V462.287C1487.7 456.975 1483.27 453.483 1476.46 453.483C1469.43 453.483 1465.05 457 1464.78 462.115H1471.39C1471.73 460.172 1473.44 458.844 1476.14 458.844C1478.86 458.844 1480.6 460.27 1480.6 462.73V464.475L1473.91 464.869C1467.3 465.262 1463.59 468.041 1463.59 472.836C1463.59 477.582 1467.42 480.828 1472.48 480.828Z" fill="black"/>
<path d="M1492.56 480.41H1499.78V444.926H1492.56V480.41Z" fill="black"/>
<path d="M1553.16 480.41V444.926H1544.5L1534.35 470.082H1534.15L1524 444.926H1515.33V480.41H1521.99V456.459H1522.19L1531.9 480.066H1536.6L1546.31 456.459H1546.5V480.41H1553.16Z" fill="black"/>
<path d="M1583 454.049H1575.77V469.148C1575.77 472.64 1573.76 474.927 1570.55 474.927C1567.35 474.927 1565.59 473.058 1565.59 469.541V454.049H1558.36V471.041C1558.36 477.189 1562.18 480.902 1567.92 480.902C1571.93 480.902 1574.56 478.984 1575.87 475.664H1576.02V480.41H1583V454.049Z" fill="black"/>
<path d="M1587.26 461.795C1587.26 465.68 1589.83 468.287 1594.86 469.418L1599.76 470.5C1602.14 471.066 1603.03 471.804 1603.03 473.132C1603.03 474.853 1601.37 475.935 1598.62 475.935C1595.75 475.935 1593.99 474.656 1593.65 472.443H1586.59C1586.99 477.582 1591.34 480.976 1598.42 480.976C1605.43 480.976 1610.23 477.558 1610.23 472.369C1610.23 468.435 1608.08 466.344 1602.76 465.164L1597.68 464.082C1595.35 463.541 1594.21 462.656 1594.21 461.352C1594.21 459.656 1595.85 458.524 1598.35 458.524C1601.02 458.524 1602.73 459.828 1602.88 461.943H1609.54C1609.44 456.828 1605.11 453.483 1598.45 453.483C1591.64 453.483 1587.26 456.779 1587.26 461.795Z" fill="black"/>
<path d="M1613.97 480.41H1621.2V454.049H1613.97V480.41ZM1617.59 451.147C1619.77 451.147 1621.45 449.5 1621.45 447.434C1621.45 445.344 1619.77 443.721 1617.59 443.721C1615.41 443.721 1613.72 445.344 1613.72 447.434C1613.72 449.5 1615.41 451.147 1617.59 451.147Z" fill="black"/>
<path d="M1650.15 463.861C1649.82 457.885 1645.27 453.483 1638.09 453.483C1630.14 453.483 1625.06 458.746 1625.06 467.205C1625.06 475.812 1630.14 480.976 1638.14 480.976C1645.12 480.976 1649.8 476.968 1650.17 470.746H1643.44C1642.99 473.623 1641.11 475.345 1638.21 475.345C1634.62 475.345 1632.39 472.394 1632.39 467.205C1632.39 462.115 1634.62 459.115 1638.19 459.115C1641.16 459.115 1643.01 461.082 1643.44 463.861H1650.15Z" fill="black"/>
<path d="M1688 474.263H1671.81V465.312H1687.09V459.606H1671.81V451.049H1688V444.926H1664.33V480.41H1688V474.263Z" fill="black"/>
<path d="M1716.89 463.861C1716.57 457.885 1712.02 453.483 1704.84 453.483C1696.89 453.483 1691.81 458.746 1691.81 467.205C1691.81 475.812 1696.89 480.976 1704.89 480.976C1711.87 480.976 1716.55 476.968 1716.92 470.746H1710.19C1709.74 473.623 1707.86 475.345 1704.96 475.345C1701.37 475.345 1699.14 472.394 1699.14 467.205C1699.14 462.115 1701.37 459.115 1704.94 459.115C1707.91 459.115 1709.76 461.082 1710.19 463.861H1716.89Z" fill="black"/>
<path d="M1732.59 480.976C1740.61 480.976 1745.74 475.886 1745.74 467.205C1745.74 458.647 1740.54 453.483 1732.59 453.483C1724.64 453.483 1719.45 458.672 1719.45 467.205C1719.45 475.861 1724.57 480.976 1732.59 480.976ZM1732.59 475.492C1729.03 475.492 1726.77 472.517 1726.77 467.23C1726.77 461.992 1729.08 458.967 1732.59 458.967C1736.11 458.967 1738.39 461.992 1738.39 467.23C1738.39 472.517 1736.13 475.492 1732.59 475.492Z" fill="black"/>
<path d="M1749.03 461.795C1749.03 465.68 1751.61 468.287 1756.63 469.418L1761.54 470.5C1763.91 471.066 1764.8 471.804 1764.8 473.132C1764.8 474.853 1763.14 475.935 1760.4 475.935C1757.52 475.935 1755.77 474.656 1755.42 472.443H1748.36C1748.76 477.582 1753.12 480.976 1760.2 480.976C1767.2 480.976 1772.01 477.558 1772.01 472.369C1772.01 468.435 1769.85 466.344 1764.53 465.164L1759.46 464.082C1757.13 463.541 1755.99 462.656 1755.99 461.352C1755.99 459.656 1757.62 458.524 1760.12 458.524C1762.8 458.524 1764.51 459.828 1764.65 461.943H1771.31C1771.22 456.828 1766.88 453.483 1760.22 453.483C1753.41 453.483 1749.03 456.779 1749.03 461.795Z" fill="black"/>
<path d="M1778.87 490.173C1785.65 490.173 1788.97 487.763 1791.25 481.001L1800.38 454.049H1792.76L1787.11 474.656H1786.99L1781.34 454.049H1773.39L1782.63 480.435C1782.68 480.533 1782.41 481.591 1782.41 481.689C1781.91 483.779 1780.6 484.615 1777.95 484.615C1777.68 484.615 1776.37 484.615 1776.14 484.566V490.099C1776.37 490.148 1778.62 490.173 1778.87 490.173Z" fill="black"/>
<path d="M1802.41 461.795C1802.41 465.68 1804.99 468.287 1810.01 469.418L1814.92 470.5C1817.29 471.066 1818.18 471.804 1818.18 473.132C1818.18 474.853 1816.52 475.935 1813.78 475.935C1810.9 475.935 1809.15 474.656 1808.8 472.443H1801.74C1802.14 477.582 1806.5 480.976 1813.58 480.976C1820.58 480.976 1825.39 477.558 1825.39 472.369C1825.39 468.435 1823.23 466.344 1817.91 465.164L1812.84 464.082C1810.51 463.541 1809.37 462.656 1809.37 461.352C1809.37 459.656 1811 458.524 1813.5 458.524C1816.18 458.524 1817.89 459.828 1818.03 461.943H1824.69C1824.6 456.828 1820.26 453.483 1813.6 453.483C1806.79 453.483 1802.41 456.779 1802.41 461.795Z" fill="black"/>
<path d="M1830.93 447.975V454.049H1827.2V459.459H1830.93V473.304C1830.93 478.443 1833.36 480.509 1839.6 480.509C1841.06 480.509 1842.3 480.386 1843.04 480.214V474.927C1842.6 475 1841.93 475.05 1841.28 475.05C1839.15 475.05 1838.16 474.091 1838.16 472.074V459.459H1843.07V454.049H1838.16V447.975H1830.93Z" fill="black"/>
<path d="M1858.54 458.795C1861.76 458.795 1863.96 461.107 1864.11 464.475H1852.85C1853.09 461.18 1855.37 458.795 1858.54 458.795ZM1864.21 472.345C1863.54 474.361 1861.51 475.664 1858.86 475.664C1855.17 475.664 1852.77 473.082 1852.77 469.32V468.877H1871.07V466.689C1871.07 458.672 1866.19 453.483 1858.47 453.483C1850.62 453.483 1845.67 458.943 1845.67 467.353C1845.67 475.787 1850.57 480.976 1858.74 480.976C1865.3 480.976 1870.05 477.509 1870.85 472.345H1864.21Z" fill="black"/>
<path d="M1874.81 480.41H1882.04V464.5C1882.04 461.549 1883.89 459.484 1886.64 459.484C1889.32 459.484 1890.92 461.156 1890.92 463.984V480.41H1897.88V464.402C1897.88 461.475 1899.69 459.484 1902.44 459.484C1905.24 459.484 1906.77 461.156 1906.77 464.205V480.41H1914V462.41C1914 457.098 1910.51 453.557 1905.31 453.557C1901.42 453.557 1898.25 455.647 1897.06 458.967H1896.92C1896.03 455.524 1893.35 453.557 1889.51 453.557C1885.9 453.557 1883.05 455.647 1881.94 458.82H1881.79V454.049H1874.81V480.41Z" fill="black"/>
</svg>
