<svg width="512" height="512" viewBox="0 0 512 512" fill="none" xmlns="http://www.w3.org/2000/svg">
<path d="M88.5039 201.942C88.5039 171.746 95.581 144.618 109.735 120.555C124.361 96.4935 144.177 77.3854 169.183 63.2312C194.66 49.0771 223.912 42 256.938 42C290.436 42 319.452 49.0771 343.986 63.2312C368.992 77.3854 388.336 96.4935 402.018 120.555C415.7 144.618 422.542 171.746 422.542 201.942C422.542 232.137 415.7 259.502 402.018 284.036C388.336 308.098 368.992 327.206 343.986 341.36C318.981 355.514 289.729 362.591 256.23 362.591C223.676 362.591 194.66 356.222 169.183 343.483C144.177 330.273 124.361 311.636 109.735 287.574C95.581 263.512 88.5039 234.968 88.5039 201.942ZM168.475 202.65C168.475 220.578 172.249 236.855 179.798 251.481C187.347 265.635 197.491 276.959 210.23 285.451C223.44 293.472 238.302 297.482 254.815 297.482C280.764 297.482 301.76 288.518 317.801 270.589C333.842 252.189 341.863 229.542 341.863 202.65C341.863 175.757 333.842 153.11 317.801 134.71C301.76 116.309 280.764 107.109 254.815 107.109C238.302 107.109 223.44 111.591 210.23 120.555C197.491 129.048 187.347 140.607 179.798 155.233C172.249 169.387 168.475 185.193 168.475 202.65Z" fill="black"/>
<path fill-rule="evenodd" clip-rule="evenodd" d="M430.684 363.891C442.628 375.433 441.933 393.521 429.132 404.291C360.258 462.235 286.965 475.485 223.37 466.646C161.448 458.039 110.533 428.854 81.7818 404.041C69.1333 393.126 68.6934 375.031 80.7992 363.627C92.905 352.222 112.972 351.825 125.621 362.741C146.859 381.069 186.313 403.652 233.029 410.145C278.07 416.405 331.685 408.084 385.878 362.491C398.679 351.722 418.74 352.348 430.684 363.891Z" fill="#FFC701"/>
</svg>
