<?xml version="1.0" standalone="no"?>
<!DOCTYPE svg PUBLIC "-//W3C//DTD SVG 20010904//EN"
 "http://www.w3.org/TR/2001/REC-SVG-20010904/DTD/svg10.dtd">
<svg version="1.0" xmlns="http://www.w3.org/2000/svg"
 width="1127.000000pt" height="378.000000pt" viewBox="0 0 1127.000000 378.000000"
 preserveAspectRatio="xMidYMid meet">

<g transform="translate(0.000000,378.000000) scale(0.100000,-0.100000)"
fill="#000000" stroke="none">
<path d="M2240 3474 c-327 -163 -671 -333 -765 -379 -304 -148 -920 -457 -932
-467 -19 -15 -16 -84 4 -103 9 -10 125 -70 257 -135 133 -65 561 -276 951
-470 982 -487 1091 -540 1108 -540 8 0 26 9 41 21 l26 20 0 308 0 307 -53 125
c-29 68 -70 165 -91 215 -22 50 -46 96 -56 101 -9 6 -131 27 -271 48 -297 43
-299 43 -299 53 0 4 125 25 277 47 229 33 281 44 299 60 12 11 61 113 108 228
l86 207 0 305 c0 292 -1 306 -20 325 -11 11 -32 20 -47 20 -16 -1 -295 -134
-623 -296z"/>
<path d="M6308 2890 c-70 -21 -128 -98 -128 -170 0 -19 9 -53 21 -77 79 -163
329 -107 329 74 0 82 -36 136 -112 168 -41 16 -68 18 -110 5z"/>
<path d="M9458 2890 c-70 -21 -128 -98 -128 -170 0 -19 9 -53 21 -77 79 -163
329 -107 329 74 0 82 -36 136 -112 168 -41 16 -68 18 -110 5z"/>
<path d="M4294 2290 c-103 -19 -205 -77 -286 -164 l-48 -50 0 97 0 97 -135 0
-135 0 0 -700 0 -700 135 0 135 0 0 483 0 484 32 48 c41 61 135 131 206 151
82 24 211 16 278 -18 54 -28 112 -86 140 -140 41 -79 44 -116 44 -570 l0 -438
130 0 131 0 -2 488 -2 487 57 61 c37 41 80 74 128 100 66 34 82 38 163 42 74
3 100 0 146 -17 67 -25 130 -77 164 -134 50 -87 55 -136 55 -599 l0 -428 130
0 130 0 0 466 c0 390 -3 477 -16 537 -43 195 -168 334 -353 395 -107 35 -276
37 -371 3 -91 -32 -174 -85 -247 -158 -61 -60 -63 -62 -74 -40 -44 85 -145
165 -248 197 -75 24 -214 33 -287 20z"/>
<path d="M7434 2290 c-103 -19 -205 -77 -286 -164 l-48 -50 0 97 0 97 -135 0
-135 0 0 -700 0 -700 135 0 135 0 0 483 0 484 32 48 c41 61 135 131 206 151
82 24 211 16 278 -18 54 -28 112 -86 140 -140 41 -79 44 -116 44 -570 l0 -438
130 0 131 0 -2 488 -2 487 57 61 c37 41 80 74 128 100 66 34 82 38 163 42 74
3 100 0 146 -17 67 -25 130 -77 164 -134 50 -87 55 -136 55 -599 l0 -428 130
0 130 0 0 466 c0 390 -3 477 -16 537 -43 195 -168 334 -353 395 -107 35 -276
37 -371 3 -91 -32 -174 -85 -247 -158 -61 -60 -63 -62 -74 -40 -44 85 -145
165 -248 197 -75 24 -214 33 -287 20z"/>
<path d="M10593 2290 c-119 -22 -250 -96 -320 -182 l-33 -40 0 101 0 101 -135
0 -135 0 0 -700 0 -700 135 0 135 0 0 473 0 474 28 39 c39 53 93 99 153 129
206 105 437 51 533 -124 50 -93 56 -149 56 -588 l0 -403 131 0 130 0 -3 478
c-4 467 -4 478 -27 547 -67 202 -195 333 -372 381 -70 18 -210 25 -276 14z"/>
<path d="M6220 1570 l0 -700 135 0 135 0 0 700 0 700 -135 0 -135 0 0 -700z"/>
<path d="M9370 1570 l0 -700 135 0 135 0 0 700 0 700 -135 0 -135 0 0 -700z"/>
<path d="M750 1189 c-32 -6 -31 -6 16 -8 65 -1 506 -80 794 -141 209 -45 216
-45 380 -10 80 17 183 37 230 46 95 17 164 34 158 39 -1 2 -127 -21 -280 -50
-275 -53 -276 -53 -345 -39 -121 26 -745 143 -833 156 -47 8 -101 11 -120 7z"/>
</g>
</svg>
