<?xml version="1.0" standalone="no"?>
<!DOCTYPE svg PUBLIC "-//W3C//DTD SVG 20010904//EN"
 "http://www.w3.org/TR/2001/REC-SVG-20010904/DTD/svg10.dtd">
<svg version="1.0" xmlns="http://www.w3.org/2000/svg"
 width="512.000000pt" height="512.000000pt" viewBox="0 0 512.000000 512.000000"
 preserveAspectRatio="xMidYMid meet">

<g transform="translate(0.000000,512.000000) scale(0.100000,-0.100000)"
fill="#000000" stroke="none">
<path d="M3330 4144 c-327 -163 -671 -333 -765 -379 -304 -148 -920 -457 -932
-467 -19 -15 -16 -84 4 -103 9 -10 125 -70 257 -135 133 -65 561 -276 951
-470 982 -487 1091 -540 1108 -540 8 0 26 9 41 21 l26 20 0 308 0 307 -53 125
c-29 68 -70 165 -91 215 -22 50 -46 96 -56 101 -9 6 -131 27 -271 48 -297 43
-299 43 -299 53 0 4 125 25 277 47 229 33 281 44 299 60 12 11 61 113 108 228
l86 207 0 305 c0 292 -1 306 -20 325 -11 11 -32 20 -47 20 -16 -1 -295 -134
-623 -296z"/>
<path d="M1840 1859 c-32 -6 -31 -6 16 -8 65 -1 506 -80 794 -141 209 -45 216
-45 380 -10 80 17 183 37 230 46 95 17 164 34 158 39 -1 2 -127 -21 -280 -50
-275 -53 -276 -53 -345 -39 -121 26 -745 143 -833 156 -47 8 -101 11 -120 7z"/>
</g>
</svg>
